<?xml version="1.0" encoding="utf-8" standalone="no"?>
<!DOCTYPE svg PUBLIC "-//W3C//DTD SVG 1.1//EN"
  "http://www.w3.org/Graphics/SVG/1.1/DTD/svg11.dtd">
<svg xmlns:xlink="http://www.w3.org/1999/xlink" width="851.654313pt" height="568.425pt" viewBox="0 0 851.654313 568.425" xmlns="http://www.w3.org/2000/svg" version="1.1">
 <metadata>
  <rdf:RDF xmlns:dc="http://purl.org/dc/elements/1.1/" xmlns:cc="http://creativecommons.org/ns#" xmlns:rdf="http://www.w3.org/1999/02/22-rdf-syntax-ns#">
   <cc:Work>
    <dc:type rdf:resource="http://purl.org/dc/dcmitype/StillImage"/>
    <dc:date>2026-03-27T15:13:11.601203</dc:date>
    <dc:format>image/svg+xml</dc:format>
    <dc:creator>
     <cc:Agent>
      <dc:title>Matplotlib v3.10.6, https://matplotlib.org/</dc:title>
     </cc:Agent>
    </dc:creator>
   </cc:Work>
  </rdf:RDF>
 </metadata>
 <defs>
  <style type="text/css">*{stroke-linejoin: round; stroke-linecap: butt}</style>
 </defs>
 <g id="figure_1">
  <g id="patch_1">
   <path d="M 0 568.425 
L 851.654313 568.425 
L 851.654313 0 
L 0 0 
z
" style="fill: #ffffff"/>
  </g>
  <g id="axes_1">
   <g id="patch_2">
    <path d="M 60.3775 526.9975 
L 633.1575 526.9975 
L 633.1575 26.7675 
L 60.3775 26.7675 
z
" style="fill: #ffffff"/>
   </g>
   <g id="matplotlib.axis_1">
    <g id="xtick_1">
     <g id="line2d_1">
      <path d="M 85.891724 526.9975 
L 85.891724 26.7675 
" clip-path="url(#p839359f0ae)" style="fill: none; stroke-dasharray: 2.96,1.28; stroke-dashoffset: 0; stroke: #b0b0b0; stroke-opacity: 0.7; stroke-width: 0.8"/>
     </g>
     <g id="line2d_2">
      <defs>
       <path id="m982d981c58" d="M 0 0 
L 0 3.5 
" style="stroke: #000000; stroke-width: 0.8"/>
      </defs>
      <g>
       <use xlink:href="#m982d981c58" x="85.891724" y="526.9975" style="stroke: #000000; stroke-width: 0.8"/>
      </g>
     </g>
     <g id="text_1">
      <!-- 0 -->
      <g transform="translate(82.710474 541.595937) scale(0.1 -0.1)">
       <defs>
        <path id="DejaVuSans-30" d="M 2034 4250 
Q 1547 4250 1301 3770 
Q 1056 3291 1056 2328 
Q 1056 1369 1301 889 
Q 1547 409 2034 409 
Q 2525 409 2770 889 
Q 3016 1369 3016 2328 
Q 3016 3291 2770 3770 
Q 2525 4250 2034 4250 
z
M 2034 4750 
Q 2819 4750 3233 4129 
Q 3647 3509 3647 2328 
Q 3647 1150 3233 529 
Q 2819 -91 2034 -91 
Q 1250 -91 836 529 
Q 422 1150 422 2328 
Q 422 3509 836 4129 
Q 1250 4750 2034 4750 
z
" transform="scale(0.015625)"/>
       </defs>
       <use xlink:href="#DejaVuSans-30"/>
      </g>
     </g>
    </g>
    <g id="xtick_2">
     <g id="line2d_3">
      <path d="M 111.95324 526.9975 
L 111.95324 26.7675 
" clip-path="url(#p839359f0ae)" style="fill: none; stroke-dasharray: 2.96,1.28; stroke-dashoffset: 0; stroke: #b0b0b0; stroke-opacity: 0.7; stroke-width: 0.8"/>
     </g>
     <g id="line2d_4">
      <g>
       <use xlink:href="#m982d981c58" x="111.95324" y="526.9975" style="stroke: #000000; stroke-width: 0.8"/>
      </g>
     </g>
     <g id="text_2">
      <!-- 50 -->
      <g transform="translate(105.59074 541.595937) scale(0.1 -0.1)">
       <defs>
        <path id="DejaVuSans-35" d="M 691 4666 
L 3169 4666 
L 3169 4134 
L 1269 4134 
L 1269 2991 
Q 1406 3038 1543 3061 
Q 1681 3084 1819 3084 
Q 2600 3084 3056 2656 
Q 3513 2228 3513 1497 
Q 3513 744 3044 326 
Q 2575 -91 1722 -91 
Q 1428 -91 1123 -41 
Q 819 9 494 109 
L 494 744 
Q 775 591 1075 516 
Q 1375 441 1709 441 
Q 2250 441 2565 725 
Q 2881 1009 2881 1497 
Q 2881 1984 2565 2268 
Q 2250 2553 1709 2553 
Q 1456 2553 1204 2497 
Q 953 2441 691 2322 
L 691 4666 
z
" transform="scale(0.015625)"/>
       </defs>
       <use xlink:href="#DejaVuSans-35"/>
       <use xlink:href="#DejaVuSans-30" transform="translate(63.623047 0)"/>
      </g>
     </g>
    </g>
    <g id="xtick_3">
     <g id="line2d_5">
      <path d="M 138.014756 526.9975 
L 138.014756 26.7675 
" clip-path="url(#p839359f0ae)" style="fill: none; stroke-dasharray: 2.96,1.28; stroke-dashoffset: 0; stroke: #b0b0b0; stroke-opacity: 0.7; stroke-width: 0.8"/>
     </g>
     <g id="line2d_6">
      <g>
       <use xlink:href="#m982d981c58" x="138.014756" y="526.9975" style="stroke: #000000; stroke-width: 0.8"/>
      </g>
     </g>
     <g id="text_3">
      <!-- 100 -->
      <g transform="translate(128.471006 541.595937) scale(0.1 -0.1)">
       <defs>
        <path id="DejaVuSans-31" d="M 794 531 
L 1825 531 
L 1825 4091 
L 703 3866 
L 703 4441 
L 1819 4666 
L 2450 4666 
L 2450 531 
L 3481 531 
L 3481 0 
L 794 0 
L 794 531 
z
" transform="scale(0.015625)"/>
       </defs>
       <use xlink:href="#DejaVuSans-31"/>
       <use xlink:href="#DejaVuSans-30" transform="translate(63.623047 0)"/>
       <use xlink:href="#DejaVuSans-30" transform="translate(127.246094 0)"/>
      </g>
     </g>
    </g>
    <g id="xtick_4">
     <g id="line2d_7">
      <path d="M 164.076272 526.9975 
L 164.076272 26.7675 
" clip-path="url(#p839359f0ae)" style="fill: none; stroke-dasharray: 2.96,1.28; stroke-dashoffset: 0; stroke: #b0b0b0; stroke-opacity: 0.7; stroke-width: 0.8"/>
     </g>
     <g id="line2d_8">
      <g>
       <use xlink:href="#m982d981c58" x="164.076272" y="526.9975" style="stroke: #000000; stroke-width: 0.8"/>
      </g>
     </g>
     <g id="text_4">
      <!-- 150 -->
      <g transform="translate(154.532522 541.595937) scale(0.1 -0.1)">
       <use xlink:href="#DejaVuSans-31"/>
       <use xlink:href="#DejaVuSans-35" transform="translate(63.623047 0)"/>
       <use xlink:href="#DejaVuSans-30" transform="translate(127.246094 0)"/>
      </g>
     </g>
    </g>
    <g id="xtick_5">
     <g id="line2d_9">
      <path d="M 190.137788 526.9975 
L 190.137788 26.7675 
" clip-path="url(#p839359f0ae)" style="fill: none; stroke-dasharray: 2.96,1.28; stroke-dashoffset: 0; stroke: #b0b0b0; stroke-opacity: 0.7; stroke-width: 0.8"/>
     </g>
     <g id="line2d_10">
      <g>
       <use xlink:href="#m982d981c58" x="190.137788" y="526.9975" style="stroke: #000000; stroke-width: 0.8"/>
      </g>
     </g>
     <g id="text_5">
      <!-- 200 -->
      <g transform="translate(180.594038 541.595937) scale(0.1 -0.1)">
       <defs>
        <path id="DejaVuSans-32" d="M 1228 531 
L 3431 531 
L 3431 0 
L 469 0 
L 469 531 
Q 828 903 1448 1529 
Q 2069 2156 2228 2338 
Q 2531 2678 2651 2914 
Q 2772 3150 2772 3378 
Q 2772 3750 2511 3984 
Q 2250 4219 1831 4219 
Q 1534 4219 1204 4116 
Q 875 4013 500 3803 
L 500 4441 
Q 881 4594 1212 4672 
Q 1544 4750 1819 4750 
Q 2544 4750 2975 4387 
Q 3406 4025 3406 3419 
Q 3406 3131 3298 2873 
Q 3191 2616 2906 2266 
Q 2828 2175 2409 1742 
Q 1991 1309 1228 531 
z
" transform="scale(0.015625)"/>
       </defs>
       <use xlink:href="#DejaVuSans-32"/>
       <use xlink:href="#DejaVuSans-30" transform="translate(63.623047 0)"/>
       <use xlink:href="#DejaVuSans-30" transform="translate(127.246094 0)"/>
      </g>
     </g>
    </g>
    <g id="xtick_6">
     <g id="line2d_11">
      <path d="M 216.199305 526.9975 
L 216.199305 26.7675 
" clip-path="url(#p839359f0ae)" style="fill: none; stroke-dasharray: 2.96,1.28; stroke-dashoffset: 0; stroke: #b0b0b0; stroke-opacity: 0.7; stroke-width: 0.8"/>
     </g>
     <g id="line2d_12">
      <g>
       <use xlink:href="#m982d981c58" x="216.199305" y="526.9975" style="stroke: #000000; stroke-width: 0.8"/>
      </g>
     </g>
     <g id="text_6">
      <!-- 250 -->
      <g transform="translate(206.655555 541.595937) scale(0.1 -0.1)">
       <use xlink:href="#DejaVuSans-32"/>
       <use xlink:href="#DejaVuSans-35" transform="translate(63.623047 0)"/>
       <use xlink:href="#DejaVuSans-30" transform="translate(127.246094 0)"/>
      </g>
     </g>
    </g>
    <g id="xtick_7">
     <g id="line2d_13">
      <path d="M 242.260821 526.9975 
L 242.260821 26.7675 
" clip-path="url(#p839359f0ae)" style="fill: none; stroke-dasharray: 2.96,1.28; stroke-dashoffset: 0; stroke: #b0b0b0; stroke-opacity: 0.7; stroke-width: 0.8"/>
     </g>
     <g id="line2d_14">
      <g>
       <use xlink:href="#m982d981c58" x="242.260821" y="526.9975" style="stroke: #000000; stroke-width: 0.8"/>
      </g>
     </g>
     <g id="text_7">
      <!-- 300 -->
      <g transform="translate(232.717071 541.595937) scale(0.1 -0.1)">
       <defs>
        <path id="DejaVuSans-33" d="M 2597 2516 
Q 3050 2419 3304 2112 
Q 3559 1806 3559 1356 
Q 3559 666 3084 287 
Q 2609 -91 1734 -91 
Q 1441 -91 1130 -33 
Q 819 25 488 141 
L 488 750 
Q 750 597 1062 519 
Q 1375 441 1716 441 
Q 2309 441 2620 675 
Q 2931 909 2931 1356 
Q 2931 1769 2642 2001 
Q 2353 2234 1838 2234 
L 1294 2234 
L 1294 2753 
L 1863 2753 
Q 2328 2753 2575 2939 
Q 2822 3125 2822 3475 
Q 2822 3834 2567 4026 
Q 2313 4219 1838 4219 
Q 1578 4219 1281 4162 
Q 984 4106 628 3988 
L 628 4550 
Q 988 4650 1302 4700 
Q 1616 4750 1894 4750 
Q 2613 4750 3031 4423 
Q 3450 4097 3450 3541 
Q 3450 3153 3228 2886 
Q 3006 2619 2597 2516 
z
" transform="scale(0.015625)"/>
       </defs>
       <use xlink:href="#DejaVuSans-33"/>
       <use xlink:href="#DejaVuSans-30" transform="translate(63.623047 0)"/>
       <use xlink:href="#DejaVuSans-30" transform="translate(127.246094 0)"/>
      </g>
     </g>
    </g>
    <g id="xtick_8">
     <g id="line2d_15">
      <path d="M 268.322337 526.9975 
L 268.322337 26.7675 
" clip-path="url(#p839359f0ae)" style="fill: none; stroke-dasharray: 2.96,1.28; stroke-dashoffset: 0; stroke: #b0b0b0; stroke-opacity: 0.7; stroke-width: 0.8"/>
     </g>
     <g id="line2d_16">
      <g>
       <use xlink:href="#m982d981c58" x="268.322337" y="526.9975" style="stroke: #000000; stroke-width: 0.8"/>
      </g>
     </g>
     <g id="text_8">
      <!-- 350 -->
      <g transform="translate(258.778587 541.595937) scale(0.1 -0.1)">
       <use xlink:href="#DejaVuSans-33"/>
       <use xlink:href="#DejaVuSans-35" transform="translate(63.623047 0)"/>
       <use xlink:href="#DejaVuSans-30" transform="translate(127.246094 0)"/>
      </g>
     </g>
    </g>
    <g id="xtick_9">
     <g id="line2d_17">
      <path d="M 294.383853 526.9975 
L 294.383853 26.7675 
" clip-path="url(#p839359f0ae)" style="fill: none; stroke-dasharray: 2.96,1.28; stroke-dashoffset: 0; stroke: #b0b0b0; stroke-opacity: 0.7; stroke-width: 0.8"/>
     </g>
     <g id="line2d_18">
      <g>
       <use xlink:href="#m982d981c58" x="294.383853" y="526.9975" style="stroke: #000000; stroke-width: 0.8"/>
      </g>
     </g>
     <g id="text_9">
      <!-- 400 -->
      <g transform="translate(284.840103 541.595937) scale(0.1 -0.1)">
       <defs>
        <path id="DejaVuSans-34" d="M 2419 4116 
L 825 1625 
L 2419 1625 
L 2419 4116 
z
M 2253 4666 
L 3047 4666 
L 3047 1625 
L 3713 1625 
L 3713 1100 
L 3047 1100 
L 3047 0 
L 2419 0 
L 2419 1100 
L 313 1100 
L 313 1709 
L 2253 4666 
z
" transform="scale(0.015625)"/>
       </defs>
       <use xlink:href="#DejaVuSans-34"/>
       <use xlink:href="#DejaVuSans-30" transform="translate(63.623047 0)"/>
       <use xlink:href="#DejaVuSans-30" transform="translate(127.246094 0)"/>
      </g>
     </g>
    </g>
    <g id="xtick_10">
     <g id="line2d_19">
      <path d="M 320.445369 526.9975 
L 320.445369 26.7675 
" clip-path="url(#p839359f0ae)" style="fill: none; stroke-dasharray: 2.96,1.28; stroke-dashoffset: 0; stroke: #b0b0b0; stroke-opacity: 0.7; stroke-width: 0.8"/>
     </g>
     <g id="line2d_20">
      <g>
       <use xlink:href="#m982d981c58" x="320.445369" y="526.9975" style="stroke: #000000; stroke-width: 0.8"/>
      </g>
     </g>
     <g id="text_10">
      <!-- 450 -->
      <g transform="translate(310.901619 541.595937) scale(0.1 -0.1)">
       <use xlink:href="#DejaVuSans-34"/>
       <use xlink:href="#DejaVuSans-35" transform="translate(63.623047 0)"/>
       <use xlink:href="#DejaVuSans-30" transform="translate(127.246094 0)"/>
      </g>
     </g>
    </g>
    <g id="xtick_11">
     <g id="line2d_21">
      <path d="M 346.506885 526.9975 
L 346.506885 26.7675 
" clip-path="url(#p839359f0ae)" style="fill: none; stroke-dasharray: 2.96,1.28; stroke-dashoffset: 0; stroke: #b0b0b0; stroke-opacity: 0.7; stroke-width: 0.8"/>
     </g>
     <g id="line2d_22">
      <g>
       <use xlink:href="#m982d981c58" x="346.506885" y="526.9975" style="stroke: #000000; stroke-width: 0.8"/>
      </g>
     </g>
     <g id="text_11">
      <!-- 500 -->
      <g transform="translate(336.963135 541.595937) scale(0.1 -0.1)">
       <use xlink:href="#DejaVuSans-35"/>
       <use xlink:href="#DejaVuSans-30" transform="translate(63.623047 0)"/>
       <use xlink:href="#DejaVuSans-30" transform="translate(127.246094 0)"/>
      </g>
     </g>
    </g>
    <g id="xtick_12">
     <g id="line2d_23">
      <path d="M 372.568401 526.9975 
L 372.568401 26.7675 
" clip-path="url(#p839359f0ae)" style="fill: none; stroke-dasharray: 2.96,1.28; stroke-dashoffset: 0; stroke: #b0b0b0; stroke-opacity: 0.7; stroke-width: 0.8"/>
     </g>
     <g id="line2d_24">
      <g>
       <use xlink:href="#m982d981c58" x="372.568401" y="526.9975" style="stroke: #000000; stroke-width: 0.8"/>
      </g>
     </g>
     <g id="text_12">
      <!-- 550 -->
      <g transform="translate(363.024651 541.595937) scale(0.1 -0.1)">
       <use xlink:href="#DejaVuSans-35"/>
       <use xlink:href="#DejaVuSans-35" transform="translate(63.623047 0)"/>
       <use xlink:href="#DejaVuSans-30" transform="translate(127.246094 0)"/>
      </g>
     </g>
    </g>
    <g id="xtick_13">
     <g id="line2d_25">
      <path d="M 398.629917 526.9975 
L 398.629917 26.7675 
" clip-path="url(#p839359f0ae)" style="fill: none; stroke-dasharray: 2.96,1.28; stroke-dashoffset: 0; stroke: #b0b0b0; stroke-opacity: 0.7; stroke-width: 0.8"/>
     </g>
     <g id="line2d_26">
      <g>
       <use xlink:href="#m982d981c58" x="398.629917" y="526.9975" style="stroke: #000000; stroke-width: 0.8"/>
      </g>
     </g>
     <g id="text_13">
      <!-- 600 -->
      <g transform="translate(389.086167 541.595937) scale(0.1 -0.1)">
       <defs>
        <path id="DejaVuSans-36" d="M 2113 2584 
Q 1688 2584 1439 2293 
Q 1191 2003 1191 1497 
Q 1191 994 1439 701 
Q 1688 409 2113 409 
Q 2538 409 2786 701 
Q 3034 994 3034 1497 
Q 3034 2003 2786 2293 
Q 2538 2584 2113 2584 
z
M 3366 4563 
L 3366 3988 
Q 3128 4100 2886 4159 
Q 2644 4219 2406 4219 
Q 1781 4219 1451 3797 
Q 1122 3375 1075 2522 
Q 1259 2794 1537 2939 
Q 1816 3084 2150 3084 
Q 2853 3084 3261 2657 
Q 3669 2231 3669 1497 
Q 3669 778 3244 343 
Q 2819 -91 2113 -91 
Q 1303 -91 875 529 
Q 447 1150 447 2328 
Q 447 3434 972 4092 
Q 1497 4750 2381 4750 
Q 2619 4750 2861 4703 
Q 3103 4656 3366 4563 
z
" transform="scale(0.015625)"/>
       </defs>
       <use xlink:href="#DejaVuSans-36"/>
       <use xlink:href="#DejaVuSans-30" transform="translate(63.623047 0)"/>
       <use xlink:href="#DejaVuSans-30" transform="translate(127.246094 0)"/>
      </g>
     </g>
    </g>
    <g id="xtick_14">
     <g id="line2d_27">
      <path d="M 424.691433 526.9975 
L 424.691433 26.7675 
" clip-path="url(#p839359f0ae)" style="fill: none; stroke-dasharray: 2.96,1.28; stroke-dashoffset: 0; stroke: #b0b0b0; stroke-opacity: 0.7; stroke-width: 0.8"/>
     </g>
     <g id="line2d_28">
      <g>
       <use xlink:href="#m982d981c58" x="424.691433" y="526.9975" style="stroke: #000000; stroke-width: 0.8"/>
      </g>
     </g>
     <g id="text_14">
      <!-- 650 -->
      <g transform="translate(415.147683 541.595937) scale(0.1 -0.1)">
       <use xlink:href="#DejaVuSans-36"/>
       <use xlink:href="#DejaVuSans-35" transform="translate(63.623047 0)"/>
       <use xlink:href="#DejaVuSans-30" transform="translate(127.246094 0)"/>
      </g>
     </g>
    </g>
    <g id="xtick_15">
     <g id="line2d_29">
      <path d="M 450.752949 526.9975 
L 450.752949 26.7675 
" clip-path="url(#p839359f0ae)" style="fill: none; stroke-dasharray: 2.96,1.28; stroke-dashoffset: 0; stroke: #b0b0b0; stroke-opacity: 0.7; stroke-width: 0.8"/>
     </g>
     <g id="line2d_30">
      <g>
       <use xlink:href="#m982d981c58" x="450.752949" y="526.9975" style="stroke: #000000; stroke-width: 0.8"/>
      </g>
     </g>
     <g id="text_15">
      <!-- 700 -->
      <g transform="translate(441.209199 541.595937) scale(0.1 -0.1)">
       <defs>
        <path id="DejaVuSans-37" d="M 525 4666 
L 3525 4666 
L 3525 4397 
L 1831 0 
L 1172 0 
L 2766 4134 
L 525 4134 
L 525 4666 
z
" transform="scale(0.015625)"/>
       </defs>
       <use xlink:href="#DejaVuSans-37"/>
       <use xlink:href="#DejaVuSans-30" transform="translate(63.623047 0)"/>
       <use xlink:href="#DejaVuSans-30" transform="translate(127.246094 0)"/>
      </g>
     </g>
    </g>
    <g id="xtick_16">
     <g id="line2d_31">
      <path d="M 476.814465 526.9975 
L 476.814465 26.7675 
" clip-path="url(#p839359f0ae)" style="fill: none; stroke-dasharray: 2.96,1.28; stroke-dashoffset: 0; stroke: #b0b0b0; stroke-opacity: 0.7; stroke-width: 0.8"/>
     </g>
     <g id="line2d_32">
      <g>
       <use xlink:href="#m982d981c58" x="476.814465" y="526.9975" style="stroke: #000000; stroke-width: 0.8"/>
      </g>
     </g>
     <g id="text_16">
      <!-- 750 -->
      <g transform="translate(467.270715 541.595937) scale(0.1 -0.1)">
       <use xlink:href="#DejaVuSans-37"/>
       <use xlink:href="#DejaVuSans-35" transform="translate(63.623047 0)"/>
       <use xlink:href="#DejaVuSans-30" transform="translate(127.246094 0)"/>
      </g>
     </g>
    </g>
    <g id="xtick_17">
     <g id="line2d_33">
      <path d="M 502.875981 526.9975 
L 502.875981 26.7675 
" clip-path="url(#p839359f0ae)" style="fill: none; stroke-dasharray: 2.96,1.28; stroke-dashoffset: 0; stroke: #b0b0b0; stroke-opacity: 0.7; stroke-width: 0.8"/>
     </g>
     <g id="line2d_34">
      <g>
       <use xlink:href="#m982d981c58" x="502.875981" y="526.9975" style="stroke: #000000; stroke-width: 0.8"/>
      </g>
     </g>
     <g id="text_17">
      <!-- 800 -->
      <g transform="translate(493.332231 541.595937) scale(0.1 -0.1)">
       <defs>
        <path id="DejaVuSans-38" d="M 2034 2216 
Q 1584 2216 1326 1975 
Q 1069 1734 1069 1313 
Q 1069 891 1326 650 
Q 1584 409 2034 409 
Q 2484 409 2743 651 
Q 3003 894 3003 1313 
Q 3003 1734 2745 1975 
Q 2488 2216 2034 2216 
z
M 1403 2484 
Q 997 2584 770 2862 
Q 544 3141 544 3541 
Q 544 4100 942 4425 
Q 1341 4750 2034 4750 
Q 2731 4750 3128 4425 
Q 3525 4100 3525 3541 
Q 3525 3141 3298 2862 
Q 3072 2584 2669 2484 
Q 3125 2378 3379 2068 
Q 3634 1759 3634 1313 
Q 3634 634 3220 271 
Q 2806 -91 2034 -91 
Q 1263 -91 848 271 
Q 434 634 434 1313 
Q 434 1759 690 2068 
Q 947 2378 1403 2484 
z
M 1172 3481 
Q 1172 3119 1398 2916 
Q 1625 2713 2034 2713 
Q 2441 2713 2670 2916 
Q 2900 3119 2900 3481 
Q 2900 3844 2670 4047 
Q 2441 4250 2034 4250 
Q 1625 4250 1398 4047 
Q 1172 3844 1172 3481 
z
" transform="scale(0.015625)"/>
       </defs>
       <use xlink:href="#DejaVuSans-38"/>
       <use xlink:href="#DejaVuSans-30" transform="translate(63.623047 0)"/>
       <use xlink:href="#DejaVuSans-30" transform="translate(127.246094 0)"/>
      </g>
     </g>
    </g>
    <g id="xtick_18">
     <g id="line2d_35">
      <path d="M 528.937497 526.9975 
L 528.937497 26.7675 
" clip-path="url(#p839359f0ae)" style="fill: none; stroke-dasharray: 2.96,1.28; stroke-dashoffset: 0; stroke: #b0b0b0; stroke-opacity: 0.7; stroke-width: 0.8"/>
     </g>
     <g id="line2d_36">
      <g>
       <use xlink:href="#m982d981c58" x="528.937497" y="526.9975" style="stroke: #000000; stroke-width: 0.8"/>
      </g>
     </g>
     <g id="text_18">
      <!-- 850 -->
      <g transform="translate(519.393747 541.595937) scale(0.1 -0.1)">
       <use xlink:href="#DejaVuSans-38"/>
       <use xlink:href="#DejaVuSans-35" transform="translate(63.623047 0)"/>
       <use xlink:href="#DejaVuSans-30" transform="translate(127.246094 0)"/>
      </g>
     </g>
    </g>
    <g id="xtick_19">
     <g id="line2d_37">
      <path d="M 554.999013 526.9975 
L 554.999013 26.7675 
" clip-path="url(#p839359f0ae)" style="fill: none; stroke-dasharray: 2.96,1.28; stroke-dashoffset: 0; stroke: #b0b0b0; stroke-opacity: 0.7; stroke-width: 0.8"/>
     </g>
     <g id="line2d_38">
      <g>
       <use xlink:href="#m982d981c58" x="554.999013" y="526.9975" style="stroke: #000000; stroke-width: 0.8"/>
      </g>
     </g>
     <g id="text_19">
      <!-- 900 -->
      <g transform="translate(545.455263 541.595937) scale(0.1 -0.1)">
       <defs>
        <path id="DejaVuSans-39" d="M 703 97 
L 703 672 
Q 941 559 1184 500 
Q 1428 441 1663 441 
Q 2288 441 2617 861 
Q 2947 1281 2994 2138 
Q 2813 1869 2534 1725 
Q 2256 1581 1919 1581 
Q 1219 1581 811 2004 
Q 403 2428 403 3163 
Q 403 3881 828 4315 
Q 1253 4750 1959 4750 
Q 2769 4750 3195 4129 
Q 3622 3509 3622 2328 
Q 3622 1225 3098 567 
Q 2575 -91 1691 -91 
Q 1453 -91 1209 -44 
Q 966 3 703 97 
z
M 1959 2075 
Q 2384 2075 2632 2365 
Q 2881 2656 2881 3163 
Q 2881 3666 2632 3958 
Q 2384 4250 1959 4250 
Q 1534 4250 1286 3958 
Q 1038 3666 1038 3163 
Q 1038 2656 1286 2365 
Q 1534 2075 1959 2075 
z
" transform="scale(0.015625)"/>
       </defs>
       <use xlink:href="#DejaVuSans-39"/>
       <use xlink:href="#DejaVuSans-30" transform="translate(63.623047 0)"/>
       <use xlink:href="#DejaVuSans-30" transform="translate(127.246094 0)"/>
      </g>
     </g>
    </g>
    <g id="xtick_20">
     <g id="line2d_39">
      <path d="M 581.060529 526.9975 
L 581.060529 26.7675 
" clip-path="url(#p839359f0ae)" style="fill: none; stroke-dasharray: 2.96,1.28; stroke-dashoffset: 0; stroke: #b0b0b0; stroke-opacity: 0.7; stroke-width: 0.8"/>
     </g>
     <g id="line2d_40">
      <g>
       <use xlink:href="#m982d981c58" x="581.060529" y="526.9975" style="stroke: #000000; stroke-width: 0.8"/>
      </g>
     </g>
     <g id="text_20">
      <!-- 950 -->
      <g transform="translate(571.516779 541.595937) scale(0.1 -0.1)">
       <use xlink:href="#DejaVuSans-39"/>
       <use xlink:href="#DejaVuSans-35" transform="translate(63.623047 0)"/>
       <use xlink:href="#DejaVuSans-30" transform="translate(127.246094 0)"/>
      </g>
     </g>
    </g>
    <g id="xtick_21">
     <g id="line2d_41">
      <path d="M 607.122045 526.9975 
L 607.122045 26.7675 
" clip-path="url(#p839359f0ae)" style="fill: none; stroke-dasharray: 2.96,1.28; stroke-dashoffset: 0; stroke: #b0b0b0; stroke-opacity: 0.7; stroke-width: 0.8"/>
     </g>
     <g id="line2d_42">
      <g>
       <use xlink:href="#m982d981c58" x="607.122045" y="526.9975" style="stroke: #000000; stroke-width: 0.8"/>
      </g>
     </g>
     <g id="text_21">
      <!-- 1000 -->
      <g transform="translate(594.397045 541.595937) scale(0.1 -0.1)">
       <use xlink:href="#DejaVuSans-31"/>
       <use xlink:href="#DejaVuSans-30" transform="translate(63.623047 0)"/>
       <use xlink:href="#DejaVuSans-30" transform="translate(127.246094 0)"/>
       <use xlink:href="#DejaVuSans-30" transform="translate(190.869141 0)"/>
      </g>
     </g>
    </g>
    <g id="text_22">
     <!-- Počet stromů -->
     <g transform="translate(300.743594 558.313437) scale(0.14 -0.14)">
      <defs>
       <path id="DejaVuSans-50" d="M 1259 4147 
L 1259 2394 
L 2053 2394 
Q 2494 2394 2734 2622 
Q 2975 2850 2975 3272 
Q 2975 3691 2734 3919 
Q 2494 4147 2053 4147 
L 1259 4147 
z
M 628 4666 
L 2053 4666 
Q 2838 4666 3239 4311 
Q 3641 3956 3641 3272 
Q 3641 2581 3239 2228 
Q 2838 1875 2053 1875 
L 1259 1875 
L 1259 0 
L 628 0 
L 628 4666 
z
" transform="scale(0.015625)"/>
       <path id="DejaVuSans-6f" d="M 1959 3097 
Q 1497 3097 1228 2736 
Q 959 2375 959 1747 
Q 959 1119 1226 758 
Q 1494 397 1959 397 
Q 2419 397 2687 759 
Q 2956 1122 2956 1747 
Q 2956 2369 2687 2733 
Q 2419 3097 1959 3097 
z
M 1959 3584 
Q 2709 3584 3137 3096 
Q 3566 2609 3566 1747 
Q 3566 888 3137 398 
Q 2709 -91 1959 -91 
Q 1206 -91 779 398 
Q 353 888 353 1747 
Q 353 2609 779 3096 
Q 1206 3584 1959 3584 
z
" transform="scale(0.015625)"/>
       <path id="DejaVuSans-10d" d="M 3122 3366 
L 3122 2828 
Q 2878 2963 2633 3030 
Q 2388 3097 2138 3097 
Q 1578 3097 1268 2742 
Q 959 2388 959 1747 
Q 959 1106 1268 751 
Q 1578 397 2138 397 
Q 2388 397 2633 464 
Q 2878 531 3122 666 
L 3122 134 
Q 2881 22 2623 -34 
Q 2366 -91 2075 -91 
Q 1284 -91 818 406 
Q 353 903 353 1747 
Q 353 2603 823 3093 
Q 1294 3584 2113 3584 
Q 2378 3584 2631 3529 
Q 2884 3475 3122 3366 
z
M 1801 3944 
L 1035 5119 
L 1470 5119 
L 2032 4353 
L 2595 5119 
L 3029 5119 
L 2263 3944 
L 1801 3944 
z
" transform="scale(0.015625)"/>
       <path id="DejaVuSans-65" d="M 3597 1894 
L 3597 1613 
L 953 1613 
Q 991 1019 1311 708 
Q 1631 397 2203 397 
Q 2534 397 2845 478 
Q 3156 559 3463 722 
L 3463 178 
Q 3153 47 2828 -22 
Q 2503 -91 2169 -91 
Q 1331 -91 842 396 
Q 353 884 353 1716 
Q 353 2575 817 3079 
Q 1281 3584 2069 3584 
Q 2775 3584 3186 3129 
Q 3597 2675 3597 1894 
z
M 3022 2063 
Q 3016 2534 2758 2815 
Q 2500 3097 2075 3097 
Q 1594 3097 1305 2825 
Q 1016 2553 972 2059 
L 3022 2063 
z
" transform="scale(0.015625)"/>
       <path id="DejaVuSans-74" d="M 1172 4494 
L 1172 3500 
L 2356 3500 
L 2356 3053 
L 1172 3053 
L 1172 1153 
Q 1172 725 1289 603 
Q 1406 481 1766 481 
L 2356 481 
L 2356 0 
L 1766 0 
Q 1100 0 847 248 
Q 594 497 594 1153 
L 594 3053 
L 172 3053 
L 172 3500 
L 594 3500 
L 594 4494 
L 1172 4494 
z
" transform="scale(0.015625)"/>
       <path id="DejaVuSans-20" transform="scale(0.015625)"/>
       <path id="DejaVuSans-73" d="M 2834 3397 
L 2834 2853 
Q 2591 2978 2328 3040 
Q 2066 3103 1784 3103 
Q 1356 3103 1142 2972 
Q 928 2841 928 2578 
Q 928 2378 1081 2264 
Q 1234 2150 1697 2047 
L 1894 2003 
Q 2506 1872 2764 1633 
Q 3022 1394 3022 966 
Q 3022 478 2636 193 
Q 2250 -91 1575 -91 
Q 1294 -91 989 -36 
Q 684 19 347 128 
L 347 722 
Q 666 556 975 473 
Q 1284 391 1588 391 
Q 1994 391 2212 530 
Q 2431 669 2431 922 
Q 2431 1156 2273 1281 
Q 2116 1406 1581 1522 
L 1381 1569 
Q 847 1681 609 1914 
Q 372 2147 372 2553 
Q 372 3047 722 3315 
Q 1072 3584 1716 3584 
Q 2034 3584 2315 3537 
Q 2597 3491 2834 3397 
z
" transform="scale(0.015625)"/>
       <path id="DejaVuSans-72" d="M 2631 2963 
Q 2534 3019 2420 3045 
Q 2306 3072 2169 3072 
Q 1681 3072 1420 2755 
Q 1159 2438 1159 1844 
L 1159 0 
L 581 0 
L 581 3500 
L 1159 3500 
L 1159 2956 
Q 1341 3275 1631 3429 
Q 1922 3584 2338 3584 
Q 2397 3584 2469 3576 
Q 2541 3569 2628 3553 
L 2631 2963 
z
" transform="scale(0.015625)"/>
       <path id="DejaVuSans-6d" d="M 3328 2828 
Q 3544 3216 3844 3400 
Q 4144 3584 4550 3584 
Q 5097 3584 5394 3201 
Q 5691 2819 5691 2113 
L 5691 0 
L 5113 0 
L 5113 2094 
Q 5113 2597 4934 2840 
Q 4756 3084 4391 3084 
Q 3944 3084 3684 2787 
Q 3425 2491 3425 1978 
L 3425 0 
L 2847 0 
L 2847 2094 
Q 2847 2600 2669 2842 
Q 2491 3084 2119 3084 
Q 1678 3084 1418 2786 
Q 1159 2488 1159 1978 
L 1159 0 
L 581 0 
L 581 3500 
L 1159 3500 
L 1159 2956 
Q 1356 3278 1631 3431 
Q 1906 3584 2284 3584 
Q 2666 3584 2933 3390 
Q 3200 3197 3328 2828 
z
" transform="scale(0.015625)"/>
       <path id="DejaVuSans-16f" d="M 544 1381 
L 544 3500 
L 1119 3500 
L 1119 1403 
Q 1119 906 1312 657 
Q 1506 409 1894 409 
Q 2359 409 2629 706 
Q 2900 1003 2900 1516 
L 2900 3500 
L 3475 3500 
L 3475 0 
L 2900 0 
L 2900 538 
Q 2691 219 2414 64 
Q 2138 -91 1772 -91 
Q 1169 -91 856 284 
Q 544 659 544 1381 
z
M 1991 3584 
L 1991 3584 
z
M 2459 4571 
Q 2459 4767 2321 4904 
Q 2184 5042 1984 5042 
Q 1781 5042 1645 4906 
Q 1509 4771 1509 4571 
Q 1509 4367 1645 4231 
Q 1781 4096 1984 4096 
Q 2184 4096 2321 4233 
Q 2459 4371 2459 4571 
z
M 2840 4571 
Q 2840 4211 2591 3961 
Q 2343 3711 1984 3711 
Q 1625 3711 1376 3961 
Q 1128 4211 1128 4571 
Q 1128 4930 1376 5178 
Q 1625 5427 1984 5427 
Q 2343 5427 2591 5178 
Q 2840 4930 2840 4571 
z
" transform="scale(0.015625)"/>
      </defs>
      <use xlink:href="#DejaVuSans-50"/>
      <use xlink:href="#DejaVuSans-6f" transform="translate(56.677734 0)"/>
      <use xlink:href="#DejaVuSans-10d" transform="translate(117.859375 0)"/>
      <use xlink:href="#DejaVuSans-65" transform="translate(172.839844 0)"/>
      <use xlink:href="#DejaVuSans-74" transform="translate(234.363281 0)"/>
      <use xlink:href="#DejaVuSans-20" transform="translate(273.572266 0)"/>
      <use xlink:href="#DejaVuSans-73" transform="translate(305.359375 0)"/>
      <use xlink:href="#DejaVuSans-74" transform="translate(357.458984 0)"/>
      <use xlink:href="#DejaVuSans-72" transform="translate(396.667969 0)"/>
      <use xlink:href="#DejaVuSans-6f" transform="translate(435.53125 0)"/>
      <use xlink:href="#DejaVuSans-6d" transform="translate(496.712891 0)"/>
      <use xlink:href="#DejaVuSans-16f" transform="translate(594.125 0)"/>
     </g>
    </g>
   </g>
   <g id="matplotlib.axis_2">
    <g id="ytick_1">
     <g id="line2d_43">
      <path d="M 60.3775 488.225755 
L 633.1575 488.225755 
" clip-path="url(#p839359f0ae)" style="fill: none; stroke-dasharray: 2.96,1.28; stroke-dashoffset: 0; stroke: #b0b0b0; stroke-opacity: 0.7; stroke-width: 0.8"/>
     </g>
     <g id="line2d_44">
      <defs>
       <path id="m85663bcf13" d="M 0 0 
L -3.5 0 
" style="stroke: #000000; stroke-width: 0.8"/>
      </defs>
      <g>
       <use xlink:href="#m85663bcf13" x="60.3775" y="488.225755" style="stroke: #000000; stroke-width: 0.8"/>
      </g>
     </g>
     <g id="text_23">
      <!-- 0.800 -->
      <g transform="translate(24.749375 492.024974) scale(0.1 -0.1)">
       <defs>
        <path id="DejaVuSans-2e" d="M 684 794 
L 1344 794 
L 1344 0 
L 684 0 
L 684 794 
z
" transform="scale(0.015625)"/>
       </defs>
       <use xlink:href="#DejaVuSans-30"/>
       <use xlink:href="#DejaVuSans-2e" transform="translate(63.623047 0)"/>
       <use xlink:href="#DejaVuSans-38" transform="translate(95.410156 0)"/>
       <use xlink:href="#DejaVuSans-30" transform="translate(159.033203 0)"/>
       <use xlink:href="#DejaVuSans-30" transform="translate(222.65625 0)"/>
      </g>
     </g>
    </g>
    <g id="ytick_2">
     <g id="line2d_45">
      <path d="M 60.3775 431.237271 
L 633.1575 431.237271 
" clip-path="url(#p839359f0ae)" style="fill: none; stroke-dasharray: 2.96,1.28; stroke-dashoffset: 0; stroke: #b0b0b0; stroke-opacity: 0.7; stroke-width: 0.8"/>
     </g>
     <g id="line2d_46">
      <g>
       <use xlink:href="#m85663bcf13" x="60.3775" y="431.237271" style="stroke: #000000; stroke-width: 0.8"/>
      </g>
     </g>
     <g id="text_24">
      <!-- 0.825 -->
      <g transform="translate(24.749375 435.03649) scale(0.1 -0.1)">
       <use xlink:href="#DejaVuSans-30"/>
       <use xlink:href="#DejaVuSans-2e" transform="translate(63.623047 0)"/>
       <use xlink:href="#DejaVuSans-38" transform="translate(95.410156 0)"/>
       <use xlink:href="#DejaVuSans-32" transform="translate(159.033203 0)"/>
       <use xlink:href="#DejaVuSans-35" transform="translate(222.65625 0)"/>
      </g>
     </g>
    </g>
    <g id="ytick_3">
     <g id="line2d_47">
      <path d="M 60.3775 374.248788 
L 633.1575 374.248788 
" clip-path="url(#p839359f0ae)" style="fill: none; stroke-dasharray: 2.96,1.28; stroke-dashoffset: 0; stroke: #b0b0b0; stroke-opacity: 0.7; stroke-width: 0.8"/>
     </g>
     <g id="line2d_48">
      <g>
       <use xlink:href="#m85663bcf13" x="60.3775" y="374.248788" style="stroke: #000000; stroke-width: 0.8"/>
      </g>
     </g>
     <g id="text_25">
      <!-- 0.850 -->
      <g transform="translate(24.749375 378.048006) scale(0.1 -0.1)">
       <use xlink:href="#DejaVuSans-30"/>
       <use xlink:href="#DejaVuSans-2e" transform="translate(63.623047 0)"/>
       <use xlink:href="#DejaVuSans-38" transform="translate(95.410156 0)"/>
       <use xlink:href="#DejaVuSans-35" transform="translate(159.033203 0)"/>
       <use xlink:href="#DejaVuSans-30" transform="translate(222.65625 0)"/>
      </g>
     </g>
    </g>
    <g id="ytick_4">
     <g id="line2d_49">
      <path d="M 60.3775 317.260304 
L 633.1575 317.260304 
" clip-path="url(#p839359f0ae)" style="fill: none; stroke-dasharray: 2.96,1.28; stroke-dashoffset: 0; stroke: #b0b0b0; stroke-opacity: 0.7; stroke-width: 0.8"/>
     </g>
     <g id="line2d_50">
      <g>
       <use xlink:href="#m85663bcf13" x="60.3775" y="317.260304" style="stroke: #000000; stroke-width: 0.8"/>
      </g>
     </g>
     <g id="text_26">
      <!-- 0.875 -->
      <g transform="translate(24.749375 321.059523) scale(0.1 -0.1)">
       <use xlink:href="#DejaVuSans-30"/>
       <use xlink:href="#DejaVuSans-2e" transform="translate(63.623047 0)"/>
       <use xlink:href="#DejaVuSans-38" transform="translate(95.410156 0)"/>
       <use xlink:href="#DejaVuSans-37" transform="translate(159.033203 0)"/>
       <use xlink:href="#DejaVuSans-35" transform="translate(222.65625 0)"/>
      </g>
     </g>
    </g>
    <g id="ytick_5">
     <g id="line2d_51">
      <path d="M 60.3775 260.27182 
L 633.1575 260.27182 
" clip-path="url(#p839359f0ae)" style="fill: none; stroke-dasharray: 2.96,1.28; stroke-dashoffset: 0; stroke: #b0b0b0; stroke-opacity: 0.7; stroke-width: 0.8"/>
     </g>
     <g id="line2d_52">
      <g>
       <use xlink:href="#m85663bcf13" x="60.3775" y="260.27182" style="stroke: #000000; stroke-width: 0.8"/>
      </g>
     </g>
     <g id="text_27">
      <!-- 0.900 -->
      <g transform="translate(24.749375 264.071039) scale(0.1 -0.1)">
       <use xlink:href="#DejaVuSans-30"/>
       <use xlink:href="#DejaVuSans-2e" transform="translate(63.623047 0)"/>
       <use xlink:href="#DejaVuSans-39" transform="translate(95.410156 0)"/>
       <use xlink:href="#DejaVuSans-30" transform="translate(159.033203 0)"/>
       <use xlink:href="#DejaVuSans-30" transform="translate(222.65625 0)"/>
      </g>
     </g>
    </g>
    <g id="ytick_6">
     <g id="line2d_53">
      <path d="M 60.3775 203.283336 
L 633.1575 203.283336 
" clip-path="url(#p839359f0ae)" style="fill: none; stroke-dasharray: 2.96,1.28; stroke-dashoffset: 0; stroke: #b0b0b0; stroke-opacity: 0.7; stroke-width: 0.8"/>
     </g>
     <g id="line2d_54">
      <g>
       <use xlink:href="#m85663bcf13" x="60.3775" y="203.283336" style="stroke: #000000; stroke-width: 0.8"/>
      </g>
     </g>
     <g id="text_28">
      <!-- 0.925 -->
      <g transform="translate(24.749375 207.082555) scale(0.1 -0.1)">
       <use xlink:href="#DejaVuSans-30"/>
       <use xlink:href="#DejaVuSans-2e" transform="translate(63.623047 0)"/>
       <use xlink:href="#DejaVuSans-39" transform="translate(95.410156 0)"/>
       <use xlink:href="#DejaVuSans-32" transform="translate(159.033203 0)"/>
       <use xlink:href="#DejaVuSans-35" transform="translate(222.65625 0)"/>
      </g>
     </g>
    </g>
    <g id="ytick_7">
     <g id="line2d_55">
      <path d="M 60.3775 146.294853 
L 633.1575 146.294853 
" clip-path="url(#p839359f0ae)" style="fill: none; stroke-dasharray: 2.96,1.28; stroke-dashoffset: 0; stroke: #b0b0b0; stroke-opacity: 0.7; stroke-width: 0.8"/>
     </g>
     <g id="line2d_56">
      <g>
       <use xlink:href="#m85663bcf13" x="60.3775" y="146.294853" style="stroke: #000000; stroke-width: 0.8"/>
      </g>
     </g>
     <g id="text_29">
      <!-- 0.950 -->
      <g transform="translate(24.749375 150.094071) scale(0.1 -0.1)">
       <use xlink:href="#DejaVuSans-30"/>
       <use xlink:href="#DejaVuSans-2e" transform="translate(63.623047 0)"/>
       <use xlink:href="#DejaVuSans-39" transform="translate(95.410156 0)"/>
       <use xlink:href="#DejaVuSans-35" transform="translate(159.033203 0)"/>
       <use xlink:href="#DejaVuSans-30" transform="translate(222.65625 0)"/>
      </g>
     </g>
    </g>
    <g id="ytick_8">
     <g id="line2d_57">
      <path d="M 60.3775 89.306369 
L 633.1575 89.306369 
" clip-path="url(#p839359f0ae)" style="fill: none; stroke-dasharray: 2.96,1.28; stroke-dashoffset: 0; stroke: #b0b0b0; stroke-opacity: 0.7; stroke-width: 0.8"/>
     </g>
     <g id="line2d_58">
      <g>
       <use xlink:href="#m85663bcf13" x="60.3775" y="89.306369" style="stroke: #000000; stroke-width: 0.8"/>
      </g>
     </g>
     <g id="text_30">
      <!-- 0.975 -->
      <g transform="translate(24.749375 93.105588) scale(0.1 -0.1)">
       <use xlink:href="#DejaVuSans-30"/>
       <use xlink:href="#DejaVuSans-2e" transform="translate(63.623047 0)"/>
       <use xlink:href="#DejaVuSans-39" transform="translate(95.410156 0)"/>
       <use xlink:href="#DejaVuSans-37" transform="translate(159.033203 0)"/>
       <use xlink:href="#DejaVuSans-35" transform="translate(222.65625 0)"/>
      </g>
     </g>
    </g>
    <g id="ytick_9">
     <g id="line2d_59">
      <path d="M 60.3775 32.317885 
L 633.1575 32.317885 
" clip-path="url(#p839359f0ae)" style="fill: none; stroke-dasharray: 2.96,1.28; stroke-dashoffset: 0; stroke: #b0b0b0; stroke-opacity: 0.7; stroke-width: 0.8"/>
     </g>
     <g id="line2d_60">
      <g>
       <use xlink:href="#m85663bcf13" x="60.3775" y="32.317885" style="stroke: #000000; stroke-width: 0.8"/>
      </g>
     </g>
     <g id="text_31">
      <!-- 1.000 -->
      <g transform="translate(24.749375 36.117104) scale(0.1 -0.1)">
       <use xlink:href="#DejaVuSans-31"/>
       <use xlink:href="#DejaVuSans-2e" transform="translate(63.623047 0)"/>
       <use xlink:href="#DejaVuSans-30" transform="translate(95.410156 0)"/>
       <use xlink:href="#DejaVuSans-30" transform="translate(159.033203 0)"/>
       <use xlink:href="#DejaVuSans-30" transform="translate(222.65625 0)"/>
      </g>
     </g>
    </g>
    <g id="text_32">
     <!-- ROC-AUC skóre -->
     <g transform="translate(17.837812 330.293594) rotate(-90) scale(0.14 -0.14)">
      <defs>
       <path id="DejaVuSans-52" d="M 2841 2188 
Q 3044 2119 3236 1894 
Q 3428 1669 3622 1275 
L 4263 0 
L 3584 0 
L 2988 1197 
Q 2756 1666 2539 1819 
Q 2322 1972 1947 1972 
L 1259 1972 
L 1259 0 
L 628 0 
L 628 4666 
L 2053 4666 
Q 2853 4666 3247 4331 
Q 3641 3997 3641 3322 
Q 3641 2881 3436 2590 
Q 3231 2300 2841 2188 
z
M 1259 4147 
L 1259 2491 
L 2053 2491 
Q 2509 2491 2742 2702 
Q 2975 2913 2975 3322 
Q 2975 3731 2742 3939 
Q 2509 4147 2053 4147 
L 1259 4147 
z
" transform="scale(0.015625)"/>
       <path id="DejaVuSans-4f" d="M 2522 4238 
Q 1834 4238 1429 3725 
Q 1025 3213 1025 2328 
Q 1025 1447 1429 934 
Q 1834 422 2522 422 
Q 3209 422 3611 934 
Q 4013 1447 4013 2328 
Q 4013 3213 3611 3725 
Q 3209 4238 2522 4238 
z
M 2522 4750 
Q 3503 4750 4090 4092 
Q 4678 3434 4678 2328 
Q 4678 1225 4090 567 
Q 3503 -91 2522 -91 
Q 1538 -91 948 565 
Q 359 1222 359 2328 
Q 359 3434 948 4092 
Q 1538 4750 2522 4750 
z
" transform="scale(0.015625)"/>
       <path id="DejaVuSans-43" d="M 4122 4306 
L 4122 3641 
Q 3803 3938 3442 4084 
Q 3081 4231 2675 4231 
Q 1875 4231 1450 3742 
Q 1025 3253 1025 2328 
Q 1025 1406 1450 917 
Q 1875 428 2675 428 
Q 3081 428 3442 575 
Q 3803 722 4122 1019 
L 4122 359 
Q 3791 134 3420 21 
Q 3050 -91 2638 -91 
Q 1578 -91 968 557 
Q 359 1206 359 2328 
Q 359 3453 968 4101 
Q 1578 4750 2638 4750 
Q 3056 4750 3426 4639 
Q 3797 4528 4122 4306 
z
" transform="scale(0.015625)"/>
       <path id="DejaVuSans-2d" d="M 313 2009 
L 1997 2009 
L 1997 1497 
L 313 1497 
L 313 2009 
z
" transform="scale(0.015625)"/>
       <path id="DejaVuSans-41" d="M 2188 4044 
L 1331 1722 
L 3047 1722 
L 2188 4044 
z
M 1831 4666 
L 2547 4666 
L 4325 0 
L 3669 0 
L 3244 1197 
L 1141 1197 
L 716 0 
L 50 0 
L 1831 4666 
z
" transform="scale(0.015625)"/>
       <path id="DejaVuSans-55" d="M 556 4666 
L 1191 4666 
L 1191 1831 
Q 1191 1081 1462 751 
Q 1734 422 2344 422 
Q 2950 422 3222 751 
Q 3494 1081 3494 1831 
L 3494 4666 
L 4128 4666 
L 4128 1753 
Q 4128 841 3676 375 
Q 3225 -91 2344 -91 
Q 1459 -91 1007 375 
Q 556 841 556 1753 
L 556 4666 
z
" transform="scale(0.015625)"/>
       <path id="DejaVuSans-6b" d="M 581 4863 
L 1159 4863 
L 1159 1991 
L 2875 3500 
L 3609 3500 
L 1753 1863 
L 3688 0 
L 2938 0 
L 1159 1709 
L 1159 0 
L 581 0 
L 581 4863 
z
" transform="scale(0.015625)"/>
       <path id="DejaVuSans-f3" d="M 1959 3097 
Q 1497 3097 1228 2736 
Q 959 2375 959 1747 
Q 959 1119 1226 758 
Q 1494 397 1959 397 
Q 2419 397 2687 759 
Q 2956 1122 2956 1747 
Q 2956 2369 2687 2733 
Q 2419 3097 1959 3097 
z
M 1959 3584 
Q 2709 3584 3137 3096 
Q 3566 2609 3566 1747 
Q 3566 888 3137 398 
Q 2709 -91 1959 -91 
Q 1206 -91 779 398 
Q 353 888 353 1747 
Q 353 2609 779 3096 
Q 1206 3584 1959 3584 
z
M 2394 5119 
L 3016 5119 
L 1998 3944 
L 1519 3944 
L 2394 5119 
z
" transform="scale(0.015625)"/>
      </defs>
      <use xlink:href="#DejaVuSans-52"/>
      <use xlink:href="#DejaVuSans-4f" transform="translate(69.482422 0)"/>
      <use xlink:href="#DejaVuSans-43" transform="translate(148.193359 0)"/>
      <use xlink:href="#DejaVuSans-2d" transform="translate(218.017578 0)"/>
      <use xlink:href="#DejaVuSans-41" transform="translate(251.851562 0)"/>
      <use xlink:href="#DejaVuSans-55" transform="translate(320.259766 0)"/>
      <use xlink:href="#DejaVuSans-43" transform="translate(393.453125 0)"/>
      <use xlink:href="#DejaVuSans-20" transform="translate(463.277344 0)"/>
      <use xlink:href="#DejaVuSans-73" transform="translate(495.064453 0)"/>
      <use xlink:href="#DejaVuSans-6b" transform="translate(547.164062 0)"/>
      <use xlink:href="#DejaVuSans-f3" transform="translate(601.449219 0)"/>
      <use xlink:href="#DejaVuSans-72" transform="translate(662.630859 0)"/>
      <use xlink:href="#DejaVuSans-65" transform="translate(701.494141 0)"/>
     </g>
    </g>
   </g>
   <g id="line2d_61">
    <path d="M 86.412955 504.259773 
L 86.934185 449.813403 
L 88.497876 330.194285 
L 91.104027 205.759434 
L 96.316331 160.413177 
L 111.95324 128.468856 
L 122.377847 119.502924 
L 138.014756 105.911794 
L 164.076272 94.102579 
L 190.137788 88.210719 
L 216.199305 83.789476 
L 242.260821 79.627201 
L 268.322337 77.939212 
L 294.383853 77.163649 
L 320.445369 77.214638 
L 346.506885 76.846983 
L 398.629917 75.931873 
L 450.752949 75.075802 
L 502.875981 74.241201 
L 554.999013 74.361963 
L 607.122045 74.539081 
" clip-path="url(#p839359f0ae)" style="fill: none; stroke: #1f77b4; stroke-width: 1.5; stroke-linecap: square"/>
    <defs>
     <path id="m63c909f4ed" d="M 0 1.5 
C 0.397805 1.5 0.77937 1.341951 1.06066 1.06066 
C 1.341951 0.77937 1.5 0.397805 1.5 0 
C 1.5 -0.397805 1.341951 -0.77937 1.06066 -1.06066 
C 0.77937 -1.341951 0.397805 -1.5 0 -1.5 
C -0.397805 -1.5 -0.77937 -1.341951 -1.06066 -1.06066 
C -1.341951 -0.77937 -1.5 -0.397805 -1.5 0 
C -1.5 0.397805 -1.341951 0.77937 -1.06066 1.06066 
C -0.77937 1.341951 -0.397805 1.5 0 1.5 
z
" style="stroke: #1f77b4"/>
    </defs>
    <g clip-path="url(#p839359f0ae)">
     <use xlink:href="#m63c909f4ed" x="86.412955" y="504.259773" style="fill: #1f77b4; stroke: #1f77b4"/>
     <use xlink:href="#m63c909f4ed" x="86.934185" y="449.813403" style="fill: #1f77b4; stroke: #1f77b4"/>
     <use xlink:href="#m63c909f4ed" x="88.497876" y="330.194285" style="fill: #1f77b4; stroke: #1f77b4"/>
     <use xlink:href="#m63c909f4ed" x="91.104027" y="205.759434" style="fill: #1f77b4; stroke: #1f77b4"/>
     <use xlink:href="#m63c909f4ed" x="96.316331" y="160.413177" style="fill: #1f77b4; stroke: #1f77b4"/>
     <use xlink:href="#m63c909f4ed" x="111.95324" y="128.468856" style="fill: #1f77b4; stroke: #1f77b4"/>
     <use xlink:href="#m63c909f4ed" x="122.377847" y="119.502924" style="fill: #1f77b4; stroke: #1f77b4"/>
     <use xlink:href="#m63c909f4ed" x="138.014756" y="105.911794" style="fill: #1f77b4; stroke: #1f77b4"/>
     <use xlink:href="#m63c909f4ed" x="164.076272" y="94.102579" style="fill: #1f77b4; stroke: #1f77b4"/>
     <use xlink:href="#m63c909f4ed" x="190.137788" y="88.210719" style="fill: #1f77b4; stroke: #1f77b4"/>
     <use xlink:href="#m63c909f4ed" x="216.199305" y="83.789476" style="fill: #1f77b4; stroke: #1f77b4"/>
     <use xlink:href="#m63c909f4ed" x="242.260821" y="79.627201" style="fill: #1f77b4; stroke: #1f77b4"/>
     <use xlink:href="#m63c909f4ed" x="268.322337" y="77.939212" style="fill: #1f77b4; stroke: #1f77b4"/>
     <use xlink:href="#m63c909f4ed" x="294.383853" y="77.163649" style="fill: #1f77b4; stroke: #1f77b4"/>
     <use xlink:href="#m63c909f4ed" x="320.445369" y="77.214638" style="fill: #1f77b4; stroke: #1f77b4"/>
     <use xlink:href="#m63c909f4ed" x="346.506885" y="76.846983" style="fill: #1f77b4; stroke: #1f77b4"/>
     <use xlink:href="#m63c909f4ed" x="398.629917" y="75.931873" style="fill: #1f77b4; stroke: #1f77b4"/>
     <use xlink:href="#m63c909f4ed" x="450.752949" y="75.075802" style="fill: #1f77b4; stroke: #1f77b4"/>
     <use xlink:href="#m63c909f4ed" x="502.875981" y="74.241201" style="fill: #1f77b4; stroke: #1f77b4"/>
     <use xlink:href="#m63c909f4ed" x="554.999013" y="74.361963" style="fill: #1f77b4; stroke: #1f77b4"/>
     <use xlink:href="#m63c909f4ed" x="607.122045" y="74.539081" style="fill: #1f77b4; stroke: #1f77b4"/>
    </g>
   </g>
   <g id="line2d_62">
    <path d="M 86.412955 287.11123 
L 86.934185 220.839246 
L 88.497876 155.476894 
L 91.104027 139.451179 
L 96.316331 120.961147 
L 111.95324 98.051962 
L 122.377847 90.410829 
L 138.014756 82.260215 
L 164.076272 77.725171 
L 190.137788 75.558234 
L 216.199305 73.358497 
L 242.260821 72.000608 
L 268.322337 69.953935 
L 294.383853 69.002757 
L 320.445369 68.515141 
L 346.506885 68.421116 
L 398.629917 67.375914 
L 450.752949 67.220664 
L 502.875981 67.419646 
L 554.999013 67.535537 
L 607.122045 67.537723 
" clip-path="url(#p839359f0ae)" style="fill: none; stroke: #ff7f0e; stroke-width: 1.5; stroke-linecap: square"/>
    <defs>
     <path id="m2bffa8c7f7" d="M 0 1.5 
C 0.397805 1.5 0.77937 1.341951 1.06066 1.06066 
C 1.341951 0.77937 1.5 0.397805 1.5 0 
C 1.5 -0.397805 1.341951 -0.77937 1.06066 -1.06066 
C 0.77937 -1.341951 0.397805 -1.5 0 -1.5 
C -0.397805 -1.5 -0.77937 -1.341951 -1.06066 -1.06066 
C -1.341951 -0.77937 -1.5 -0.397805 -1.5 0 
C -1.5 0.397805 -1.341951 0.77937 -1.06066 1.06066 
C -0.77937 1.341951 -0.397805 1.5 0 1.5 
z
" style="stroke: #ff7f0e"/>
    </defs>
    <g clip-path="url(#p839359f0ae)">
     <use xlink:href="#m2bffa8c7f7" x="86.412955" y="287.11123" style="fill: #ff7f0e; stroke: #ff7f0e"/>
     <use xlink:href="#m2bffa8c7f7" x="86.934185" y="220.839246" style="fill: #ff7f0e; stroke: #ff7f0e"/>
     <use xlink:href="#m2bffa8c7f7" x="88.497876" y="155.476894" style="fill: #ff7f0e; stroke: #ff7f0e"/>
     <use xlink:href="#m2bffa8c7f7" x="91.104027" y="139.451179" style="fill: #ff7f0e; stroke: #ff7f0e"/>
     <use xlink:href="#m2bffa8c7f7" x="96.316331" y="120.961147" style="fill: #ff7f0e; stroke: #ff7f0e"/>
     <use xlink:href="#m2bffa8c7f7" x="111.95324" y="98.051962" style="fill: #ff7f0e; stroke: #ff7f0e"/>
     <use xlink:href="#m2bffa8c7f7" x="122.377847" y="90.410829" style="fill: #ff7f0e; stroke: #ff7f0e"/>
     <use xlink:href="#m2bffa8c7f7" x="138.014756" y="82.260215" style="fill: #ff7f0e; stroke: #ff7f0e"/>
     <use xlink:href="#m2bffa8c7f7" x="164.076272" y="77.725171" style="fill: #ff7f0e; stroke: #ff7f0e"/>
     <use xlink:href="#m2bffa8c7f7" x="190.137788" y="75.558234" style="fill: #ff7f0e; stroke: #ff7f0e"/>
     <use xlink:href="#m2bffa8c7f7" x="216.199305" y="73.358497" style="fill: #ff7f0e; stroke: #ff7f0e"/>
     <use xlink:href="#m2bffa8c7f7" x="242.260821" y="72.000608" style="fill: #ff7f0e; stroke: #ff7f0e"/>
     <use xlink:href="#m2bffa8c7f7" x="268.322337" y="69.953935" style="fill: #ff7f0e; stroke: #ff7f0e"/>
     <use xlink:href="#m2bffa8c7f7" x="294.383853" y="69.002757" style="fill: #ff7f0e; stroke: #ff7f0e"/>
     <use xlink:href="#m2bffa8c7f7" x="320.445369" y="68.515141" style="fill: #ff7f0e; stroke: #ff7f0e"/>
     <use xlink:href="#m2bffa8c7f7" x="346.506885" y="68.421116" style="fill: #ff7f0e; stroke: #ff7f0e"/>
     <use xlink:href="#m2bffa8c7f7" x="398.629917" y="67.375914" style="fill: #ff7f0e; stroke: #ff7f0e"/>
     <use xlink:href="#m2bffa8c7f7" x="450.752949" y="67.220664" style="fill: #ff7f0e; stroke: #ff7f0e"/>
     <use xlink:href="#m2bffa8c7f7" x="502.875981" y="67.419646" style="fill: #ff7f0e; stroke: #ff7f0e"/>
     <use xlink:href="#m2bffa8c7f7" x="554.999013" y="67.535537" style="fill: #ff7f0e; stroke: #ff7f0e"/>
     <use xlink:href="#m2bffa8c7f7" x="607.122045" y="67.537723" style="fill: #ff7f0e; stroke: #ff7f0e"/>
    </g>
   </g>
   <g id="line2d_63">
    <path d="M 86.412955 298.967732 
L 86.934185 217.843803 
L 88.497876 173.301356 
L 91.104027 165.58789 
L 96.316331 148.816557 
L 111.95324 126.395223 
L 122.377847 114.405448 
L 138.014756 104.402985 
L 164.076272 96.875509 
L 190.137788 92.731004 
L 216.199305 89.134218 
L 242.260821 87.089791 
L 268.322337 85.010216 
L 294.383853 83.979215 
L 320.445369 82.795908 
L 346.506885 82.248189 
L 398.629917 81.460293 
L 450.752949 81.023876 
L 502.875981 80.347281 
L 554.999013 79.866929 
L 607.122045 79.825923 
" clip-path="url(#p839359f0ae)" style="fill: none; stroke: #2ca02c; stroke-width: 1.5; stroke-linecap: square"/>
    <defs>
     <path id="m485921ecfe" d="M 0 1.5 
C 0.397805 1.5 0.77937 1.341951 1.06066 1.06066 
C 1.341951 0.77937 1.5 0.397805 1.5 0 
C 1.5 -0.397805 1.341951 -0.77937 1.06066 -1.06066 
C 0.77937 -1.341951 0.397805 -1.5 0 -1.5 
C -0.397805 -1.5 -0.77937 -1.341951 -1.06066 -1.06066 
C -1.341951 -0.77937 -1.5 -0.397805 -1.5 0 
C -1.5 0.397805 -1.341951 0.77937 -1.06066 1.06066 
C -0.77937 1.341951 -0.397805 1.5 0 1.5 
z
" style="stroke: #2ca02c"/>
    </defs>
    <g clip-path="url(#p839359f0ae)">
     <use xlink:href="#m485921ecfe" x="86.412955" y="298.967732" style="fill: #2ca02c; stroke: #2ca02c"/>
     <use xlink:href="#m485921ecfe" x="86.934185" y="217.843803" style="fill: #2ca02c; stroke: #2ca02c"/>
     <use xlink:href="#m485921ecfe" x="88.497876" y="173.301356" style="fill: #2ca02c; stroke: #2ca02c"/>
     <use xlink:href="#m485921ecfe" x="91.104027" y="165.58789" style="fill: #2ca02c; stroke: #2ca02c"/>
     <use xlink:href="#m485921ecfe" x="96.316331" y="148.816557" style="fill: #2ca02c; stroke: #2ca02c"/>
     <use xlink:href="#m485921ecfe" x="111.95324" y="126.395223" style="fill: #2ca02c; stroke: #2ca02c"/>
     <use xlink:href="#m485921ecfe" x="122.377847" y="114.405448" style="fill: #2ca02c; stroke: #2ca02c"/>
     <use xlink:href="#m485921ecfe" x="138.014756" y="104.402985" style="fill: #2ca02c; stroke: #2ca02c"/>
     <use xlink:href="#m485921ecfe" x="164.076272" y="96.875509" style="fill: #2ca02c; stroke: #2ca02c"/>
     <use xlink:href="#m485921ecfe" x="190.137788" y="92.731004" style="fill: #2ca02c; stroke: #2ca02c"/>
     <use xlink:href="#m485921ecfe" x="216.199305" y="89.134218" style="fill: #2ca02c; stroke: #2ca02c"/>
     <use xlink:href="#m485921ecfe" x="242.260821" y="87.089791" style="fill: #2ca02c; stroke: #2ca02c"/>
     <use xlink:href="#m485921ecfe" x="268.322337" y="85.010216" style="fill: #2ca02c; stroke: #2ca02c"/>
     <use xlink:href="#m485921ecfe" x="294.383853" y="83.979215" style="fill: #2ca02c; stroke: #2ca02c"/>
     <use xlink:href="#m485921ecfe" x="320.445369" y="82.795908" style="fill: #2ca02c; stroke: #2ca02c"/>
     <use xlink:href="#m485921ecfe" x="346.506885" y="82.248189" style="fill: #2ca02c; stroke: #2ca02c"/>
     <use xlink:href="#m485921ecfe" x="398.629917" y="81.460293" style="fill: #2ca02c; stroke: #2ca02c"/>
     <use xlink:href="#m485921ecfe" x="450.752949" y="81.023876" style="fill: #2ca02c; stroke: #2ca02c"/>
     <use xlink:href="#m485921ecfe" x="502.875981" y="80.347281" style="fill: #2ca02c; stroke: #2ca02c"/>
     <use xlink:href="#m485921ecfe" x="554.999013" y="79.866929" style="fill: #2ca02c; stroke: #2ca02c"/>
     <use xlink:href="#m485921ecfe" x="607.122045" y="79.825923" style="fill: #2ca02c; stroke: #2ca02c"/>
    </g>
   </g>
   <g id="line2d_64">
    <path d="M 86.412955 234.702182 
L 86.934185 155.64204 
L 88.497876 139.610438 
L 91.104027 103.535537 
L 96.316331 81.30203 
L 111.95324 70.770805 
L 122.377847 67.347397 
L 138.014756 64.212611 
L 164.076272 63.384033 
L 190.137788 62.20469 
L 216.199305 60.970109 
L 242.260821 60.652488 
L 268.322337 60.152579 
L 294.383853 59.837719 
L 320.445369 59.638861 
L 346.506885 59.572574 
L 398.629917 59.959244 
L 450.752949 60.036578 
L 502.875981 60.308628 
L 554.999013 60.558582 
L 607.122045 60.776774 
" clip-path="url(#p839359f0ae)" style="fill: none; stroke: #d62728; stroke-width: 1.5; stroke-linecap: square"/>
    <defs>
     <path id="med620bf3d8" d="M 0 1.5 
C 0.397805 1.5 0.77937 1.341951 1.06066 1.06066 
C 1.341951 0.77937 1.5 0.397805 1.5 0 
C 1.5 -0.397805 1.341951 -0.77937 1.06066 -1.06066 
C 0.77937 -1.341951 0.397805 -1.5 0 -1.5 
C -0.397805 -1.5 -0.77937 -1.341951 -1.06066 -1.06066 
C -1.341951 -0.77937 -1.5 -0.397805 -1.5 0 
C -1.5 0.397805 -1.341951 0.77937 -1.06066 1.06066 
C -0.77937 1.341951 -0.397805 1.5 0 1.5 
z
" style="stroke: #d62728"/>
    </defs>
    <g clip-path="url(#p839359f0ae)">
     <use xlink:href="#med620bf3d8" x="86.412955" y="234.702182" style="fill: #d62728; stroke: #d62728"/>
     <use xlink:href="#med620bf3d8" x="86.934185" y="155.64204" style="fill: #d62728; stroke: #d62728"/>
     <use xlink:href="#med620bf3d8" x="88.497876" y="139.610438" style="fill: #d62728; stroke: #d62728"/>
     <use xlink:href="#med620bf3d8" x="91.104027" y="103.535537" style="fill: #d62728; stroke: #d62728"/>
     <use xlink:href="#med620bf3d8" x="96.316331" y="81.30203" style="fill: #d62728; stroke: #d62728"/>
     <use xlink:href="#med620bf3d8" x="111.95324" y="70.770805" style="fill: #d62728; stroke: #d62728"/>
     <use xlink:href="#med620bf3d8" x="122.377847" y="67.347397" style="fill: #d62728; stroke: #d62728"/>
     <use xlink:href="#med620bf3d8" x="138.014756" y="64.212611" style="fill: #d62728; stroke: #d62728"/>
     <use xlink:href="#med620bf3d8" x="164.076272" y="63.384033" style="fill: #d62728; stroke: #d62728"/>
     <use xlink:href="#med620bf3d8" x="190.137788" y="62.20469" style="fill: #d62728; stroke: #d62728"/>
     <use xlink:href="#med620bf3d8" x="216.199305" y="60.970109" style="fill: #d62728; stroke: #d62728"/>
     <use xlink:href="#med620bf3d8" x="242.260821" y="60.652488" style="fill: #d62728; stroke: #d62728"/>
     <use xlink:href="#med620bf3d8" x="268.322337" y="60.152579" style="fill: #d62728; stroke: #d62728"/>
     <use xlink:href="#med620bf3d8" x="294.383853" y="59.837719" style="fill: #d62728; stroke: #d62728"/>
     <use xlink:href="#med620bf3d8" x="320.445369" y="59.638861" style="fill: #d62728; stroke: #d62728"/>
     <use xlink:href="#med620bf3d8" x="346.506885" y="59.572574" style="fill: #d62728; stroke: #d62728"/>
     <use xlink:href="#med620bf3d8" x="398.629917" y="59.959244" style="fill: #d62728; stroke: #d62728"/>
     <use xlink:href="#med620bf3d8" x="450.752949" y="60.036578" style="fill: #d62728; stroke: #d62728"/>
     <use xlink:href="#med620bf3d8" x="502.875981" y="60.308628" style="fill: #d62728; stroke: #d62728"/>
     <use xlink:href="#med620bf3d8" x="554.999013" y="60.558582" style="fill: #d62728; stroke: #d62728"/>
     <use xlink:href="#med620bf3d8" x="607.122045" y="60.776774" style="fill: #d62728; stroke: #d62728"/>
    </g>
   </g>
   <g id="line2d_65">
    <path d="M 86.412955 338.816585 
L 86.934185 241.340641 
L 88.497876 143.757877 
L 91.104027 132.280065 
L 96.316331 88.857725 
L 111.95324 63.86985 
L 122.377847 59.006869 
L 138.014756 53.318702 
L 164.076272 50.755022 
L 190.137788 49.505227 
L 216.199305 49.614718 
L 242.260821 50.028645 
L 268.322337 50.226262 
L 294.383853 50.552064 
L 320.445369 50.124783 
L 346.506885 50.626838 
L 398.629917 51.604241 
L 450.752949 52.07959 
L 502.875981 52.528234 
L 554.999013 52.800625 
L 607.122045 53.697913 
" clip-path="url(#p839359f0ae)" style="fill: none; stroke: #9467bd; stroke-width: 1.5; stroke-linecap: square"/>
    <defs>
     <path id="m5f7362c0f9" d="M 0 1.5 
C 0.397805 1.5 0.77937 1.341951 1.06066 1.06066 
C 1.341951 0.77937 1.5 0.397805 1.5 0 
C 1.5 -0.397805 1.341951 -0.77937 1.06066 -1.06066 
C 0.77937 -1.341951 0.397805 -1.5 0 -1.5 
C -0.397805 -1.5 -0.77937 -1.341951 -1.06066 -1.06066 
C -1.341951 -0.77937 -1.5 -0.397805 -1.5 0 
C -1.5 0.397805 -1.341951 0.77937 -1.06066 1.06066 
C -0.77937 1.341951 -0.397805 1.5 0 1.5 
z
" style="stroke: #9467bd"/>
    </defs>
    <g clip-path="url(#p839359f0ae)">
     <use xlink:href="#m5f7362c0f9" x="86.412955" y="338.816585" style="fill: #9467bd; stroke: #9467bd"/>
     <use xlink:href="#m5f7362c0f9" x="86.934185" y="241.340641" style="fill: #9467bd; stroke: #9467bd"/>
     <use xlink:href="#m5f7362c0f9" x="88.497876" y="143.757877" style="fill: #9467bd; stroke: #9467bd"/>
     <use xlink:href="#m5f7362c0f9" x="91.104027" y="132.280065" style="fill: #9467bd; stroke: #9467bd"/>
     <use xlink:href="#m5f7362c0f9" x="96.316331" y="88.857725" style="fill: #9467bd; stroke: #9467bd"/>
     <use xlink:href="#m5f7362c0f9" x="111.95324" y="63.86985" style="fill: #9467bd; stroke: #9467bd"/>
     <use xlink:href="#m5f7362c0f9" x="122.377847" y="59.006869" style="fill: #9467bd; stroke: #9467bd"/>
     <use xlink:href="#m5f7362c0f9" x="138.014756" y="53.318702" style="fill: #9467bd; stroke: #9467bd"/>
     <use xlink:href="#m5f7362c0f9" x="164.076272" y="50.755022" style="fill: #9467bd; stroke: #9467bd"/>
     <use xlink:href="#m5f7362c0f9" x="190.137788" y="49.505227" style="fill: #9467bd; stroke: #9467bd"/>
     <use xlink:href="#m5f7362c0f9" x="216.199305" y="49.614718" style="fill: #9467bd; stroke: #9467bd"/>
     <use xlink:href="#m5f7362c0f9" x="242.260821" y="50.028645" style="fill: #9467bd; stroke: #9467bd"/>
     <use xlink:href="#m5f7362c0f9" x="268.322337" y="50.226262" style="fill: #9467bd; stroke: #9467bd"/>
     <use xlink:href="#m5f7362c0f9" x="294.383853" y="50.552064" style="fill: #9467bd; stroke: #9467bd"/>
     <use xlink:href="#m5f7362c0f9" x="320.445369" y="50.124783" style="fill: #9467bd; stroke: #9467bd"/>
     <use xlink:href="#m5f7362c0f9" x="346.506885" y="50.626838" style="fill: #9467bd; stroke: #9467bd"/>
     <use xlink:href="#m5f7362c0f9" x="398.629917" y="51.604241" style="fill: #9467bd; stroke: #9467bd"/>
     <use xlink:href="#m5f7362c0f9" x="450.752949" y="52.07959" style="fill: #9467bd; stroke: #9467bd"/>
     <use xlink:href="#m5f7362c0f9" x="502.875981" y="52.528234" style="fill: #9467bd; stroke: #9467bd"/>
     <use xlink:href="#m5f7362c0f9" x="554.999013" y="52.800625" style="fill: #9467bd; stroke: #9467bd"/>
     <use xlink:href="#m5f7362c0f9" x="607.122045" y="53.697913" style="fill: #9467bd; stroke: #9467bd"/>
    </g>
   </g>
   <g id="line2d_66">
    <path d="M 86.412955 395.198228 
L 86.934185 294.451271 
L 88.497876 200.660777 
L 91.104027 171.86411 
L 96.316331 159.897594 
L 111.95324 140.996896 
L 122.377847 131.805962 
L 138.014756 119.8856 
L 164.076272 110.307931 
L 190.137788 105.202387 
L 216.199305 103.022027 
L 242.260821 101.30002 
L 268.322337 100.408778 
L 294.383853 99.641673 
L 320.445369 99.113294 
L 346.506885 98.688363 
L 398.629917 98.152026 
L 450.752949 99.062366 
L 502.875981 98.734516 
L 554.999013 99.205601 
L 607.122045 98.47351 
" clip-path="url(#p839359f0ae)" style="fill: none; stroke: #8c564b; stroke-width: 1.5; stroke-linecap: square"/>
    <defs>
     <path id="m58a251af6d" d="M 0 1.5 
C 0.397805 1.5 0.77937 1.341951 1.06066 1.06066 
C 1.341951 0.77937 1.5 0.397805 1.5 0 
C 1.5 -0.397805 1.341951 -0.77937 1.06066 -1.06066 
C 0.77937 -1.341951 0.397805 -1.5 0 -1.5 
C -0.397805 -1.5 -0.77937 -1.341951 -1.06066 -1.06066 
C -1.341951 -0.77937 -1.5 -0.397805 -1.5 0 
C -1.5 0.397805 -1.341951 0.77937 -1.06066 1.06066 
C -0.77937 1.341951 -0.397805 1.5 0 1.5 
z
" style="stroke: #8c564b"/>
    </defs>
    <g clip-path="url(#p839359f0ae)">
     <use xlink:href="#m58a251af6d" x="86.412955" y="395.198228" style="fill: #8c564b; stroke: #8c564b"/>
     <use xlink:href="#m58a251af6d" x="86.934185" y="294.451271" style="fill: #8c564b; stroke: #8c564b"/>
     <use xlink:href="#m58a251af6d" x="88.497876" y="200.660777" style="fill: #8c564b; stroke: #8c564b"/>
     <use xlink:href="#m58a251af6d" x="91.104027" y="171.86411" style="fill: #8c564b; stroke: #8c564b"/>
     <use xlink:href="#m58a251af6d" x="96.316331" y="159.897594" style="fill: #8c564b; stroke: #8c564b"/>
     <use xlink:href="#m58a251af6d" x="111.95324" y="140.996896" style="fill: #8c564b; stroke: #8c564b"/>
     <use xlink:href="#m58a251af6d" x="122.377847" y="131.805962" style="fill: #8c564b; stroke: #8c564b"/>
     <use xlink:href="#m58a251af6d" x="138.014756" y="119.8856" style="fill: #8c564b; stroke: #8c564b"/>
     <use xlink:href="#m58a251af6d" x="164.076272" y="110.307931" style="fill: #8c564b; stroke: #8c564b"/>
     <use xlink:href="#m58a251af6d" x="190.137788" y="105.202387" style="fill: #8c564b; stroke: #8c564b"/>
     <use xlink:href="#m58a251af6d" x="216.199305" y="103.022027" style="fill: #8c564b; stroke: #8c564b"/>
     <use xlink:href="#m58a251af6d" x="242.260821" y="101.30002" style="fill: #8c564b; stroke: #8c564b"/>
     <use xlink:href="#m58a251af6d" x="268.322337" y="100.408778" style="fill: #8c564b; stroke: #8c564b"/>
     <use xlink:href="#m58a251af6d" x="294.383853" y="99.641673" style="fill: #8c564b; stroke: #8c564b"/>
     <use xlink:href="#m58a251af6d" x="320.445369" y="99.113294" style="fill: #8c564b; stroke: #8c564b"/>
     <use xlink:href="#m58a251af6d" x="346.506885" y="98.688363" style="fill: #8c564b; stroke: #8c564b"/>
     <use xlink:href="#m58a251af6d" x="398.629917" y="98.152026" style="fill: #8c564b; stroke: #8c564b"/>
     <use xlink:href="#m58a251af6d" x="450.752949" y="99.062366" style="fill: #8c564b; stroke: #8c564b"/>
     <use xlink:href="#m58a251af6d" x="502.875981" y="98.734516" style="fill: #8c564b; stroke: #8c564b"/>
     <use xlink:href="#m58a251af6d" x="554.999013" y="99.205601" style="fill: #8c564b; stroke: #8c564b"/>
     <use xlink:href="#m58a251af6d" x="607.122045" y="98.47351" style="fill: #8c564b; stroke: #8c564b"/>
    </g>
   </g>
   <g id="patch_3">
    <path d="M 60.3775 526.9975 
L 60.3775 26.7675 
" style="fill: none; stroke: #000000; stroke-width: 0.8; stroke-linejoin: miter; stroke-linecap: square"/>
   </g>
   <g id="patch_4">
    <path d="M 633.1575 526.9975 
L 633.1575 26.7675 
" style="fill: none; stroke: #000000; stroke-width: 0.8; stroke-linejoin: miter; stroke-linecap: square"/>
   </g>
   <g id="patch_5">
    <path d="M 60.3775 526.9975 
L 633.1575 526.9975 
" style="fill: none; stroke: #000000; stroke-width: 0.8; stroke-linejoin: miter; stroke-linecap: square"/>
   </g>
   <g id="patch_6">
    <path d="M 60.3775 26.7675 
L 633.1575 26.7675 
" style="fill: none; stroke: #000000; stroke-width: 0.8; stroke-linejoin: miter; stroke-linecap: square"/>
   </g>
   <g id="text_33">
    <!-- Konvergence XGBoost: ROC-AUC vs. počet stromů -->
    <g transform="translate(145.98 20.7675) scale(0.16 -0.16)">
     <defs>
      <path id="DejaVuSans-4b" d="M 628 4666 
L 1259 4666 
L 1259 2694 
L 3353 4666 
L 4166 4666 
L 1850 2491 
L 4331 0 
L 3500 0 
L 1259 2247 
L 1259 0 
L 628 0 
L 628 4666 
z
" transform="scale(0.015625)"/>
      <path id="DejaVuSans-6e" d="M 3513 2113 
L 3513 0 
L 2938 0 
L 2938 2094 
Q 2938 2591 2744 2837 
Q 2550 3084 2163 3084 
Q 1697 3084 1428 2787 
Q 1159 2491 1159 1978 
L 1159 0 
L 581 0 
L 581 3500 
L 1159 3500 
L 1159 2956 
Q 1366 3272 1645 3428 
Q 1925 3584 2291 3584 
Q 2894 3584 3203 3211 
Q 3513 2838 3513 2113 
z
" transform="scale(0.015625)"/>
      <path id="DejaVuSans-76" d="M 191 3500 
L 800 3500 
L 1894 563 
L 2988 3500 
L 3597 3500 
L 2284 0 
L 1503 0 
L 191 3500 
z
" transform="scale(0.015625)"/>
      <path id="DejaVuSans-67" d="M 2906 1791 
Q 2906 2416 2648 2759 
Q 2391 3103 1925 3103 
Q 1463 3103 1205 2759 
Q 947 2416 947 1791 
Q 947 1169 1205 825 
Q 1463 481 1925 481 
Q 2391 481 2648 825 
Q 2906 1169 2906 1791 
z
M 3481 434 
Q 3481 -459 3084 -895 
Q 2688 -1331 1869 -1331 
Q 1566 -1331 1297 -1286 
Q 1028 -1241 775 -1147 
L 775 -588 
Q 1028 -725 1275 -790 
Q 1522 -856 1778 -856 
Q 2344 -856 2625 -561 
Q 2906 -266 2906 331 
L 2906 616 
Q 2728 306 2450 153 
Q 2172 0 1784 0 
Q 1141 0 747 490 
Q 353 981 353 1791 
Q 353 2603 747 3093 
Q 1141 3584 1784 3584 
Q 2172 3584 2450 3431 
Q 2728 3278 2906 2969 
L 2906 3500 
L 3481 3500 
L 3481 434 
z
" transform="scale(0.015625)"/>
      <path id="DejaVuSans-63" d="M 3122 3366 
L 3122 2828 
Q 2878 2963 2633 3030 
Q 2388 3097 2138 3097 
Q 1578 3097 1268 2742 
Q 959 2388 959 1747 
Q 959 1106 1268 751 
Q 1578 397 2138 397 
Q 2388 397 2633 464 
Q 2878 531 3122 666 
L 3122 134 
Q 2881 22 2623 -34 
Q 2366 -91 2075 -91 
Q 1284 -91 818 406 
Q 353 903 353 1747 
Q 353 2603 823 3093 
Q 1294 3584 2113 3584 
Q 2378 3584 2631 3529 
Q 2884 3475 3122 3366 
z
" transform="scale(0.015625)"/>
      <path id="DejaVuSans-58" d="M 403 4666 
L 1081 4666 
L 2241 2931 
L 3406 4666 
L 4084 4666 
L 2584 2425 
L 4184 0 
L 3506 0 
L 2194 1984 
L 872 0 
L 191 0 
L 1856 2491 
L 403 4666 
z
" transform="scale(0.015625)"/>
      <path id="DejaVuSans-47" d="M 3809 666 
L 3809 1919 
L 2778 1919 
L 2778 2438 
L 4434 2438 
L 4434 434 
Q 4069 175 3628 42 
Q 3188 -91 2688 -91 
Q 1594 -91 976 548 
Q 359 1188 359 2328 
Q 359 3472 976 4111 
Q 1594 4750 2688 4750 
Q 3144 4750 3555 4637 
Q 3966 4525 4313 4306 
L 4313 3634 
Q 3963 3931 3569 4081 
Q 3175 4231 2741 4231 
Q 1884 4231 1454 3753 
Q 1025 3275 1025 2328 
Q 1025 1384 1454 906 
Q 1884 428 2741 428 
Q 3075 428 3337 486 
Q 3600 544 3809 666 
z
" transform="scale(0.015625)"/>
      <path id="DejaVuSans-42" d="M 1259 2228 
L 1259 519 
L 2272 519 
Q 2781 519 3026 730 
Q 3272 941 3272 1375 
Q 3272 1813 3026 2020 
Q 2781 2228 2272 2228 
L 1259 2228 
z
M 1259 4147 
L 1259 2741 
L 2194 2741 
Q 2656 2741 2882 2914 
Q 3109 3088 3109 3444 
Q 3109 3797 2882 3972 
Q 2656 4147 2194 4147 
L 1259 4147 
z
M 628 4666 
L 2241 4666 
Q 2963 4666 3353 4366 
Q 3744 4066 3744 3513 
Q 3744 3084 3544 2831 
Q 3344 2578 2956 2516 
Q 3422 2416 3680 2098 
Q 3938 1781 3938 1306 
Q 3938 681 3513 340 
Q 3088 0 2303 0 
L 628 0 
L 628 4666 
z
" transform="scale(0.015625)"/>
      <path id="DejaVuSans-3a" d="M 750 794 
L 1409 794 
L 1409 0 
L 750 0 
L 750 794 
z
M 750 3309 
L 1409 3309 
L 1409 2516 
L 750 2516 
L 750 3309 
z
" transform="scale(0.015625)"/>
      <path id="DejaVuSans-70" d="M 1159 525 
L 1159 -1331 
L 581 -1331 
L 581 3500 
L 1159 3500 
L 1159 2969 
Q 1341 3281 1617 3432 
Q 1894 3584 2278 3584 
Q 2916 3584 3314 3078 
Q 3713 2572 3713 1747 
Q 3713 922 3314 415 
Q 2916 -91 2278 -91 
Q 1894 -91 1617 61 
Q 1341 213 1159 525 
z
M 3116 1747 
Q 3116 2381 2855 2742 
Q 2594 3103 2138 3103 
Q 1681 3103 1420 2742 
Q 1159 2381 1159 1747 
Q 1159 1113 1420 752 
Q 1681 391 2138 391 
Q 2594 391 2855 752 
Q 3116 1113 3116 1747 
z
" transform="scale(0.015625)"/>
     </defs>
     <use xlink:href="#DejaVuSans-4b"/>
     <use xlink:href="#DejaVuSans-6f" transform="translate(60.576172 0)"/>
     <use xlink:href="#DejaVuSans-6e" transform="translate(121.757812 0)"/>
     <use xlink:href="#DejaVuSans-76" transform="translate(185.136719 0)"/>
     <use xlink:href="#DejaVuSans-65" transform="translate(244.316406 0)"/>
     <use xlink:href="#DejaVuSans-72" transform="translate(305.839844 0)"/>
     <use xlink:href="#DejaVuSans-67" transform="translate(345.203125 0)"/>
     <use xlink:href="#DejaVuSans-65" transform="translate(408.679688 0)"/>
     <use xlink:href="#DejaVuSans-6e" transform="translate(470.203125 0)"/>
     <use xlink:href="#DejaVuSans-63" transform="translate(533.582031 0)"/>
     <use xlink:href="#DejaVuSans-65" transform="translate(588.5625 0)"/>
     <use xlink:href="#DejaVuSans-20" transform="translate(650.085938 0)"/>
     <use xlink:href="#DejaVuSans-58" transform="translate(681.873047 0)"/>
     <use xlink:href="#DejaVuSans-47" transform="translate(750.378906 0)"/>
     <use xlink:href="#DejaVuSans-42" transform="translate(827.869141 0)"/>
     <use xlink:href="#DejaVuSans-6f" transform="translate(896.472656 0)"/>
     <use xlink:href="#DejaVuSans-6f" transform="translate(957.654297 0)"/>
     <use xlink:href="#DejaVuSans-73" transform="translate(1018.835938 0)"/>
     <use xlink:href="#DejaVuSans-74" transform="translate(1070.935547 0)"/>
     <use xlink:href="#DejaVuSans-3a" transform="translate(1110.144531 0)"/>
     <use xlink:href="#DejaVuSans-20" transform="translate(1143.835938 0)"/>
     <use xlink:href="#DejaVuSans-52" transform="translate(1175.623047 0)"/>
     <use xlink:href="#DejaVuSans-4f" transform="translate(1245.105469 0)"/>
     <use xlink:href="#DejaVuSans-43" transform="translate(1323.816406 0)"/>
     <use xlink:href="#DejaVuSans-2d" transform="translate(1393.640625 0)"/>
     <use xlink:href="#DejaVuSans-41" transform="translate(1427.474609 0)"/>
     <use xlink:href="#DejaVuSans-55" transform="translate(1495.882812 0)"/>
     <use xlink:href="#DejaVuSans-43" transform="translate(1569.076172 0)"/>
     <use xlink:href="#DejaVuSans-20" transform="translate(1638.900391 0)"/>
     <use xlink:href="#DejaVuSans-76" transform="translate(1670.6875 0)"/>
     <use xlink:href="#DejaVuSans-73" transform="translate(1729.867188 0)"/>
     <use xlink:href="#DejaVuSans-2e" transform="translate(1781.966797 0)"/>
     <use xlink:href="#DejaVuSans-20" transform="translate(1813.753906 0)"/>
     <use xlink:href="#DejaVuSans-70" transform="translate(1845.541016 0)"/>
     <use xlink:href="#DejaVuSans-6f" transform="translate(1909.017578 0)"/>
     <use xlink:href="#DejaVuSans-10d" transform="translate(1970.199219 0)"/>
     <use xlink:href="#DejaVuSans-65" transform="translate(2025.179688 0)"/>
     <use xlink:href="#DejaVuSans-74" transform="translate(2086.703125 0)"/>
     <use xlink:href="#DejaVuSans-20" transform="translate(2125.912109 0)"/>
     <use xlink:href="#DejaVuSans-73" transform="translate(2157.699219 0)"/>
     <use xlink:href="#DejaVuSans-74" transform="translate(2209.798828 0)"/>
     <use xlink:href="#DejaVuSans-72" transform="translate(2249.007812 0)"/>
     <use xlink:href="#DejaVuSans-6f" transform="translate(2287.871094 0)"/>
     <use xlink:href="#DejaVuSans-6d" transform="translate(2349.052734 0)"/>
     <use xlink:href="#DejaVuSans-16f" transform="translate(2446.464844 0)"/>
    </g>
   </g>
   <g id="legend_1">
    <g id="patch_7">
     <path d="M 668.7965 125.23625 
L 842.454313 125.23625 
Q 844.454313 125.23625 844.454313 123.23625 
L 844.454313 33.7675 
Q 844.454313 31.7675 842.454313 31.7675 
L 668.7965 31.7675 
Q 666.7965 31.7675 666.7965 33.7675 
L 666.7965 123.23625 
Q 666.7965 125.23625 668.7965 125.23625 
z
" style="fill: #ffffff; opacity: 0.8; stroke: #cccccc; stroke-linejoin: miter"/>
    </g>
    <g id="line2d_67">
     <path d="M 670.7965 40.265937 
L 680.7965 40.265937 
L 690.7965 40.265937 
" style="fill: none; stroke: #1f77b4; stroke-width: 1.5; stroke-linecap: square"/>
     <g>
      <use xlink:href="#m63c909f4ed" x="680.7965" y="40.265937" style="fill: #1f77b4; stroke: #1f77b4"/>
     </g>
    </g>
    <g id="text_34">
     <!-- androgenní receptor -->
     <g transform="translate(698.7965 43.765937) scale(0.1 -0.1)">
      <defs>
       <path id="DejaVuSans-61" d="M 2194 1759 
Q 1497 1759 1228 1600 
Q 959 1441 959 1056 
Q 959 750 1161 570 
Q 1363 391 1709 391 
Q 2188 391 2477 730 
Q 2766 1069 2766 1631 
L 2766 1759 
L 2194 1759 
z
M 3341 1997 
L 3341 0 
L 2766 0 
L 2766 531 
Q 2569 213 2275 61 
Q 1981 -91 1556 -91 
Q 1019 -91 701 211 
Q 384 513 384 1019 
Q 384 1609 779 1909 
Q 1175 2209 1959 2209 
L 2766 2209 
L 2766 2266 
Q 2766 2663 2505 2880 
Q 2244 3097 1772 3097 
Q 1472 3097 1187 3025 
Q 903 2953 641 2809 
L 641 3341 
Q 956 3463 1253 3523 
Q 1550 3584 1831 3584 
Q 2591 3584 2966 3190 
Q 3341 2797 3341 1997 
z
" transform="scale(0.015625)"/>
       <path id="DejaVuSans-64" d="M 2906 2969 
L 2906 4863 
L 3481 4863 
L 3481 0 
L 2906 0 
L 2906 525 
Q 2725 213 2448 61 
Q 2172 -91 1784 -91 
Q 1150 -91 751 415 
Q 353 922 353 1747 
Q 353 2572 751 3078 
Q 1150 3584 1784 3584 
Q 2172 3584 2448 3432 
Q 2725 3281 2906 2969 
z
M 947 1747 
Q 947 1113 1208 752 
Q 1469 391 1925 391 
Q 2381 391 2643 752 
Q 2906 1113 2906 1747 
Q 2906 2381 2643 2742 
Q 2381 3103 1925 3103 
Q 1469 3103 1208 2742 
Q 947 2381 947 1747 
z
" transform="scale(0.015625)"/>
       <path id="DejaVuSans-ed" d="M 1322 5119 
L 1944 5119 
L 926 3944 
L 447 3944 
L 1322 5119 
z
M 603 3500 
L 1178 3500 
L 1178 0 
L 603 0 
L 603 3500 
z
M 891 3584 
L 891 3584 
z
" transform="scale(0.015625)"/>
      </defs>
      <use xlink:href="#DejaVuSans-61"/>
      <use xlink:href="#DejaVuSans-6e" transform="translate(61.279297 0)"/>
      <use xlink:href="#DejaVuSans-64" transform="translate(124.658203 0)"/>
      <use xlink:href="#DejaVuSans-72" transform="translate(188.134766 0)"/>
      <use xlink:href="#DejaVuSans-6f" transform="translate(226.998047 0)"/>
      <use xlink:href="#DejaVuSans-67" transform="translate(288.179688 0)"/>
      <use xlink:href="#DejaVuSans-65" transform="translate(351.65625 0)"/>
      <use xlink:href="#DejaVuSans-6e" transform="translate(413.179688 0)"/>
      <use xlink:href="#DejaVuSans-6e" transform="translate(476.558594 0)"/>
      <use xlink:href="#DejaVuSans-ed" transform="translate(539.9375 0)"/>
      <use xlink:href="#DejaVuSans-20" transform="translate(567.720703 0)"/>
      <use xlink:href="#DejaVuSans-72" transform="translate(599.507812 0)"/>
      <use xlink:href="#DejaVuSans-65" transform="translate(638.371094 0)"/>
      <use xlink:href="#DejaVuSans-63" transform="translate(699.894531 0)"/>
      <use xlink:href="#DejaVuSans-65" transform="translate(754.875 0)"/>
      <use xlink:href="#DejaVuSans-70" transform="translate(816.398438 0)"/>
      <use xlink:href="#DejaVuSans-74" transform="translate(879.875 0)"/>
      <use xlink:href="#DejaVuSans-6f" transform="translate(919.083984 0)"/>
      <use xlink:href="#DejaVuSans-72" transform="translate(980.265625 0)"/>
     </g>
    </g>
    <g id="line2d_68">
     <path d="M 670.7965 55.344062 
L 680.7965 55.344062 
L 690.7965 55.344062 
" style="fill: none; stroke: #ff7f0e; stroke-width: 1.5; stroke-linecap: square"/>
     <g>
      <use xlink:href="#m2bffa8c7f7" x="680.7965" y="55.344062" style="fill: #ff7f0e; stroke: #ff7f0e"/>
     </g>
    </g>
    <g id="text_35">
     <!-- estrogenový receptor α -->
     <g transform="translate(698.7965 58.844062) scale(0.1 -0.1)">
      <defs>
       <path id="DejaVuSans-fd" d="M 2059 -325 
Q 1816 -950 1584 -1140 
Q 1353 -1331 966 -1331 
L 506 -1331 
L 506 -850 
L 844 -850 
Q 1081 -850 1212 -737 
Q 1344 -625 1503 -206 
L 1606 56 
L 191 3500 
L 800 3500 
L 1894 763 
L 2988 3500 
L 3597 3500 
L 2059 -325 
z
M 2330 5119 
L 2952 5119 
L 1934 3944 
L 1455 3944 
L 2330 5119 
z
" transform="scale(0.015625)"/>
       <path id="DejaVuSans-3b1" d="M 2644 1628 
L 2506 2350 
Q 2366 3091 1809 3091 
Q 1391 3091 1200 2747 
Q 959 2316 959 1747 
Q 959 1059 1194 731 
Q 1431 397 1809 397 
Q 2228 397 2453 1063 
L 2644 1628 
z
M 2966 2584 
L 3275 3500 
L 3788 3500 
L 3147 1603 
L 3272 919 
Q 3300 766 3409 638 
Q 3538 488 3638 488 
L 3913 488 
L 3913 0 
L 3569 0 
Q 3275 0 3013 263 
Q 2884 394 2831 669 
Q 2688 322 2394 50 
Q 2256 -78 1809 -78 
Q 1075 -78 719 397 
Q 353 888 353 1747 
Q 353 2666 750 3097 
Q 1191 3578 1809 3578 
Q 2781 3578 2966 2584 
z
" transform="scale(0.015625)"/>
      </defs>
      <use xlink:href="#DejaVuSans-65"/>
      <use xlink:href="#DejaVuSans-73" transform="translate(61.523438 0)"/>
      <use xlink:href="#DejaVuSans-74" transform="translate(113.623047 0)"/>
      <use xlink:href="#DejaVuSans-72" transform="translate(152.832031 0)"/>
      <use xlink:href="#DejaVuSans-6f" transform="translate(191.695312 0)"/>
      <use xlink:href="#DejaVuSans-67" transform="translate(252.876953 0)"/>
      <use xlink:href="#DejaVuSans-65" transform="translate(316.353516 0)"/>
      <use xlink:href="#DejaVuSans-6e" transform="translate(377.876953 0)"/>
      <use xlink:href="#DejaVuSans-6f" transform="translate(441.255859 0)"/>
      <use xlink:href="#DejaVuSans-76" transform="translate(502.4375 0)"/>
      <use xlink:href="#DejaVuSans-fd" transform="translate(561.617188 0)"/>
      <use xlink:href="#DejaVuSans-20" transform="translate(620.796875 0)"/>
      <use xlink:href="#DejaVuSans-72" transform="translate(652.583984 0)"/>
      <use xlink:href="#DejaVuSans-65" transform="translate(691.447266 0)"/>
      <use xlink:href="#DejaVuSans-63" transform="translate(752.970703 0)"/>
      <use xlink:href="#DejaVuSans-65" transform="translate(807.951172 0)"/>
      <use xlink:href="#DejaVuSans-70" transform="translate(869.474609 0)"/>
      <use xlink:href="#DejaVuSans-74" transform="translate(932.951172 0)"/>
      <use xlink:href="#DejaVuSans-6f" transform="translate(972.160156 0)"/>
      <use xlink:href="#DejaVuSans-72" transform="translate(1033.341797 0)"/>
      <use xlink:href="#DejaVuSans-20" transform="translate(1074.455078 0)"/>
      <use xlink:href="#DejaVuSans-3b1" transform="translate(1106.242188 0)"/>
     </g>
    </g>
    <g id="line2d_69">
     <path d="M 670.7965 70.422187 
L 680.7965 70.422187 
L 690.7965 70.422187 
" style="fill: none; stroke: #2ca02c; stroke-width: 1.5; stroke-linecap: square"/>
     <g>
      <use xlink:href="#m485921ecfe" x="680.7965" y="70.422187" style="fill: #2ca02c; stroke: #2ca02c"/>
     </g>
    </g>
    <g id="text_36">
     <!-- estrogenový receptor β -->
     <g transform="translate(698.7965 73.922187) scale(0.1 -0.1)">
      <defs>
       <path id="DejaVuSans-3b2" d="M 1178 216 
L 1178 -1331 
L 600 -1331 
L 600 3478 
Q 600 4903 1931 4903 
Q 3288 4903 3288 3700 
Q 3288 2844 2750 2531 
Q 3625 2250 3625 1416 
Q 3625 -66 2119 -66 
Q 1456 -66 1178 216 
z
M 1178 966 
Q 1525 425 2141 425 
Q 3041 425 3041 1406 
Q 3041 2288 1591 2219 
L 1591 2750 
Q 2725 2750 2725 3750 
Q 2725 4434 1994 4434 
Q 1178 4434 1178 3459 
L 1178 966 
z
" transform="scale(0.015625)"/>
      </defs>
      <use xlink:href="#DejaVuSans-65"/>
      <use xlink:href="#DejaVuSans-73" transform="translate(61.523438 0)"/>
      <use xlink:href="#DejaVuSans-74" transform="translate(113.623047 0)"/>
      <use xlink:href="#DejaVuSans-72" transform="translate(152.832031 0)"/>
      <use xlink:href="#DejaVuSans-6f" transform="translate(191.695312 0)"/>
      <use xlink:href="#DejaVuSans-67" transform="translate(252.876953 0)"/>
      <use xlink:href="#DejaVuSans-65" transform="translate(316.353516 0)"/>
      <use xlink:href="#DejaVuSans-6e" transform="translate(377.876953 0)"/>
      <use xlink:href="#DejaVuSans-6f" transform="translate(441.255859 0)"/>
      <use xlink:href="#DejaVuSans-76" transform="translate(502.4375 0)"/>
      <use xlink:href="#DejaVuSans-fd" transform="translate(561.617188 0)"/>
      <use xlink:href="#DejaVuSans-20" transform="translate(620.796875 0)"/>
      <use xlink:href="#DejaVuSans-72" transform="translate(652.583984 0)"/>
      <use xlink:href="#DejaVuSans-65" transform="translate(691.447266 0)"/>
      <use xlink:href="#DejaVuSans-63" transform="translate(752.970703 0)"/>
      <use xlink:href="#DejaVuSans-65" transform="translate(807.951172 0)"/>
      <use xlink:href="#DejaVuSans-70" transform="translate(869.474609 0)"/>
      <use xlink:href="#DejaVuSans-74" transform="translate(932.951172 0)"/>
      <use xlink:href="#DejaVuSans-6f" transform="translate(972.160156 0)"/>
      <use xlink:href="#DejaVuSans-72" transform="translate(1033.341797 0)"/>
      <use xlink:href="#DejaVuSans-20" transform="translate(1074.455078 0)"/>
      <use xlink:href="#DejaVuSans-3b2" transform="translate(1106.242188 0)"/>
     </g>
    </g>
    <g id="line2d_70">
     <path d="M 670.7965 85.500312 
L 680.7965 85.500312 
L 690.7965 85.500312 
" style="fill: none; stroke: #d62728; stroke-width: 1.5; stroke-linecap: square"/>
     <g>
      <use xlink:href="#med620bf3d8" x="680.7965" y="85.500312" style="fill: #d62728; stroke: #d62728"/>
     </g>
    </g>
    <g id="text_37">
     <!-- glukokortikoidní receptor -->
     <g transform="translate(698.7965 89.000312) scale(0.1 -0.1)">
      <defs>
       <path id="DejaVuSans-6c" d="M 603 4863 
L 1178 4863 
L 1178 0 
L 603 0 
L 603 4863 
z
" transform="scale(0.015625)"/>
       <path id="DejaVuSans-75" d="M 544 1381 
L 544 3500 
L 1119 3500 
L 1119 1403 
Q 1119 906 1312 657 
Q 1506 409 1894 409 
Q 2359 409 2629 706 
Q 2900 1003 2900 1516 
L 2900 3500 
L 3475 3500 
L 3475 0 
L 2900 0 
L 2900 538 
Q 2691 219 2414 64 
Q 2138 -91 1772 -91 
Q 1169 -91 856 284 
Q 544 659 544 1381 
z
M 1991 3584 
L 1991 3584 
z
" transform="scale(0.015625)"/>
       <path id="DejaVuSans-69" d="M 603 3500 
L 1178 3500 
L 1178 0 
L 603 0 
L 603 3500 
z
M 603 4863 
L 1178 4863 
L 1178 4134 
L 603 4134 
L 603 4863 
z
" transform="scale(0.015625)"/>
      </defs>
      <use xlink:href="#DejaVuSans-67"/>
      <use xlink:href="#DejaVuSans-6c" transform="translate(63.476562 0)"/>
      <use xlink:href="#DejaVuSans-75" transform="translate(91.259766 0)"/>
      <use xlink:href="#DejaVuSans-6b" transform="translate(154.638672 0)"/>
      <use xlink:href="#DejaVuSans-6f" transform="translate(208.923828 0)"/>
      <use xlink:href="#DejaVuSans-6b" transform="translate(270.105469 0)"/>
      <use xlink:href="#DejaVuSans-6f" transform="translate(324.390625 0)"/>
      <use xlink:href="#DejaVuSans-72" transform="translate(385.572266 0)"/>
      <use xlink:href="#DejaVuSans-74" transform="translate(426.685547 0)"/>
      <use xlink:href="#DejaVuSans-69" transform="translate(465.894531 0)"/>
      <use xlink:href="#DejaVuSans-6b" transform="translate(493.677734 0)"/>
      <use xlink:href="#DejaVuSans-6f" transform="translate(547.962891 0)"/>
      <use xlink:href="#DejaVuSans-69" transform="translate(609.144531 0)"/>
      <use xlink:href="#DejaVuSans-64" transform="translate(636.927734 0)"/>
      <use xlink:href="#DejaVuSans-6e" transform="translate(700.404297 0)"/>
      <use xlink:href="#DejaVuSans-ed" transform="translate(763.783203 0)"/>
      <use xlink:href="#DejaVuSans-20" transform="translate(791.566406 0)"/>
      <use xlink:href="#DejaVuSans-72" transform="translate(823.353516 0)"/>
      <use xlink:href="#DejaVuSans-65" transform="translate(862.216797 0)"/>
      <use xlink:href="#DejaVuSans-63" transform="translate(923.740234 0)"/>
      <use xlink:href="#DejaVuSans-65" transform="translate(978.720703 0)"/>
      <use xlink:href="#DejaVuSans-70" transform="translate(1040.244141 0)"/>
      <use xlink:href="#DejaVuSans-74" transform="translate(1103.720703 0)"/>
      <use xlink:href="#DejaVuSans-6f" transform="translate(1142.929688 0)"/>
      <use xlink:href="#DejaVuSans-72" transform="translate(1204.111328 0)"/>
     </g>
    </g>
    <g id="line2d_71">
     <path d="M 670.7965 100.578437 
L 680.7965 100.578437 
L 690.7965 100.578437 
" style="fill: none; stroke: #9467bd; stroke-width: 1.5; stroke-linecap: square"/>
     <g>
      <use xlink:href="#m5f7362c0f9" x="680.7965" y="100.578437" style="fill: #9467bd; stroke: #9467bd"/>
     </g>
    </g>
    <g id="text_38">
     <!-- mineralokortikoidní receptor -->
     <g transform="translate(698.7965 104.078437) scale(0.1 -0.1)">
      <use xlink:href="#DejaVuSans-6d"/>
      <use xlink:href="#DejaVuSans-69" transform="translate(97.412109 0)"/>
      <use xlink:href="#DejaVuSans-6e" transform="translate(125.195312 0)"/>
      <use xlink:href="#DejaVuSans-65" transform="translate(188.574219 0)"/>
      <use xlink:href="#DejaVuSans-72" transform="translate(250.097656 0)"/>
      <use xlink:href="#DejaVuSans-61" transform="translate(291.210938 0)"/>
      <use xlink:href="#DejaVuSans-6c" transform="translate(352.490234 0)"/>
      <use xlink:href="#DejaVuSans-6f" transform="translate(380.273438 0)"/>
      <use xlink:href="#DejaVuSans-6b" transform="translate(441.455078 0)"/>
      <use xlink:href="#DejaVuSans-6f" transform="translate(495.740234 0)"/>
      <use xlink:href="#DejaVuSans-72" transform="translate(556.921875 0)"/>
      <use xlink:href="#DejaVuSans-74" transform="translate(598.035156 0)"/>
      <use xlink:href="#DejaVuSans-69" transform="translate(637.244141 0)"/>
      <use xlink:href="#DejaVuSans-6b" transform="translate(665.027344 0)"/>
      <use xlink:href="#DejaVuSans-6f" transform="translate(719.3125 0)"/>
      <use xlink:href="#DejaVuSans-69" transform="translate(780.494141 0)"/>
      <use xlink:href="#DejaVuSans-64" transform="translate(808.277344 0)"/>
      <use xlink:href="#DejaVuSans-6e" transform="translate(871.753906 0)"/>
      <use xlink:href="#DejaVuSans-ed" transform="translate(935.132812 0)"/>
      <use xlink:href="#DejaVuSans-20" transform="translate(962.916016 0)"/>
      <use xlink:href="#DejaVuSans-72" transform="translate(994.703125 0)"/>
      <use xlink:href="#DejaVuSans-65" transform="translate(1033.566406 0)"/>
      <use xlink:href="#DejaVuSans-63" transform="translate(1095.089844 0)"/>
      <use xlink:href="#DejaVuSans-65" transform="translate(1150.070312 0)"/>
      <use xlink:href="#DejaVuSans-70" transform="translate(1211.59375 0)"/>
      <use xlink:href="#DejaVuSans-74" transform="translate(1275.070312 0)"/>
      <use xlink:href="#DejaVuSans-6f" transform="translate(1314.279297 0)"/>
      <use xlink:href="#DejaVuSans-72" transform="translate(1375.460938 0)"/>
     </g>
    </g>
    <g id="line2d_72">
     <path d="M 670.7965 115.656562 
L 680.7965 115.656562 
L 690.7965 115.656562 
" style="fill: none; stroke: #8c564b; stroke-width: 1.5; stroke-linecap: square"/>
     <g>
      <use xlink:href="#m58a251af6d" x="680.7965" y="115.656562" style="fill: #8c564b; stroke: #8c564b"/>
     </g>
    </g>
    <g id="text_39">
     <!-- progesteronový receptor -->
     <g transform="translate(698.7965 119.156562) scale(0.1 -0.1)">
      <use xlink:href="#DejaVuSans-70"/>
      <use xlink:href="#DejaVuSans-72" transform="translate(63.476562 0)"/>
      <use xlink:href="#DejaVuSans-6f" transform="translate(102.339844 0)"/>
      <use xlink:href="#DejaVuSans-67" transform="translate(163.521484 0)"/>
      <use xlink:href="#DejaVuSans-65" transform="translate(226.998047 0)"/>
      <use xlink:href="#DejaVuSans-73" transform="translate(288.521484 0)"/>
      <use xlink:href="#DejaVuSans-74" transform="translate(340.621094 0)"/>
      <use xlink:href="#DejaVuSans-65" transform="translate(379.830078 0)"/>
      <use xlink:href="#DejaVuSans-72" transform="translate(441.353516 0)"/>
      <use xlink:href="#DejaVuSans-6f" transform="translate(480.216797 0)"/>
      <use xlink:href="#DejaVuSans-6e" transform="translate(541.398438 0)"/>
      <use xlink:href="#DejaVuSans-6f" transform="translate(604.777344 0)"/>
      <use xlink:href="#DejaVuSans-76" transform="translate(665.958984 0)"/>
      <use xlink:href="#DejaVuSans-fd" transform="translate(725.138672 0)"/>
      <use xlink:href="#DejaVuSans-20" transform="translate(784.318359 0)"/>
      <use xlink:href="#DejaVuSans-72" transform="translate(816.105469 0)"/>
      <use xlink:href="#DejaVuSans-65" transform="translate(854.96875 0)"/>
      <use xlink:href="#DejaVuSans-63" transform="translate(916.492188 0)"/>
      <use xlink:href="#DejaVuSans-65" transform="translate(971.472656 0)"/>
      <use xlink:href="#DejaVuSans-70" transform="translate(1032.996094 0)"/>
      <use xlink:href="#DejaVuSans-74" transform="translate(1096.472656 0)"/>
      <use xlink:href="#DejaVuSans-6f" transform="translate(1135.681641 0)"/>
      <use xlink:href="#DejaVuSans-72" transform="translate(1196.863281 0)"/>
     </g>
    </g>
   </g>
  </g>
 </g>
 <defs>
  <clipPath id="p839359f0ae">
   <rect x="60.3775" y="26.7675" width="572.78" height="500.23"/>
  </clipPath>
 </defs>
</svg>
