<?xml version="1.0" encoding="utf-8" standalone="no"?>
<!DOCTYPE svg PUBLIC "-//W3C//DTD SVG 1.1//EN"
  "http://www.w3.org/Graphics/SVG/1.1/DTD/svg11.dtd">
<svg xmlns:xlink="http://www.w3.org/1999/xlink" width="497.38125pt" height="392.994375pt" viewBox="0 0 497.38125 392.994375" xmlns="http://www.w3.org/2000/svg" version="1.1">
 <metadata>
  <rdf:RDF xmlns:dc="http://purl.org/dc/elements/1.1/" xmlns:cc="http://creativecommons.org/ns#" xmlns:rdf="http://www.w3.org/1999/02/22-rdf-syntax-ns#">
   <cc:Work>
    <dc:type rdf:resource="http://purl.org/dc/dcmitype/StillImage"/>
    <dc:date>2026-03-27T15:15:11.883153</dc:date>
    <dc:format>image/svg+xml</dc:format>
    <dc:creator>
     <cc:Agent>
      <dc:title>Matplotlib v3.10.6, https://matplotlib.org/</dc:title>
     </cc:Agent>
    </dc:creator>
   </cc:Work>
  </rdf:RDF>
 </metadata>
 <defs>
  <style type="text/css">*{stroke-linejoin: round; stroke-linecap: butt}</style>
 </defs>
 <g id="figure_1">
  <g id="patch_1">
   <path d="M 0 392.994375 
L 497.38125 392.994375 
L 497.38125 0 
L 0 0 
z
" style="fill: #ffffff"/>
  </g>
  <g id="axes_1">
   <g id="patch_2">
    <path d="M 43.78125 355.438125 
L 490.18125 355.438125 
L 490.18125 22.798125 
L 43.78125 22.798125 
z
" style="fill: #ffffff"/>
   </g>
   <g id="matplotlib.axis_1">
    <g id="xtick_1">
     <g id="line2d_1">
      <path d="M 64.072159 355.438125 
L 64.072159 22.798125 
" clip-path="url(#pd2a6302fda)" style="fill: none; stroke: #b0b0b0; stroke-width: 0.8; stroke-linecap: square"/>
     </g>
     <g id="line2d_2">
      <defs>
       <path id="m6048307503" d="M 0 0 
L 0 3.5 
" style="stroke: #000000; stroke-width: 0.8"/>
      </defs>
      <g>
       <use xlink:href="#m6048307503" x="64.072159" y="355.438125" style="stroke: #000000; stroke-width: 0.8"/>
      </g>
     </g>
     <g id="text_1">
      <!-- 0.0 -->
      <g transform="translate(56.120597 370.036562) scale(0.1 -0.1)">
       <defs>
        <path id="DejaVuSans-30" d="M 2034 4250 
Q 1547 4250 1301 3770 
Q 1056 3291 1056 2328 
Q 1056 1369 1301 889 
Q 1547 409 2034 409 
Q 2525 409 2770 889 
Q 3016 1369 3016 2328 
Q 3016 3291 2770 3770 
Q 2525 4250 2034 4250 
z
M 2034 4750 
Q 2819 4750 3233 4129 
Q 3647 3509 3647 2328 
Q 3647 1150 3233 529 
Q 2819 -91 2034 -91 
Q 1250 -91 836 529 
Q 422 1150 422 2328 
Q 422 3509 836 4129 
Q 1250 4750 2034 4750 
z
" transform="scale(0.015625)"/>
        <path id="DejaVuSans-2e" d="M 684 794 
L 1344 794 
L 1344 0 
L 684 0 
L 684 794 
z
" transform="scale(0.015625)"/>
       </defs>
       <use xlink:href="#DejaVuSans-30"/>
       <use xlink:href="#DejaVuSans-2e" transform="translate(63.623047 0)"/>
       <use xlink:href="#DejaVuSans-30" transform="translate(95.410156 0)"/>
      </g>
     </g>
    </g>
    <g id="xtick_2">
     <g id="line2d_3">
      <path d="M 145.235795 355.438125 
L 145.235795 22.798125 
" clip-path="url(#pd2a6302fda)" style="fill: none; stroke: #b0b0b0; stroke-width: 0.8; stroke-linecap: square"/>
     </g>
     <g id="line2d_4">
      <g>
       <use xlink:href="#m6048307503" x="145.235795" y="355.438125" style="stroke: #000000; stroke-width: 0.8"/>
      </g>
     </g>
     <g id="text_2">
      <!-- 0.2 -->
      <g transform="translate(137.284233 370.036562) scale(0.1 -0.1)">
       <defs>
        <path id="DejaVuSans-32" d="M 1228 531 
L 3431 531 
L 3431 0 
L 469 0 
L 469 531 
Q 828 903 1448 1529 
Q 2069 2156 2228 2338 
Q 2531 2678 2651 2914 
Q 2772 3150 2772 3378 
Q 2772 3750 2511 3984 
Q 2250 4219 1831 4219 
Q 1534 4219 1204 4116 
Q 875 4013 500 3803 
L 500 4441 
Q 881 4594 1212 4672 
Q 1544 4750 1819 4750 
Q 2544 4750 2975 4387 
Q 3406 4025 3406 3419 
Q 3406 3131 3298 2873 
Q 3191 2616 2906 2266 
Q 2828 2175 2409 1742 
Q 1991 1309 1228 531 
z
" transform="scale(0.015625)"/>
       </defs>
       <use xlink:href="#DejaVuSans-30"/>
       <use xlink:href="#DejaVuSans-2e" transform="translate(63.623047 0)"/>
       <use xlink:href="#DejaVuSans-32" transform="translate(95.410156 0)"/>
      </g>
     </g>
    </g>
    <g id="xtick_3">
     <g id="line2d_5">
      <path d="M 226.399432 355.438125 
L 226.399432 22.798125 
" clip-path="url(#pd2a6302fda)" style="fill: none; stroke: #b0b0b0; stroke-width: 0.8; stroke-linecap: square"/>
     </g>
     <g id="line2d_6">
      <g>
       <use xlink:href="#m6048307503" x="226.399432" y="355.438125" style="stroke: #000000; stroke-width: 0.8"/>
      </g>
     </g>
     <g id="text_3">
      <!-- 0.4 -->
      <g transform="translate(218.447869 370.036562) scale(0.1 -0.1)">
       <defs>
        <path id="DejaVuSans-34" d="M 2419 4116 
L 825 1625 
L 2419 1625 
L 2419 4116 
z
M 2253 4666 
L 3047 4666 
L 3047 1625 
L 3713 1625 
L 3713 1100 
L 3047 1100 
L 3047 0 
L 2419 0 
L 2419 1100 
L 313 1100 
L 313 1709 
L 2253 4666 
z
" transform="scale(0.015625)"/>
       </defs>
       <use xlink:href="#DejaVuSans-30"/>
       <use xlink:href="#DejaVuSans-2e" transform="translate(63.623047 0)"/>
       <use xlink:href="#DejaVuSans-34" transform="translate(95.410156 0)"/>
      </g>
     </g>
    </g>
    <g id="xtick_4">
     <g id="line2d_7">
      <path d="M 307.563068 355.438125 
L 307.563068 22.798125 
" clip-path="url(#pd2a6302fda)" style="fill: none; stroke: #b0b0b0; stroke-width: 0.8; stroke-linecap: square"/>
     </g>
     <g id="line2d_8">
      <g>
       <use xlink:href="#m6048307503" x="307.563068" y="355.438125" style="stroke: #000000; stroke-width: 0.8"/>
      </g>
     </g>
     <g id="text_4">
      <!-- 0.6 -->
      <g transform="translate(299.611506 370.036562) scale(0.1 -0.1)">
       <defs>
        <path id="DejaVuSans-36" d="M 2113 2584 
Q 1688 2584 1439 2293 
Q 1191 2003 1191 1497 
Q 1191 994 1439 701 
Q 1688 409 2113 409 
Q 2538 409 2786 701 
Q 3034 994 3034 1497 
Q 3034 2003 2786 2293 
Q 2538 2584 2113 2584 
z
M 3366 4563 
L 3366 3988 
Q 3128 4100 2886 4159 
Q 2644 4219 2406 4219 
Q 1781 4219 1451 3797 
Q 1122 3375 1075 2522 
Q 1259 2794 1537 2939 
Q 1816 3084 2150 3084 
Q 2853 3084 3261 2657 
Q 3669 2231 3669 1497 
Q 3669 778 3244 343 
Q 2819 -91 2113 -91 
Q 1303 -91 875 529 
Q 447 1150 447 2328 
Q 447 3434 972 4092 
Q 1497 4750 2381 4750 
Q 2619 4750 2861 4703 
Q 3103 4656 3366 4563 
z
" transform="scale(0.015625)"/>
       </defs>
       <use xlink:href="#DejaVuSans-30"/>
       <use xlink:href="#DejaVuSans-2e" transform="translate(63.623047 0)"/>
       <use xlink:href="#DejaVuSans-36" transform="translate(95.410156 0)"/>
      </g>
     </g>
    </g>
    <g id="xtick_5">
     <g id="line2d_9">
      <path d="M 388.726705 355.438125 
L 388.726705 22.798125 
" clip-path="url(#pd2a6302fda)" style="fill: none; stroke: #b0b0b0; stroke-width: 0.8; stroke-linecap: square"/>
     </g>
     <g id="line2d_10">
      <g>
       <use xlink:href="#m6048307503" x="388.726705" y="355.438125" style="stroke: #000000; stroke-width: 0.8"/>
      </g>
     </g>
     <g id="text_5">
      <!-- 0.8 -->
      <g transform="translate(380.775142 370.036562) scale(0.1 -0.1)">
       <defs>
        <path id="DejaVuSans-38" d="M 2034 2216 
Q 1584 2216 1326 1975 
Q 1069 1734 1069 1313 
Q 1069 891 1326 650 
Q 1584 409 2034 409 
Q 2484 409 2743 651 
Q 3003 894 3003 1313 
Q 3003 1734 2745 1975 
Q 2488 2216 2034 2216 
z
M 1403 2484 
Q 997 2584 770 2862 
Q 544 3141 544 3541 
Q 544 4100 942 4425 
Q 1341 4750 2034 4750 
Q 2731 4750 3128 4425 
Q 3525 4100 3525 3541 
Q 3525 3141 3298 2862 
Q 3072 2584 2669 2484 
Q 3125 2378 3379 2068 
Q 3634 1759 3634 1313 
Q 3634 634 3220 271 
Q 2806 -91 2034 -91 
Q 1263 -91 848 271 
Q 434 634 434 1313 
Q 434 1759 690 2068 
Q 947 2378 1403 2484 
z
M 1172 3481 
Q 1172 3119 1398 2916 
Q 1625 2713 2034 2713 
Q 2441 2713 2670 2916 
Q 2900 3119 2900 3481 
Q 2900 3844 2670 4047 
Q 2441 4250 2034 4250 
Q 1625 4250 1398 4047 
Q 1172 3844 1172 3481 
z
" transform="scale(0.015625)"/>
       </defs>
       <use xlink:href="#DejaVuSans-30"/>
       <use xlink:href="#DejaVuSans-2e" transform="translate(63.623047 0)"/>
       <use xlink:href="#DejaVuSans-38" transform="translate(95.410156 0)"/>
      </g>
     </g>
    </g>
    <g id="xtick_6">
     <g id="line2d_11">
      <path d="M 469.890341 355.438125 
L 469.890341 22.798125 
" clip-path="url(#pd2a6302fda)" style="fill: none; stroke: #b0b0b0; stroke-width: 0.8; stroke-linecap: square"/>
     </g>
     <g id="line2d_12">
      <g>
       <use xlink:href="#m6048307503" x="469.890341" y="355.438125" style="stroke: #000000; stroke-width: 0.8"/>
      </g>
     </g>
     <g id="text_6">
      <!-- 1.0 -->
      <g transform="translate(461.938778 370.036562) scale(0.1 -0.1)">
       <defs>
        <path id="DejaVuSans-31" d="M 794 531 
L 1825 531 
L 1825 4091 
L 703 3866 
L 703 4441 
L 1819 4666 
L 2450 4666 
L 2450 531 
L 3481 531 
L 3481 0 
L 794 0 
L 794 531 
z
" transform="scale(0.015625)"/>
       </defs>
       <use xlink:href="#DejaVuSans-31"/>
       <use xlink:href="#DejaVuSans-2e" transform="translate(63.623047 0)"/>
       <use xlink:href="#DejaVuSans-30" transform="translate(95.410156 0)"/>
      </g>
     </g>
    </g>
    <g id="text_7">
     <!-- False Positive Rate -->
     <g transform="translate(220.514844 383.714687) scale(0.1 -0.1)">
      <defs>
       <path id="DejaVuSans-46" d="M 628 4666 
L 3309 4666 
L 3309 4134 
L 1259 4134 
L 1259 2759 
L 3109 2759 
L 3109 2228 
L 1259 2228 
L 1259 0 
L 628 0 
L 628 4666 
z
" transform="scale(0.015625)"/>
       <path id="DejaVuSans-61" d="M 2194 1759 
Q 1497 1759 1228 1600 
Q 959 1441 959 1056 
Q 959 750 1161 570 
Q 1363 391 1709 391 
Q 2188 391 2477 730 
Q 2766 1069 2766 1631 
L 2766 1759 
L 2194 1759 
z
M 3341 1997 
L 3341 0 
L 2766 0 
L 2766 531 
Q 2569 213 2275 61 
Q 1981 -91 1556 -91 
Q 1019 -91 701 211 
Q 384 513 384 1019 
Q 384 1609 779 1909 
Q 1175 2209 1959 2209 
L 2766 2209 
L 2766 2266 
Q 2766 2663 2505 2880 
Q 2244 3097 1772 3097 
Q 1472 3097 1187 3025 
Q 903 2953 641 2809 
L 641 3341 
Q 956 3463 1253 3523 
Q 1550 3584 1831 3584 
Q 2591 3584 2966 3190 
Q 3341 2797 3341 1997 
z
" transform="scale(0.015625)"/>
       <path id="DejaVuSans-6c" d="M 603 4863 
L 1178 4863 
L 1178 0 
L 603 0 
L 603 4863 
z
" transform="scale(0.015625)"/>
       <path id="DejaVuSans-73" d="M 2834 3397 
L 2834 2853 
Q 2591 2978 2328 3040 
Q 2066 3103 1784 3103 
Q 1356 3103 1142 2972 
Q 928 2841 928 2578 
Q 928 2378 1081 2264 
Q 1234 2150 1697 2047 
L 1894 2003 
Q 2506 1872 2764 1633 
Q 3022 1394 3022 966 
Q 3022 478 2636 193 
Q 2250 -91 1575 -91 
Q 1294 -91 989 -36 
Q 684 19 347 128 
L 347 722 
Q 666 556 975 473 
Q 1284 391 1588 391 
Q 1994 391 2212 530 
Q 2431 669 2431 922 
Q 2431 1156 2273 1281 
Q 2116 1406 1581 1522 
L 1381 1569 
Q 847 1681 609 1914 
Q 372 2147 372 2553 
Q 372 3047 722 3315 
Q 1072 3584 1716 3584 
Q 2034 3584 2315 3537 
Q 2597 3491 2834 3397 
z
" transform="scale(0.015625)"/>
       <path id="DejaVuSans-65" d="M 3597 1894 
L 3597 1613 
L 953 1613 
Q 991 1019 1311 708 
Q 1631 397 2203 397 
Q 2534 397 2845 478 
Q 3156 559 3463 722 
L 3463 178 
Q 3153 47 2828 -22 
Q 2503 -91 2169 -91 
Q 1331 -91 842 396 
Q 353 884 353 1716 
Q 353 2575 817 3079 
Q 1281 3584 2069 3584 
Q 2775 3584 3186 3129 
Q 3597 2675 3597 1894 
z
M 3022 2063 
Q 3016 2534 2758 2815 
Q 2500 3097 2075 3097 
Q 1594 3097 1305 2825 
Q 1016 2553 972 2059 
L 3022 2063 
z
" transform="scale(0.015625)"/>
       <path id="DejaVuSans-20" transform="scale(0.015625)"/>
       <path id="DejaVuSans-50" d="M 1259 4147 
L 1259 2394 
L 2053 2394 
Q 2494 2394 2734 2622 
Q 2975 2850 2975 3272 
Q 2975 3691 2734 3919 
Q 2494 4147 2053 4147 
L 1259 4147 
z
M 628 4666 
L 2053 4666 
Q 2838 4666 3239 4311 
Q 3641 3956 3641 3272 
Q 3641 2581 3239 2228 
Q 2838 1875 2053 1875 
L 1259 1875 
L 1259 0 
L 628 0 
L 628 4666 
z
" transform="scale(0.015625)"/>
       <path id="DejaVuSans-6f" d="M 1959 3097 
Q 1497 3097 1228 2736 
Q 959 2375 959 1747 
Q 959 1119 1226 758 
Q 1494 397 1959 397 
Q 2419 397 2687 759 
Q 2956 1122 2956 1747 
Q 2956 2369 2687 2733 
Q 2419 3097 1959 3097 
z
M 1959 3584 
Q 2709 3584 3137 3096 
Q 3566 2609 3566 1747 
Q 3566 888 3137 398 
Q 2709 -91 1959 -91 
Q 1206 -91 779 398 
Q 353 888 353 1747 
Q 353 2609 779 3096 
Q 1206 3584 1959 3584 
z
" transform="scale(0.015625)"/>
       <path id="DejaVuSans-69" d="M 603 3500 
L 1178 3500 
L 1178 0 
L 603 0 
L 603 3500 
z
M 603 4863 
L 1178 4863 
L 1178 4134 
L 603 4134 
L 603 4863 
z
" transform="scale(0.015625)"/>
       <path id="DejaVuSans-74" d="M 1172 4494 
L 1172 3500 
L 2356 3500 
L 2356 3053 
L 1172 3053 
L 1172 1153 
Q 1172 725 1289 603 
Q 1406 481 1766 481 
L 2356 481 
L 2356 0 
L 1766 0 
Q 1100 0 847 248 
Q 594 497 594 1153 
L 594 3053 
L 172 3053 
L 172 3500 
L 594 3500 
L 594 4494 
L 1172 4494 
z
" transform="scale(0.015625)"/>
       <path id="DejaVuSans-76" d="M 191 3500 
L 800 3500 
L 1894 563 
L 2988 3500 
L 3597 3500 
L 2284 0 
L 1503 0 
L 191 3500 
z
" transform="scale(0.015625)"/>
       <path id="DejaVuSans-52" d="M 2841 2188 
Q 3044 2119 3236 1894 
Q 3428 1669 3622 1275 
L 4263 0 
L 3584 0 
L 2988 1197 
Q 2756 1666 2539 1819 
Q 2322 1972 1947 1972 
L 1259 1972 
L 1259 0 
L 628 0 
L 628 4666 
L 2053 4666 
Q 2853 4666 3247 4331 
Q 3641 3997 3641 3322 
Q 3641 2881 3436 2590 
Q 3231 2300 2841 2188 
z
M 1259 4147 
L 1259 2491 
L 2053 2491 
Q 2509 2491 2742 2702 
Q 2975 2913 2975 3322 
Q 2975 3731 2742 3939 
Q 2509 4147 2053 4147 
L 1259 4147 
z
" transform="scale(0.015625)"/>
      </defs>
      <use xlink:href="#DejaVuSans-46"/>
      <use xlink:href="#DejaVuSans-61" transform="translate(48.394531 0)"/>
      <use xlink:href="#DejaVuSans-6c" transform="translate(109.673828 0)"/>
      <use xlink:href="#DejaVuSans-73" transform="translate(137.457031 0)"/>
      <use xlink:href="#DejaVuSans-65" transform="translate(189.556641 0)"/>
      <use xlink:href="#DejaVuSans-20" transform="translate(251.080078 0)"/>
      <use xlink:href="#DejaVuSans-50" transform="translate(282.867188 0)"/>
      <use xlink:href="#DejaVuSans-6f" transform="translate(339.544922 0)"/>
      <use xlink:href="#DejaVuSans-73" transform="translate(400.726562 0)"/>
      <use xlink:href="#DejaVuSans-69" transform="translate(452.826172 0)"/>
      <use xlink:href="#DejaVuSans-74" transform="translate(480.609375 0)"/>
      <use xlink:href="#DejaVuSans-69" transform="translate(519.818359 0)"/>
      <use xlink:href="#DejaVuSans-76" transform="translate(547.601562 0)"/>
      <use xlink:href="#DejaVuSans-65" transform="translate(606.78125 0)"/>
      <use xlink:href="#DejaVuSans-20" transform="translate(668.304688 0)"/>
      <use xlink:href="#DejaVuSans-52" transform="translate(700.091797 0)"/>
      <use xlink:href="#DejaVuSans-61" transform="translate(767.324219 0)"/>
      <use xlink:href="#DejaVuSans-74" transform="translate(828.603516 0)"/>
      <use xlink:href="#DejaVuSans-65" transform="translate(867.8125 0)"/>
     </g>
    </g>
   </g>
   <g id="matplotlib.axis_2">
    <g id="ytick_1">
     <g id="line2d_13">
      <path d="M 43.78125 340.318125 
L 490.18125 340.318125 
" clip-path="url(#pd2a6302fda)" style="fill: none; stroke: #b0b0b0; stroke-width: 0.8; stroke-linecap: square"/>
     </g>
     <g id="line2d_14">
      <defs>
       <path id="mb84cee7f7d" d="M 0 0 
L -3.5 0 
" style="stroke: #000000; stroke-width: 0.8"/>
      </defs>
      <g>
       <use xlink:href="#mb84cee7f7d" x="43.78125" y="340.318125" style="stroke: #000000; stroke-width: 0.8"/>
      </g>
     </g>
     <g id="text_8">
      <!-- 0.0 -->
      <g transform="translate(20.878125 344.117344) scale(0.1 -0.1)">
       <use xlink:href="#DejaVuSans-30"/>
       <use xlink:href="#DejaVuSans-2e" transform="translate(63.623047 0)"/>
       <use xlink:href="#DejaVuSans-30" transform="translate(95.410156 0)"/>
      </g>
     </g>
    </g>
    <g id="ytick_2">
     <g id="line2d_15">
      <path d="M 43.78125 279.838125 
L 490.18125 279.838125 
" clip-path="url(#pd2a6302fda)" style="fill: none; stroke: #b0b0b0; stroke-width: 0.8; stroke-linecap: square"/>
     </g>
     <g id="line2d_16">
      <g>
       <use xlink:href="#mb84cee7f7d" x="43.78125" y="279.838125" style="stroke: #000000; stroke-width: 0.8"/>
      </g>
     </g>
     <g id="text_9">
      <!-- 0.2 -->
      <g transform="translate(20.878125 283.637344) scale(0.1 -0.1)">
       <use xlink:href="#DejaVuSans-30"/>
       <use xlink:href="#DejaVuSans-2e" transform="translate(63.623047 0)"/>
       <use xlink:href="#DejaVuSans-32" transform="translate(95.410156 0)"/>
      </g>
     </g>
    </g>
    <g id="ytick_3">
     <g id="line2d_17">
      <path d="M 43.78125 219.358125 
L 490.18125 219.358125 
" clip-path="url(#pd2a6302fda)" style="fill: none; stroke: #b0b0b0; stroke-width: 0.8; stroke-linecap: square"/>
     </g>
     <g id="line2d_18">
      <g>
       <use xlink:href="#mb84cee7f7d" x="43.78125" y="219.358125" style="stroke: #000000; stroke-width: 0.8"/>
      </g>
     </g>
     <g id="text_10">
      <!-- 0.4 -->
      <g transform="translate(20.878125 223.157344) scale(0.1 -0.1)">
       <use xlink:href="#DejaVuSans-30"/>
       <use xlink:href="#DejaVuSans-2e" transform="translate(63.623047 0)"/>
       <use xlink:href="#DejaVuSans-34" transform="translate(95.410156 0)"/>
      </g>
     </g>
    </g>
    <g id="ytick_4">
     <g id="line2d_19">
      <path d="M 43.78125 158.878125 
L 490.18125 158.878125 
" clip-path="url(#pd2a6302fda)" style="fill: none; stroke: #b0b0b0; stroke-width: 0.8; stroke-linecap: square"/>
     </g>
     <g id="line2d_20">
      <g>
       <use xlink:href="#mb84cee7f7d" x="43.78125" y="158.878125" style="stroke: #000000; stroke-width: 0.8"/>
      </g>
     </g>
     <g id="text_11">
      <!-- 0.6 -->
      <g transform="translate(20.878125 162.677344) scale(0.1 -0.1)">
       <use xlink:href="#DejaVuSans-30"/>
       <use xlink:href="#DejaVuSans-2e" transform="translate(63.623047 0)"/>
       <use xlink:href="#DejaVuSans-36" transform="translate(95.410156 0)"/>
      </g>
     </g>
    </g>
    <g id="ytick_5">
     <g id="line2d_21">
      <path d="M 43.78125 98.398125 
L 490.18125 98.398125 
" clip-path="url(#pd2a6302fda)" style="fill: none; stroke: #b0b0b0; stroke-width: 0.8; stroke-linecap: square"/>
     </g>
     <g id="line2d_22">
      <g>
       <use xlink:href="#mb84cee7f7d" x="43.78125" y="98.398125" style="stroke: #000000; stroke-width: 0.8"/>
      </g>
     </g>
     <g id="text_12">
      <!-- 0.8 -->
      <g transform="translate(20.878125 102.197344) scale(0.1 -0.1)">
       <use xlink:href="#DejaVuSans-30"/>
       <use xlink:href="#DejaVuSans-2e" transform="translate(63.623047 0)"/>
       <use xlink:href="#DejaVuSans-38" transform="translate(95.410156 0)"/>
      </g>
     </g>
    </g>
    <g id="ytick_6">
     <g id="line2d_23">
      <path d="M 43.78125 37.918125 
L 490.18125 37.918125 
" clip-path="url(#pd2a6302fda)" style="fill: none; stroke: #b0b0b0; stroke-width: 0.8; stroke-linecap: square"/>
     </g>
     <g id="line2d_24">
      <g>
       <use xlink:href="#mb84cee7f7d" x="43.78125" y="37.918125" style="stroke: #000000; stroke-width: 0.8"/>
      </g>
     </g>
     <g id="text_13">
      <!-- 1.0 -->
      <g transform="translate(20.878125 41.717344) scale(0.1 -0.1)">
       <use xlink:href="#DejaVuSans-31"/>
       <use xlink:href="#DejaVuSans-2e" transform="translate(63.623047 0)"/>
       <use xlink:href="#DejaVuSans-30" transform="translate(95.410156 0)"/>
      </g>
     </g>
    </g>
    <g id="text_14">
     <!-- True Positive Rate -->
     <g transform="translate(14.798438 233.647812) rotate(-90) scale(0.1 -0.1)">
      <defs>
       <path id="DejaVuSans-54" d="M -19 4666 
L 3928 4666 
L 3928 4134 
L 2272 4134 
L 2272 0 
L 1638 0 
L 1638 4134 
L -19 4134 
L -19 4666 
z
" transform="scale(0.015625)"/>
       <path id="DejaVuSans-72" d="M 2631 2963 
Q 2534 3019 2420 3045 
Q 2306 3072 2169 3072 
Q 1681 3072 1420 2755 
Q 1159 2438 1159 1844 
L 1159 0 
L 581 0 
L 581 3500 
L 1159 3500 
L 1159 2956 
Q 1341 3275 1631 3429 
Q 1922 3584 2338 3584 
Q 2397 3584 2469 3576 
Q 2541 3569 2628 3553 
L 2631 2963 
z
" transform="scale(0.015625)"/>
       <path id="DejaVuSans-75" d="M 544 1381 
L 544 3500 
L 1119 3500 
L 1119 1403 
Q 1119 906 1312 657 
Q 1506 409 1894 409 
Q 2359 409 2629 706 
Q 2900 1003 2900 1516 
L 2900 3500 
L 3475 3500 
L 3475 0 
L 2900 0 
L 2900 538 
Q 2691 219 2414 64 
Q 2138 -91 1772 -91 
Q 1169 -91 856 284 
Q 544 659 544 1381 
z
M 1991 3584 
L 1991 3584 
z
" transform="scale(0.015625)"/>
      </defs>
      <use xlink:href="#DejaVuSans-54"/>
      <use xlink:href="#DejaVuSans-72" transform="translate(46.333984 0)"/>
      <use xlink:href="#DejaVuSans-75" transform="translate(87.447266 0)"/>
      <use xlink:href="#DejaVuSans-65" transform="translate(150.826172 0)"/>
      <use xlink:href="#DejaVuSans-20" transform="translate(212.349609 0)"/>
      <use xlink:href="#DejaVuSans-50" transform="translate(244.136719 0)"/>
      <use xlink:href="#DejaVuSans-6f" transform="translate(300.814453 0)"/>
      <use xlink:href="#DejaVuSans-73" transform="translate(361.996094 0)"/>
      <use xlink:href="#DejaVuSans-69" transform="translate(414.095703 0)"/>
      <use xlink:href="#DejaVuSans-74" transform="translate(441.878906 0)"/>
      <use xlink:href="#DejaVuSans-69" transform="translate(481.087891 0)"/>
      <use xlink:href="#DejaVuSans-76" transform="translate(508.871094 0)"/>
      <use xlink:href="#DejaVuSans-65" transform="translate(568.050781 0)"/>
      <use xlink:href="#DejaVuSans-20" transform="translate(629.574219 0)"/>
      <use xlink:href="#DejaVuSans-52" transform="translate(661.361328 0)"/>
      <use xlink:href="#DejaVuSans-61" transform="translate(728.59375 0)"/>
      <use xlink:href="#DejaVuSans-74" transform="translate(789.873047 0)"/>
      <use xlink:href="#DejaVuSans-65" transform="translate(829.082031 0)"/>
     </g>
    </g>
   </g>
   <g id="line2d_25">
    <path d="M 64.072159 340.318125 
L 64.072159 256.348615 
L 64.323907 256.348615 
L 64.323907 251.958052 
L 64.575656 251.958052 
L 64.575656 219.028833 
L 64.827404 219.028833 
L 64.827404 211.345348 
L 65.079152 211.345348 
L 65.079152 202.015403 
L 65.3309 202.015403 
L 65.3309 165.793261 
L 65.582649 165.793261 
L 65.582649 163.59798 
L 65.834397 163.59798 
L 65.834397 162.500339 
L 66.086145 162.500339 
L 66.086145 137.803424 
L 66.337893 137.803424 
L 66.337893 133.961682 
L 66.589642 133.961682 
L 66.589642 115.850611 
L 67.093138 115.850611 
L 67.093138 112.008869 
L 67.344886 112.008869 
L 67.344886 99.386002 
L 67.596635 99.386002 
L 67.596635 98.837181 
L 67.848383 98.837181 
L 67.848383 98.288361 
L 68.100131 98.288361 
L 68.100131 97.739541 
L 68.855376 97.739541 
L 68.855376 93.897798 
L 69.107124 93.897798 
L 69.107124 92.800158 
L 69.610621 92.800158 
L 69.610621 91.702517 
L 69.862369 91.702517 
L 69.862369 91.153697 
L 70.365865 91.153697 
L 70.365865 90.056056 
L 71.12111 90.056056 
L 71.12111 89.507236 
L 71.372858 89.507236 
L 71.372858 87.311954 
L 72.379851 87.311954 
L 72.379851 84.567853 
L 73.135096 84.567853 
L 73.135096 84.019032 
L 73.638593 84.019032 
L 73.638593 81.274931 
L 73.890341 81.274931 
L 73.890341 80.72611 
L 74.393837 80.72611 
L 74.393837 79.07965 
L 75.40083 79.07965 
L 75.40083 78.530829 
L 75.652579 78.530829 
L 75.652579 77.433189 
L 76.91132 77.433189 
L 76.91132 76.884368 
L 77.414816 76.884368 
L 77.414816 76.335548 
L 78.673558 76.335548 
L 78.673558 75.786728 
L 79.428802 75.786728 
L 79.428802 75.237907 
L 79.932299 75.237907 
L 79.932299 74.689087 
L 81.694537 74.689087 
L 81.694537 74.140267 
L 82.70153 74.140267 
L 82.70153 73.591446 
L 84.715516 73.591446 
L 84.715516 73.042626 
L 85.47076 73.042626 
L 85.47076 71.944985 
L 86.477753 71.944985 
L 86.477753 71.396165 
L 89.498733 71.396165 
L 89.498733 70.847345 
L 90.002229 70.847345 
L 90.002229 69.749704 
L 90.757474 69.749704 
L 90.757474 69.200884 
L 91.26097 69.200884 
L 91.26097 68.652063 
L 93.023208 68.652063 
L 93.023208 68.103243 
L 93.274956 68.103243 
L 93.274956 67.554423 
L 93.526705 67.554423 
L 93.526705 65.907962 
L 97.554677 65.907962 
L 97.554677 64.810321 
L 98.56167 64.810321 
L 98.56167 64.261501 
L 99.316914 64.261501 
L 99.316914 62.61504 
L 100.323907 62.61504 
L 100.323907 62.066219 
L 103.596635 62.066219 
L 103.596635 61.517399 
L 104.100131 61.517399 
L 104.100131 60.968579 
L 105.862369 60.968579 
L 105.862369 60.419758 
L 106.869362 60.419758 
L 106.869362 59.322118 
L 107.624607 59.322118 
L 107.624607 58.773297 
L 108.128103 58.773297 
L 108.128103 58.224477 
L 111.904327 58.224477 
L 111.904327 57.675657 
L 121.974257 57.675657 
L 121.974257 57.126836 
L 123.988243 57.126836 
L 123.988243 56.578016 
L 126.505726 56.578016 
L 126.505726 56.029196 
L 131.288942 56.029196 
L 131.288942 54.931555 
L 131.792439 54.931555 
L 131.792439 54.382735 
L 136.072159 54.382735 
L 136.072159 53.833914 
L 136.827404 53.833914 
L 136.827404 53.285094 
L 139.344886 53.285094 
L 139.344886 52.736274 
L 140.855376 52.736274 
L 140.855376 52.187453 
L 142.869362 52.187453 
L 142.869362 51.638633 
L 145.386844 51.638633 
L 145.386844 51.089813 
L 149.918313 51.089813 
L 149.918313 50.540993 
L 154.449781 50.540993 
L 154.449781 49.992172 
L 159.988243 49.992172 
L 159.988243 49.443352 
L 161.246984 49.443352 
L 161.246984 48.894532 
L 178.365865 48.894532 
L 178.365865 47.796891 
L 179.12111 47.796891 
L 179.12111 47.248071 
L 179.372858 47.248071 
L 179.372858 46.69925 
L 179.876355 46.69925 
L 179.876355 46.15043 
L 192.463767 46.15043 
L 192.967264 45.60161 
L 201.778453 45.60161 
L 201.778453 45.052789 
L 210.589642 45.052789 
L 210.589642 44.503969 
L 229.974257 44.503969 
L 229.974257 43.955149 
L 230.226005 43.955149 
L 230.226005 43.406328 
L 252.379851 43.406328 
L 252.379851 42.857508 
L 255.652579 42.857508 
L 255.652579 42.308688 
L 256.91132 42.308688 
L 256.91132 41.759867 
L 262.449781 41.759867 
L 262.449781 41.211047 
L 278.56167 41.211047 
L 278.56167 40.662227 
L 300.715516 40.662227 
L 300.715516 40.113406 
L 319.848383 40.113406 
L 319.848383 39.564586 
L 347.288942 39.564586 
L 347.288942 39.015766 
L 379.764467 39.015766 
L 379.764467 38.466945 
L 412.49174 38.466945 
L 412.49174 37.918125 
L 469.890341 37.918125 
L 469.890341 37.918125 
" clip-path="url(#pd2a6302fda)" style="fill: none; stroke: #1f77b4; stroke-width: 2; stroke-linecap: square"/>
   </g>
   <g id="line2d_26">
    <path d="M 64.072159 340.318125 
L 64.072159 190.984792 
L 64.355156 190.984792 
L 64.355156 177.710718 
L 64.638154 177.710718 
L 64.638154 174.392199 
L 64.921151 174.392199 
L 64.921151 168.999606 
L 65.204148 168.999606 
L 65.204148 161.947755 
L 65.487146 161.947755 
L 65.487146 160.70331 
L 65.770143 160.70331 
L 65.770143 151.992199 
L 66.05314 151.992199 
L 66.05314 148.673681 
L 66.619135 148.673681 
L 66.619135 146.184792 
L 66.902132 146.184792 
L 66.902132 145.769977 
L 67.468127 145.769977 
L 67.468127 141.621829 
L 67.751124 141.621829 
L 67.751124 139.962569 
L 68.034122 139.962569 
L 68.034122 138.30331 
L 68.317119 138.30331 
L 68.317119 137.473681 
L 68.600116 137.473681 
L 68.600116 135.814421 
L 68.883114 135.814421 
L 68.883114 131.251458 
L 69.166111 131.251458 
L 69.166111 130.836644 
L 69.449109 130.836644 
L 69.449109 126.273681 
L 69.732106 126.273681 
L 69.732106 120.051458 
L 70.015103 120.051458 
L 70.015103 117.147755 
L 70.298101 117.147755 
L 70.298101 110.925532 
L 70.581098 110.925532 
L 70.581098 106.777384 
L 70.864095 106.777384 
L 70.864095 105.947755 
L 71.147093 105.947755 
L 71.147093 104.70331 
L 71.43009 104.70331 
L 71.43009 103.458866 
L 71.713087 103.458866 
L 71.713087 103.044051 
L 71.996085 103.044051 
L 71.996085 95.162569 
L 72.279082 95.162569 
L 72.279082 94.747755 
L 72.562079 94.747755 
L 72.562079 94.33294 
L 72.845077 94.33294 
L 72.845077 93.50331 
L 73.128074 93.50331 
L 73.128074 92.258866 
L 73.411071 92.258866 
L 73.411071 91.844051 
L 73.694069 91.844051 
L 73.694069 91.429236 
L 73.977066 91.429236 
L 73.977066 90.599606 
L 74.260063 90.599606 
L 74.260063 86.036644 
L 74.826058 86.036644 
L 74.826058 84.377384 
L 75.109055 84.377384 
L 75.109055 83.962569 
L 75.958047 83.962569 
L 75.958047 83.13294 
L 76.241045 83.13294 
L 76.241045 82.718125 
L 76.524042 82.718125 
L 76.524042 81.888495 
L 77.373034 81.888495 
L 77.373034 81.058866 
L 77.656031 81.058866 
L 77.656031 80.229236 
L 77.939029 80.229236 
L 77.939029 78.155162 
L 78.222026 78.155162 
L 78.222026 76.910718 
L 78.505023 76.910718 
L 78.505023 74.421829 
L 79.637013 74.421829 
L 79.637013 74.007014 
L 80.203007 74.007014 
L 80.203007 73.177384 
L 81.617994 73.177384 
L 81.617994 72.762569 
L 81.900991 72.762569 
L 81.900991 71.518125 
L 83.315978 71.518125 
L 83.315978 71.10331 
L 83.881973 71.10331 
L 83.881973 70.273681 
L 84.447967 70.273681 
L 84.447967 69.858866 
L 84.730965 69.858866 
L 84.730965 69.029236 
L 85.013962 69.029236 
L 85.013962 68.199606 
L 85.862954 68.199606 
L 85.862954 67.784792 
L 86.145951 67.784792 
L 86.145951 65.710718 
L 86.428949 65.710718 
L 86.428949 65.295903 
L 87.560938 65.295903 
L 87.560938 63.221829 
L 88.975925 63.221829 
L 88.975925 62.807014 
L 89.824917 62.807014 
L 89.824917 62.392199 
L 90.107914 62.392199 
L 90.107914 61.562569 
L 90.673909 61.562569 
L 90.673909 59.488495 
L 91.805898 59.488495 
L 91.805898 58.244051 
L 92.088895 58.244051 
L 92.088895 57.829236 
L 93.503882 57.829236 
L 93.503882 56.584792 
L 94.918869 56.584792 
L 94.918869 56.169977 
L 95.767861 56.169977 
L 95.767861 55.755162 
L 96.333856 55.755162 
L 96.333856 54.925532 
L 96.616853 54.925532 
L 96.616853 54.510718 
L 97.182848 54.510718 
L 97.182848 54.095903 
L 97.465845 54.095903 
L 97.465845 53.266273 
L 97.748842 53.266273 
L 97.748842 52.851458 
L 98.597834 52.851458 
L 98.597834 52.436644 
L 101.427808 52.436644 
L 101.427808 51.607014 
L 101.710805 51.607014 
L 101.710805 50.777384 
L 102.559797 50.777384 
L 102.559797 50.362569 
L 104.257781 50.362569 
L 104.257781 49.53294 
L 107.370752 49.53294 
L 107.370752 48.70331 
L 109.63473 48.70331 
L 109.63473 48.288495 
L 110.76672 48.288495 
L 110.76672 47.873681 
L 113.313696 47.873681 
L 113.313696 47.458866 
L 113.596693 47.458866 
L 113.596693 47.044051 
L 114.445685 47.044051 
L 114.445685 46.629236 
L 115.860672 46.629236 
L 115.860672 46.214421 
L 118.124651 46.214421 
L 118.124651 45.799606 
L 123.5016 45.799606 
L 123.5016 44.969977 
L 126.614571 44.969977 
L 126.614571 44.140347 
L 133.689504 44.140347 
L 133.689504 43.725532 
L 140.48144 43.725532 
L 140.48144 43.310718 
L 144.160406 43.310718 
L 144.160406 42.895903 
L 150.386347 42.895903 
L 150.386347 42.481088 
L 161.989238 42.481088 
L 161.989238 42.066273 
L 165.385206 42.066273 
L 165.385206 41.651458 
L 167.932182 41.651458 
L 167.932182 41.236644 
L 168.215179 41.236644 
L 168.215179 40.407014 
L 192.835948 40.407014 
L 192.835948 39.992199 
L 206.41982 39.992199 
L 206.41982 39.577384 
L 211.230775 39.577384 
L 211.230775 39.162569 
L 212.362764 39.162569 
L 212.362764 38.747755 
L 212.645761 38.747755 
L 212.645761 38.33294 
L 222.833665 38.33294 
L 222.833665 37.918125 
L 469.890341 37.918125 
L 469.890341 37.918125 
" clip-path="url(#pd2a6302fda)" style="fill: none; stroke: #ff7f0e; stroke-width: 2; stroke-linecap: square"/>
   </g>
   <g id="line2d_27">
    <path d="M 64.072159 340.318125 
L 64.072159 302.263294 
L 64.308375 302.263294 
L 64.308375 292.749586 
L 64.54459 292.749586 
L 64.54459 234.987788 
L 64.780806 234.987788 
L 64.780806 233.628687 
L 65.017021 233.628687 
L 65.017021 230.910485 
L 65.253236 230.910485 
L 65.253236 225.47408 
L 65.489452 225.47408 
L 65.489452 194.214754 
L 65.725667 194.214754 
L 65.725667 185.380597 
L 65.961883 185.380597 
L 65.961883 178.585091 
L 66.198098 178.585091 
L 66.198098 171.110035 
L 66.670529 171.110035 
L 66.670529 155.480372 
L 66.906745 155.480372 
L 66.906745 154.121271 
L 67.14296 154.121271 
L 67.14296 139.850709 
L 67.379176 139.850709 
L 67.379176 139.171159 
L 67.615391 139.171159 
L 67.615391 138.491608 
L 67.851607 138.491608 
L 67.851607 131.016552 
L 68.087822 131.016552 
L 68.087822 128.9779 
L 68.560253 128.9779 
L 68.560253 124.900597 
L 68.796469 124.900597 
L 68.796469 123.541496 
L 69.268899 123.541496 
L 69.268899 122.182395 
L 69.74133 122.182395 
L 69.74133 121.502844 
L 69.977546 121.502844 
L 69.977546 120.823294 
L 71.158623 120.823294 
L 71.158623 116.06644 
L 71.631054 116.06644 
L 71.631054 115.386889 
L 71.86727 115.386889 
L 71.86727 113.348237 
L 72.339701 113.348237 
L 72.339701 110.630035 
L 72.812132 110.630035 
L 72.812132 109.950485 
L 73.048347 109.950485 
L 73.048347 109.270934 
L 73.284563 109.270934 
L 73.284563 107.911833 
L 73.520778 107.911833 
L 73.520778 105.873181 
L 73.993209 105.873181 
L 73.993209 101.795878 
L 74.229424 101.795878 
L 74.229424 100.436777 
L 74.938071 100.436777 
L 74.938071 99.757226 
L 75.174286 99.757226 
L 75.174286 99.077676 
L 75.410502 99.077676 
L 75.410502 98.398125 
L 75.882933 98.398125 
L 75.882933 97.718574 
L 76.355364 97.718574 
L 76.355364 96.359473 
L 76.591579 96.359473 
L 76.591579 95.679923 
L 76.827795 95.679923 
L 76.827795 94.320822 
L 77.06401 94.320822 
L 77.06401 92.961721 
L 78.008872 92.961721 
L 78.008872 91.602619 
L 80.134811 91.602619 
L 80.134811 88.884417 
L 82.26075 88.884417 
L 82.26075 88.204867 
L 82.969397 88.204867 
L 82.969397 87.525316 
L 83.914259 87.525316 
L 83.914259 86.166215 
L 84.150474 86.166215 
L 84.150474 83.448013 
L 84.38669 83.448013 
L 84.38669 82.768462 
L 84.622905 82.768462 
L 84.622905 82.088912 
L 85.331552 82.088912 
L 85.331552 81.409361 
L 86.040198 81.409361 
L 86.040198 80.05026 
L 86.512629 80.05026 
L 86.512629 78.011608 
L 86.748844 78.011608 
L 86.748844 77.332058 
L 87.221275 77.332058 
L 87.221275 76.652507 
L 87.693706 76.652507 
L 87.693706 75.293406 
L 88.874784 75.293406 
L 88.874784 74.613855 
L 89.110999 74.613855 
L 89.110999 73.254754 
L 89.58343 72.575204 
L 89.819646 72.575204 
L 89.819646 71.895653 
L 90.292077 71.895653 
L 90.292077 71.216103 
L 92.1818 71.216103 
L 92.1818 69.857001 
L 93.362878 69.857001 
L 93.362878 69.177451 
L 95.016386 69.177451 
L 95.016386 68.4979 
L 95.725032 68.4979 
L 95.725032 67.81835 
L 95.961248 67.81835 
L 95.961248 67.138799 
L 98.323403 67.138799 
L 98.323403 66.459249 
L 98.559618 66.459249 
L 98.559618 65.779698 
L 99.740695 65.779698 
L 99.740695 65.100147 
L 100.449342 65.100147 
L 100.449342 64.420597 
L 101.394204 64.420597 
L 101.394204 63.741046 
L 103.520143 63.741046 
L 103.520143 62.381945 
L 103.756358 62.381945 
L 103.756358 61.702395 
L 105.882298 61.702395 
L 105.882298 61.022844 
L 107.063375 61.022844 
L 107.063375 60.343294 
L 108.480668 60.343294 
L 108.480668 59.663743 
L 110.134176 59.663743 
L 110.134176 58.984192 
L 112.732546 58.984192 
L 112.732546 58.304642 
L 112.968762 58.304642 
L 112.968762 57.625091 
L 115.803348 57.625091 
L 115.803348 56.945541 
L 116.748209 56.945541 
L 116.748209 56.26599 
L 118.401718 56.26599 
L 118.401718 55.58644 
L 120.291442 55.58644 
L 120.291442 54.227338 
L 122.417381 54.227338 
L 122.653596 53.547788 
L 123.598458 53.547788 
L 123.598458 52.868237 
L 127.850337 52.868237 
L 127.850337 52.188687 
L 128.558983 52.188687 
L 128.558983 51.509136 
L 130.921138 51.509136 
L 130.921138 50.829586 
L 133.519508 50.829586 
L 133.519508 50.150035 
L 135.173016 50.150035 
L 135.173016 49.470485 
L 137.06274 49.470485 
L 137.06274 48.790934 
L 138.007602 48.790934 
L 138.007602 48.111383 
L 142.259481 48.111383 
L 142.259481 46.752282 
L 145.094066 46.752282 
L 145.094066 46.072732 
L 147.220005 46.072732 
L 147.220005 45.393181 
L 148.873514 45.393181 
L 148.873514 44.713631 
L 154.542685 44.713631 
L 154.542685 44.03408 
L 171.313984 44.03408 
L 171.313984 43.354529 
L 176.510724 43.354529 
L 176.510724 42.674979 
L 176.983155 42.674979 
L 176.983155 41.995428 
L 179.581525 41.995428 
L 179.581525 41.315878 
L 187.376636 41.315878 
L 187.376636 40.636327 
L 189.975006 40.636327 
L 189.975006 39.956777 
L 208.163597 39.956777 
L 208.163597 39.277226 
L 209.817106 39.277226 
L 209.817106 38.597676 
L 218.557078 38.597676 
L 218.557078 37.918125 
L 469.890341 37.918125 
L 469.890341 37.918125 
" clip-path="url(#pd2a6302fda)" style="fill: none; stroke: #d62728; stroke-width: 2; stroke-linecap: square"/>
   </g>
   <g id="line2d_28">
    <path d="M 64.072159 340.318125 
L 64.072159 279.838125 
L 64.313287 279.838125 
L 64.313287 180.928125 
L 64.554415 180.928125 
L 64.554415 173.998125 
L 64.795543 173.998125 
L 64.795543 145.018125 
L 65.036671 145.018125 
L 65.036671 138.088125 
L 65.277798 138.088125 
L 65.277798 100.918125 
L 65.518926 100.918125 
L 65.518926 96.508125 
L 66.001182 96.508125 
L 66.001182 90.838125 
L 66.24231 90.838125 
L 66.24231 85.798125 
L 66.483438 85.798125 
L 66.483438 85.168125 
L 66.965693 85.168125 
L 66.965693 83.278125 
L 67.206821 83.278125 
L 67.206821 80.128125 
L 67.447949 80.128125 
L 67.447949 73.198125 
L 67.689077 73.198125 
L 67.689077 71.308125 
L 68.412461 71.308125 
L 68.412461 69.418125 
L 68.653588 69.418125 
L 68.653588 68.158125 
L 69.135844 68.158125 
L 69.135844 65.638125 
L 69.376972 65.638125 
L 69.376972 65.008125 
L 69.6181 65.008125 
L 69.6181 64.378125 
L 70.100355 64.378125 
L 70.100355 63.748125 
L 71.305995 63.748125 
L 71.305995 62.488125 
L 71.78825 62.488125 
L 71.78825 61.858125 
L 72.029378 61.858125 
L 72.029378 61.228125 
L 72.99389 61.228125 
L 72.99389 59.968125 
L 73.235018 59.968125 
L 73.235018 59.338125 
L 74.681785 59.338125 
L 74.681785 58.708125 
L 75.405168 58.708125 
L 75.405168 58.078125 
L 75.887424 58.078125 
L 75.887424 56.818125 
L 76.128552 56.818125 
L 76.128552 56.188125 
L 76.610808 56.188125 
L 76.610808 55.558125 
L 78.53983 55.558125 
L 78.53983 54.928125 
L 78.780958 54.928125 
L 78.780958 54.298125 
L 79.504342 54.298125 
L 79.504342 53.668125 
L 81.674493 53.668125 
L 81.674493 53.038125 
L 81.91562 53.038125 
L 81.91562 52.408125 
L 86.255922 52.408125 
L 86.255922 51.778125 
L 87.461561 51.778125 
L 87.461561 51.148125 
L 88.184945 51.148125 
L 88.184945 50.518125 
L 89.631712 50.518125 
L 89.631712 49.258125 
L 93.489758 49.258125 
L 93.489758 48.628125 
L 94.213141 48.628125 
L 94.213141 47.998125 
L 95.901036 47.998125 
L 95.901036 47.368125 
L 99.276826 47.368125 
L 99.276826 46.738125 
L 100.723593 46.738125 
L 100.723593 46.108125 
L 103.376 46.108125 
L 103.376 45.478125 
L 108.439685 45.478125 
L 108.439685 44.848125 
L 122.183972 44.848125 
L 122.183972 44.218125 
L 128.694425 44.218125 
L 128.694425 43.588125 
L 129.417808 43.588125 
L 129.417808 42.958125 
L 140.027434 42.958125 
L 140.027434 42.328125 
L 147.743525 42.328125 
L 147.743525 41.698125 
L 168.239393 41.698125 
L 168.239393 41.068125 
L 181.742553 41.068125 
L 181.742553 40.438125 
L 199.827142 40.438125 
L 199.827142 39.808125 
L 206.81985 39.808125 
L 206.81985 39.178125 
L 220.564138 39.178125 
L 220.564138 38.548125 
L 234.549553 38.548125 
L 234.549553 37.918125 
L 469.890341 37.918125 
L 469.890341 37.918125 
" clip-path="url(#pd2a6302fda)" style="fill: none; stroke: #8c564b; stroke-width: 2; stroke-linecap: square"/>
   </g>
   <g id="line2d_29">
    <path d="M 64.072159 340.318125 
L 64.072159 195.62913 
L 64.279845 195.62913 
L 64.279845 176.81956 
L 64.487531 176.81956 
L 64.487531 175.37267 
L 64.695217 175.37267 
L 64.695217 149.328651 
L 64.902903 149.328651 
L 64.902903 130.519082 
L 65.110588 130.519082 
L 65.110588 120.390852 
L 65.318274 120.390852 
L 65.318274 118.943962 
L 65.52596 118.943962 
L 65.52596 117.497072 
L 65.733646 117.497072 
L 65.733646 114.603292 
L 65.941332 114.603292 
L 65.941332 113.156403 
L 66.356704 113.156403 
L 66.356704 100.134393 
L 66.564389 100.134393 
L 66.564389 94.346833 
L 67.187447 94.346833 
L 67.187447 92.899943 
L 67.395133 92.899943 
L 67.395133 91.453053 
L 68.018191 91.453053 
L 68.018191 87.112383 
L 68.433562 87.112383 
L 68.433562 85.665493 
L 68.848934 85.665493 
L 68.848934 84.218603 
L 69.679677 84.218603 
L 69.679677 81.324824 
L 70.510421 81.324824 
L 70.510421 75.537264 
L 70.718107 75.537264 
L 70.718107 74.090374 
L 71.964222 74.090374 
L 71.964222 72.643484 
L 72.171908 72.643484 
L 72.171908 71.196594 
L 72.379594 71.196594 
L 72.379594 66.855924 
L 72.58728 66.855924 
L 72.58728 62.515254 
L 73.210337 62.515254 
L 73.210337 61.068364 
L 75.07951 61.068364 
L 75.07951 59.621474 
L 76.533311 59.621474 
L 76.533311 58.174584 
L 78.817856 58.174584 
L 78.817856 56.727694 
L 80.687028 56.727694 
L 80.687028 53.833914 
L 84.217688 53.833914 
L 84.217688 52.387025 
L 92.317437 52.387025 
L 92.317437 50.940135 
L 99.586442 50.940135 
L 99.586442 49.493245 
L 121.393458 49.493245 
L 121.393458 48.046355 
L 125.131804 48.046355 
L 125.131804 46.599465 
L 186.814506 46.599465 
L 186.814506 45.152575 
L 201.767888 45.152575 
L 201.767888 43.705685 
L 212.359867 43.705685 
L 212.359867 42.258795 
L 228.767051 42.258795 
L 228.767051 40.811905 
L 228.974737 40.811905 
L 228.974737 39.365015 
L 278.196287 39.365015 
L 278.196287 37.918125 
L 469.890341 37.918125 
L 469.890341 37.918125 
" clip-path="url(#pd2a6302fda)" style="fill: none; stroke: #e377c2; stroke-width: 2; stroke-linecap: square"/>
   </g>
   <g id="line2d_30">
    <path d="M 64.072159 340.318125 
L 64.072159 310.573863 
L 64.305925 310.573863 
L 64.305925 254.626322 
L 64.539692 254.626322 
L 64.539692 239.754191 
L 64.773458 239.754191 
L 64.773458 236.921404 
L 65.007224 236.921404 
L 65.007224 203.636158 
L 65.24099 203.636158 
L 65.24099 189.472223 
L 65.474756 189.472223 
L 65.474756 181.682059 
L 65.708523 181.682059 
L 65.708523 173.891895 
L 65.942289 173.891895 
L 65.942289 172.475502 
L 66.409821 172.475502 
L 66.409821 171.767305 
L 66.643588 171.767305 
L 66.643588 164.685338 
L 66.877354 164.685338 
L 66.877354 162.560748 
L 67.11112 162.560748 
L 67.11112 153.354191 
L 67.344886 153.354191 
L 67.578653 152.645994 
L 67.812419 152.645994 
L 67.812419 150.521404 
L 68.046185 150.521404 
L 68.046185 147.688617 
L 68.279951 147.688617 
L 68.279951 146.272223 
L 68.513718 146.272223 
L 68.513718 132.816486 
L 68.747484 132.816486 
L 68.747484 127.859109 
L 68.98125 127.859109 
L 68.98125 125.734518 
L 69.215016 125.734518 
L 69.215016 123.609928 
L 69.448782 123.609928 
L 69.448782 112.278781 
L 69.682549 112.278781 
L 69.682549 111.570584 
L 70.150081 111.570584 
L 70.150081 110.154191 
L 70.617614 110.154191 
L 70.617614 108.737797 
L 70.85138 108.737797 
L 70.85138 108.0296 
L 72.020211 108.0296 
L 72.020211 106.613207 
L 72.487744 106.613207 
L 72.487744 105.196814 
L 73.189042 105.196814 
L 73.189042 103.78042 
L 73.422808 103.78042 
L 73.422808 103.072223 
L 73.656575 103.072223 
L 73.656575 101.65583 
L 73.890341 101.65583 
L 73.890341 99.53124 
L 74.357873 99.53124 
L 74.357873 98.114846 
L 74.59164 98.114846 
L 74.59164 97.40665 
L 74.825406 97.40665 
L 74.825406 96.698453 
L 75.059172 96.698453 
L 75.059172 95.282059 
L 75.526705 95.282059 
L 75.526705 91.741076 
L 76.461769 91.741076 
L 76.461769 88.908289 
L 77.163068 88.908289 
L 77.163068 88.200092 
L 77.396834 88.200092 
L 77.396834 87.491895 
L 78.098133 87.491895 
L 78.098133 86.783699 
L 78.331899 86.783699 
L 78.331899 86.075502 
L 79.500731 86.075502 
L 79.500731 85.367305 
L 79.734497 85.367305 
L 79.734497 82.534518 
L 79.968263 82.534518 
L 79.968263 81.118125 
L 82.072159 81.118125 
L 82.072159 79.701732 
L 82.305925 79.701732 
L 82.305925 78.285338 
L 84.176055 78.285338 
L 84.176055 77.577141 
L 84.409821 77.577141 
L 84.409821 76.868945 
L 84.643588 76.868945 
L 84.643588 76.160748 
L 84.877354 76.160748 
L 84.877354 75.452551 
L 86.513718 75.452551 
L 86.513718 74.744355 
L 88.383847 74.744355 
L 88.383847 74.036158 
L 88.617614 74.036158 
L 88.617614 73.327961 
L 90.020211 73.327961 
L 90.020211 72.619764 
L 90.487744 72.619764 
L 90.487744 71.911568 
L 92.124107 71.911568 
L 92.124107 71.203371 
L 93.059172 71.203371 
L 93.059172 69.786977 
L 93.526705 69.786977 
L 93.526705 68.370584 
L 93.760471 68.370584 
L 93.760471 67.662387 
L 95.396834 67.662387 
L 95.396834 65.537797 
L 96.098133 65.537797 
L 96.098133 63.413207 
L 104.747484 63.413207 
L 104.747484 62.70501 
L 106.85138 62.70501 
L 106.85138 61.996814 
L 107.552679 61.996814 
L 107.552679 61.288617 
L 108.253977 61.288617 
L 108.253977 60.58042 
L 110.825406 60.58042 
L 110.825406 59.872223 
L 114.565666 59.872223 
L 114.565666 59.164027 
L 119.24099 59.164027 
L 119.24099 58.45583 
L 123.215016 58.45583 
L 123.215016 57.747633 
L 138.176055 57.747633 
L 138.176055 57.039436 
L 143.085146 57.039436 
L 143.085146 56.33124 
L 145.890341 56.33124 
L 145.890341 55.623043 
L 153.838393 55.623043 
L 153.838393 54.914846 
L 157.578653 54.914846 
L 157.578653 54.20665 
L 162.72151 54.20665 
L 162.72151 53.498453 
L 165.526705 53.498453 
L 165.526705 52.790256 
L 165.760471 52.790256 
L 165.760471 52.082059 
L 172.539692 52.082059 
L 172.539692 51.373863 
L 175.344886 51.373863 
L 175.344886 50.665666 
L 180.72151 50.665666 
L 180.72151 49.957469 
L 217.422808 49.957469 
L 217.422808 49.249273 
L 241.033198 49.249273 
L 241.033198 48.541076 
L 244.305925 48.541076 
L 244.305925 47.832879 
L 252.955276 47.832879 
L 252.955276 47.124682 
L 273.292938 47.124682 
L 273.292938 46.416486 
L 273.760471 46.416486 
L 273.760471 45.708289 
L 277.734497 45.708289 
L 277.734497 44.291895 
L 283.812419 44.291895 
L 283.812419 43.583699 
L 289.189042 43.583699 
L 289.189042 42.875502 
L 292.929302 42.875502 
L 292.929302 42.167305 
L 296.435795 42.167305 
L 296.435795 41.459109 
L 299.708523 41.459109 
L 299.708523 40.750912 
L 300.877354 40.750912 
L 300.877354 40.042715 
L 373.11112 40.042715 
L 373.11112 39.334518 
L 385.968263 39.334518 
L 385.968263 38.626322 
L 389.474756 38.626322 
L 389.474756 37.918125 
L 469.890341 37.918125 
L 469.890341 37.918125 
" clip-path="url(#pd2a6302fda)" style="fill: none; stroke: #bcbd22; stroke-width: 2; stroke-linecap: square"/>
   </g>
   <g id="line2d_31">
    <path d="M 64.072159 340.318125 
L 469.890341 37.918125 
" clip-path="url(#pd2a6302fda)" style="fill: none; stroke-dasharray: 3.7,1.6; stroke-dashoffset: 0; stroke: #808080"/>
   </g>
   <g id="patch_3">
    <path d="M 43.78125 355.438125 
L 43.78125 22.798125 
" style="fill: none; stroke: #000000; stroke-width: 0.8; stroke-linejoin: miter; stroke-linecap: square"/>
   </g>
   <g id="patch_4">
    <path d="M 490.18125 355.438125 
L 490.18125 22.798125 
" style="fill: none; stroke: #000000; stroke-width: 0.8; stroke-linejoin: miter; stroke-linecap: square"/>
   </g>
   <g id="patch_5">
    <path d="M 43.78125 355.438125 
L 490.18125 355.438125 
" style="fill: none; stroke: #000000; stroke-width: 0.8; stroke-linejoin: miter; stroke-linecap: square"/>
   </g>
   <g id="patch_6">
    <path d="M 43.78125 22.798125 
L 490.18125 22.798125 
" style="fill: none; stroke: #000000; stroke-width: 0.8; stroke-linejoin: miter; stroke-linecap: square"/>
   </g>
   <g id="text_15">
    <!-- ROC křivky pro všechny receptory pro XGBoost -->
    <g transform="translate(125.4825 16.798125) scale(0.12 -0.12)">
     <defs>
      <path id="DejaVuSans-4f" d="M 2522 4238 
Q 1834 4238 1429 3725 
Q 1025 3213 1025 2328 
Q 1025 1447 1429 934 
Q 1834 422 2522 422 
Q 3209 422 3611 934 
Q 4013 1447 4013 2328 
Q 4013 3213 3611 3725 
Q 3209 4238 2522 4238 
z
M 2522 4750 
Q 3503 4750 4090 4092 
Q 4678 3434 4678 2328 
Q 4678 1225 4090 567 
Q 3503 -91 2522 -91 
Q 1538 -91 948 565 
Q 359 1222 359 2328 
Q 359 3434 948 4092 
Q 1538 4750 2522 4750 
z
" transform="scale(0.015625)"/>
      <path id="DejaVuSans-43" d="M 4122 4306 
L 4122 3641 
Q 3803 3938 3442 4084 
Q 3081 4231 2675 4231 
Q 1875 4231 1450 3742 
Q 1025 3253 1025 2328 
Q 1025 1406 1450 917 
Q 1875 428 2675 428 
Q 3081 428 3442 575 
Q 3803 722 4122 1019 
L 4122 359 
Q 3791 134 3420 21 
Q 3050 -91 2638 -91 
Q 1578 -91 968 557 
Q 359 1206 359 2328 
Q 359 3453 968 4101 
Q 1578 4750 2638 4750 
Q 3056 4750 3426 4639 
Q 3797 4528 4122 4306 
z
" transform="scale(0.015625)"/>
      <path id="DejaVuSans-6b" d="M 581 4863 
L 1159 4863 
L 1159 1991 
L 2875 3500 
L 3609 3500 
L 1753 1863 
L 3688 0 
L 2938 0 
L 1159 1709 
L 1159 0 
L 581 0 
L 581 4863 
z
" transform="scale(0.015625)"/>
      <path id="DejaVuSans-159" d="M 2631 2963 
Q 2534 3019 2420 3045 
Q 2306 3072 2169 3072 
Q 1681 3072 1420 2755 
Q 1159 2438 1159 1844 
L 1159 0 
L 581 0 
L 581 3500 
L 1159 3500 
L 1159 2956 
Q 1341 3275 1631 3429 
Q 1922 3584 2338 3584 
Q 2397 3584 2469 3576 
Q 2541 3569 2628 3553 
L 2631 2963 
z
M 1457 3944 
L 691 5119 
L 1126 5119 
L 1688 4353 
L 2251 5119 
L 2685 5119 
L 1919 3944 
L 1457 3944 
z
" transform="scale(0.015625)"/>
      <path id="DejaVuSans-79" d="M 2059 -325 
Q 1816 -950 1584 -1140 
Q 1353 -1331 966 -1331 
L 506 -1331 
L 506 -850 
L 844 -850 
Q 1081 -850 1212 -737 
Q 1344 -625 1503 -206 
L 1606 56 
L 191 3500 
L 800 3500 
L 1894 763 
L 2988 3500 
L 3597 3500 
L 2059 -325 
z
" transform="scale(0.015625)"/>
      <path id="DejaVuSans-70" d="M 1159 525 
L 1159 -1331 
L 581 -1331 
L 581 3500 
L 1159 3500 
L 1159 2969 
Q 1341 3281 1617 3432 
Q 1894 3584 2278 3584 
Q 2916 3584 3314 3078 
Q 3713 2572 3713 1747 
Q 3713 922 3314 415 
Q 2916 -91 2278 -91 
Q 1894 -91 1617 61 
Q 1341 213 1159 525 
z
M 3116 1747 
Q 3116 2381 2855 2742 
Q 2594 3103 2138 3103 
Q 1681 3103 1420 2742 
Q 1159 2381 1159 1747 
Q 1159 1113 1420 752 
Q 1681 391 2138 391 
Q 2594 391 2855 752 
Q 3116 1113 3116 1747 
z
" transform="scale(0.015625)"/>
      <path id="DejaVuSans-161" d="M 2834 3397 
L 2834 2853 
Q 2591 2978 2328 3040 
Q 2066 3103 1784 3103 
Q 1356 3103 1142 2972 
Q 928 2841 928 2578 
Q 928 2378 1081 2264 
Q 1234 2150 1697 2047 
L 1894 2003 
Q 2506 1872 2764 1633 
Q 3022 1394 3022 966 
Q 3022 478 2636 193 
Q 2250 -91 1575 -91 
Q 1294 -91 989 -36 
Q 684 19 347 128 
L 347 722 
Q 666 556 975 473 
Q 1284 391 1588 391 
Q 1994 391 2212 530 
Q 2431 669 2431 922 
Q 2431 1156 2273 1281 
Q 2116 1406 1581 1522 
L 1381 1569 
Q 847 1681 609 1914 
Q 372 2147 372 2553 
Q 372 3047 722 3315 
Q 1072 3584 1716 3584 
Q 2034 3584 2315 3537 
Q 2597 3491 2834 3397 
z
M 1501 3944 
L 736 5119 
L 1170 5119 
L 1733 4353 
L 2295 5119 
L 2729 5119 
L 1964 3944 
L 1501 3944 
z
M 1720 3584 
L 1720 3584 
z
" transform="scale(0.015625)"/>
      <path id="DejaVuSans-63" d="M 3122 3366 
L 3122 2828 
Q 2878 2963 2633 3030 
Q 2388 3097 2138 3097 
Q 1578 3097 1268 2742 
Q 959 2388 959 1747 
Q 959 1106 1268 751 
Q 1578 397 2138 397 
Q 2388 397 2633 464 
Q 2878 531 3122 666 
L 3122 134 
Q 2881 22 2623 -34 
Q 2366 -91 2075 -91 
Q 1284 -91 818 406 
Q 353 903 353 1747 
Q 353 2603 823 3093 
Q 1294 3584 2113 3584 
Q 2378 3584 2631 3529 
Q 2884 3475 3122 3366 
z
" transform="scale(0.015625)"/>
      <path id="DejaVuSans-68" d="M 3513 2113 
L 3513 0 
L 2938 0 
L 2938 2094 
Q 2938 2591 2744 2837 
Q 2550 3084 2163 3084 
Q 1697 3084 1428 2787 
Q 1159 2491 1159 1978 
L 1159 0 
L 581 0 
L 581 4863 
L 1159 4863 
L 1159 2956 
Q 1366 3272 1645 3428 
Q 1925 3584 2291 3584 
Q 2894 3584 3203 3211 
Q 3513 2838 3513 2113 
z
" transform="scale(0.015625)"/>
      <path id="DejaVuSans-6e" d="M 3513 2113 
L 3513 0 
L 2938 0 
L 2938 2094 
Q 2938 2591 2744 2837 
Q 2550 3084 2163 3084 
Q 1697 3084 1428 2787 
Q 1159 2491 1159 1978 
L 1159 0 
L 581 0 
L 581 3500 
L 1159 3500 
L 1159 2956 
Q 1366 3272 1645 3428 
Q 1925 3584 2291 3584 
Q 2894 3584 3203 3211 
Q 3513 2838 3513 2113 
z
" transform="scale(0.015625)"/>
      <path id="DejaVuSans-58" d="M 403 4666 
L 1081 4666 
L 2241 2931 
L 3406 4666 
L 4084 4666 
L 2584 2425 
L 4184 0 
L 3506 0 
L 2194 1984 
L 872 0 
L 191 0 
L 1856 2491 
L 403 4666 
z
" transform="scale(0.015625)"/>
      <path id="DejaVuSans-47" d="M 3809 666 
L 3809 1919 
L 2778 1919 
L 2778 2438 
L 4434 2438 
L 4434 434 
Q 4069 175 3628 42 
Q 3188 -91 2688 -91 
Q 1594 -91 976 548 
Q 359 1188 359 2328 
Q 359 3472 976 4111 
Q 1594 4750 2688 4750 
Q 3144 4750 3555 4637 
Q 3966 4525 4313 4306 
L 4313 3634 
Q 3963 3931 3569 4081 
Q 3175 4231 2741 4231 
Q 1884 4231 1454 3753 
Q 1025 3275 1025 2328 
Q 1025 1384 1454 906 
Q 1884 428 2741 428 
Q 3075 428 3337 486 
Q 3600 544 3809 666 
z
" transform="scale(0.015625)"/>
      <path id="DejaVuSans-42" d="M 1259 2228 
L 1259 519 
L 2272 519 
Q 2781 519 3026 730 
Q 3272 941 3272 1375 
Q 3272 1813 3026 2020 
Q 2781 2228 2272 2228 
L 1259 2228 
z
M 1259 4147 
L 1259 2741 
L 2194 2741 
Q 2656 2741 2882 2914 
Q 3109 3088 3109 3444 
Q 3109 3797 2882 3972 
Q 2656 4147 2194 4147 
L 1259 4147 
z
M 628 4666 
L 2241 4666 
Q 2963 4666 3353 4366 
Q 3744 4066 3744 3513 
Q 3744 3084 3544 2831 
Q 3344 2578 2956 2516 
Q 3422 2416 3680 2098 
Q 3938 1781 3938 1306 
Q 3938 681 3513 340 
Q 3088 0 2303 0 
L 628 0 
L 628 4666 
z
" transform="scale(0.015625)"/>
     </defs>
     <use xlink:href="#DejaVuSans-52"/>
     <use xlink:href="#DejaVuSans-4f" transform="translate(69.482422 0)"/>
     <use xlink:href="#DejaVuSans-43" transform="translate(148.193359 0)"/>
     <use xlink:href="#DejaVuSans-20" transform="translate(218.017578 0)"/>
     <use xlink:href="#DejaVuSans-6b" transform="translate(249.804688 0)"/>
     <use xlink:href="#DejaVuSans-159" transform="translate(307.714844 0)"/>
     <use xlink:href="#DejaVuSans-69" transform="translate(348.828125 0)"/>
     <use xlink:href="#DejaVuSans-76" transform="translate(376.611328 0)"/>
     <use xlink:href="#DejaVuSans-6b" transform="translate(435.791016 0)"/>
     <use xlink:href="#DejaVuSans-79" transform="translate(490.076172 0)"/>
     <use xlink:href="#DejaVuSans-20" transform="translate(549.255859 0)"/>
     <use xlink:href="#DejaVuSans-70" transform="translate(581.042969 0)"/>
     <use xlink:href="#DejaVuSans-72" transform="translate(644.519531 0)"/>
     <use xlink:href="#DejaVuSans-6f" transform="translate(683.382812 0)"/>
     <use xlink:href="#DejaVuSans-20" transform="translate(744.564453 0)"/>
     <use xlink:href="#DejaVuSans-76" transform="translate(776.351562 0)"/>
     <use xlink:href="#DejaVuSans-161" transform="translate(835.53125 0)"/>
     <use xlink:href="#DejaVuSans-65" transform="translate(887.630859 0)"/>
     <use xlink:href="#DejaVuSans-63" transform="translate(949.154297 0)"/>
     <use xlink:href="#DejaVuSans-68" transform="translate(1004.134766 0)"/>
     <use xlink:href="#DejaVuSans-6e" transform="translate(1067.513672 0)"/>
     <use xlink:href="#DejaVuSans-79" transform="translate(1130.892578 0)"/>
     <use xlink:href="#DejaVuSans-20" transform="translate(1190.072266 0)"/>
     <use xlink:href="#DejaVuSans-72" transform="translate(1221.859375 0)"/>
     <use xlink:href="#DejaVuSans-65" transform="translate(1260.722656 0)"/>
     <use xlink:href="#DejaVuSans-63" transform="translate(1322.246094 0)"/>
     <use xlink:href="#DejaVuSans-65" transform="translate(1377.226562 0)"/>
     <use xlink:href="#DejaVuSans-70" transform="translate(1438.75 0)"/>
     <use xlink:href="#DejaVuSans-74" transform="translate(1502.226562 0)"/>
     <use xlink:href="#DejaVuSans-6f" transform="translate(1541.435547 0)"/>
     <use xlink:href="#DejaVuSans-72" transform="translate(1602.617188 0)"/>
     <use xlink:href="#DejaVuSans-79" transform="translate(1643.730469 0)"/>
     <use xlink:href="#DejaVuSans-20" transform="translate(1702.910156 0)"/>
     <use xlink:href="#DejaVuSans-70" transform="translate(1734.697266 0)"/>
     <use xlink:href="#DejaVuSans-72" transform="translate(1798.173828 0)"/>
     <use xlink:href="#DejaVuSans-6f" transform="translate(1837.037109 0)"/>
     <use xlink:href="#DejaVuSans-20" transform="translate(1898.21875 0)"/>
     <use xlink:href="#DejaVuSans-58" transform="translate(1930.005859 0)"/>
     <use xlink:href="#DejaVuSans-47" transform="translate(1998.511719 0)"/>
     <use xlink:href="#DejaVuSans-42" transform="translate(2076.001953 0)"/>
     <use xlink:href="#DejaVuSans-6f" transform="translate(2144.605469 0)"/>
     <use xlink:href="#DejaVuSans-6f" transform="translate(2205.787109 0)"/>
     <use xlink:href="#DejaVuSans-73" transform="translate(2266.96875 0)"/>
     <use xlink:href="#DejaVuSans-74" transform="translate(2319.068359 0)"/>
    </g>
   </g>
   <g id="legend_1">
    <g id="patch_7">
     <path d="M 241.510937 350.438125 
L 483.18125 350.438125 
Q 485.18125 350.438125 485.18125 348.438125 
L 485.18125 258.969375 
Q 485.18125 256.969375 483.18125 256.969375 
L 241.510937 256.969375 
Q 239.510937 256.969375 239.510937 258.969375 
L 239.510937 348.438125 
Q 239.510937 350.438125 241.510937 350.438125 
z
" style="fill: #ffffff; opacity: 0.8; stroke: #cccccc; stroke-linejoin: miter"/>
    </g>
    <g id="line2d_32">
     <path d="M 243.510937 265.467812 
L 253.510937 265.467812 
L 263.510937 265.467812 
" style="fill: none; stroke: #1f77b4; stroke-width: 2; stroke-linecap: square"/>
    </g>
    <g id="text_16">
     <!-- Androgenní receptor (AUC = 0.97) -->
     <g transform="translate(271.510937 268.967812) scale(0.1 -0.1)">
      <defs>
       <path id="DejaVuSans-41" d="M 2188 4044 
L 1331 1722 
L 3047 1722 
L 2188 4044 
z
M 1831 4666 
L 2547 4666 
L 4325 0 
L 3669 0 
L 3244 1197 
L 1141 1197 
L 716 0 
L 50 0 
L 1831 4666 
z
" transform="scale(0.015625)"/>
       <path id="DejaVuSans-64" d="M 2906 2969 
L 2906 4863 
L 3481 4863 
L 3481 0 
L 2906 0 
L 2906 525 
Q 2725 213 2448 61 
Q 2172 -91 1784 -91 
Q 1150 -91 751 415 
Q 353 922 353 1747 
Q 353 2572 751 3078 
Q 1150 3584 1784 3584 
Q 2172 3584 2448 3432 
Q 2725 3281 2906 2969 
z
M 947 1747 
Q 947 1113 1208 752 
Q 1469 391 1925 391 
Q 2381 391 2643 752 
Q 2906 1113 2906 1747 
Q 2906 2381 2643 2742 
Q 2381 3103 1925 3103 
Q 1469 3103 1208 2742 
Q 947 2381 947 1747 
z
" transform="scale(0.015625)"/>
       <path id="DejaVuSans-67" d="M 2906 1791 
Q 2906 2416 2648 2759 
Q 2391 3103 1925 3103 
Q 1463 3103 1205 2759 
Q 947 2416 947 1791 
Q 947 1169 1205 825 
Q 1463 481 1925 481 
Q 2391 481 2648 825 
Q 2906 1169 2906 1791 
z
M 3481 434 
Q 3481 -459 3084 -895 
Q 2688 -1331 1869 -1331 
Q 1566 -1331 1297 -1286 
Q 1028 -1241 775 -1147 
L 775 -588 
Q 1028 -725 1275 -790 
Q 1522 -856 1778 -856 
Q 2344 -856 2625 -561 
Q 2906 -266 2906 331 
L 2906 616 
Q 2728 306 2450 153 
Q 2172 0 1784 0 
Q 1141 0 747 490 
Q 353 981 353 1791 
Q 353 2603 747 3093 
Q 1141 3584 1784 3584 
Q 2172 3584 2450 3431 
Q 2728 3278 2906 2969 
L 2906 3500 
L 3481 3500 
L 3481 434 
z
" transform="scale(0.015625)"/>
       <path id="DejaVuSans-ed" d="M 1322 5119 
L 1944 5119 
L 926 3944 
L 447 3944 
L 1322 5119 
z
M 603 3500 
L 1178 3500 
L 1178 0 
L 603 0 
L 603 3500 
z
M 891 3584 
L 891 3584 
z
" transform="scale(0.015625)"/>
       <path id="DejaVuSans-28" d="M 1984 4856 
Q 1566 4138 1362 3434 
Q 1159 2731 1159 2009 
Q 1159 1288 1364 580 
Q 1569 -128 1984 -844 
L 1484 -844 
Q 1016 -109 783 600 
Q 550 1309 550 2009 
Q 550 2706 781 3412 
Q 1013 4119 1484 4856 
L 1984 4856 
z
" transform="scale(0.015625)"/>
       <path id="DejaVuSans-55" d="M 556 4666 
L 1191 4666 
L 1191 1831 
Q 1191 1081 1462 751 
Q 1734 422 2344 422 
Q 2950 422 3222 751 
Q 3494 1081 3494 1831 
L 3494 4666 
L 4128 4666 
L 4128 1753 
Q 4128 841 3676 375 
Q 3225 -91 2344 -91 
Q 1459 -91 1007 375 
Q 556 841 556 1753 
L 556 4666 
z
" transform="scale(0.015625)"/>
       <path id="DejaVuSans-3d" d="M 678 2906 
L 4684 2906 
L 4684 2381 
L 678 2381 
L 678 2906 
z
M 678 1631 
L 4684 1631 
L 4684 1100 
L 678 1100 
L 678 1631 
z
" transform="scale(0.015625)"/>
       <path id="DejaVuSans-39" d="M 703 97 
L 703 672 
Q 941 559 1184 500 
Q 1428 441 1663 441 
Q 2288 441 2617 861 
Q 2947 1281 2994 2138 
Q 2813 1869 2534 1725 
Q 2256 1581 1919 1581 
Q 1219 1581 811 2004 
Q 403 2428 403 3163 
Q 403 3881 828 4315 
Q 1253 4750 1959 4750 
Q 2769 4750 3195 4129 
Q 3622 3509 3622 2328 
Q 3622 1225 3098 567 
Q 2575 -91 1691 -91 
Q 1453 -91 1209 -44 
Q 966 3 703 97 
z
M 1959 2075 
Q 2384 2075 2632 2365 
Q 2881 2656 2881 3163 
Q 2881 3666 2632 3958 
Q 2384 4250 1959 4250 
Q 1534 4250 1286 3958 
Q 1038 3666 1038 3163 
Q 1038 2656 1286 2365 
Q 1534 2075 1959 2075 
z
" transform="scale(0.015625)"/>
       <path id="DejaVuSans-37" d="M 525 4666 
L 3525 4666 
L 3525 4397 
L 1831 0 
L 1172 0 
L 2766 4134 
L 525 4134 
L 525 4666 
z
" transform="scale(0.015625)"/>
       <path id="DejaVuSans-29" d="M 513 4856 
L 1013 4856 
Q 1481 4119 1714 3412 
Q 1947 2706 1947 2009 
Q 1947 1309 1714 600 
Q 1481 -109 1013 -844 
L 513 -844 
Q 928 -128 1133 580 
Q 1338 1288 1338 2009 
Q 1338 2731 1133 3434 
Q 928 4138 513 4856 
z
" transform="scale(0.015625)"/>
      </defs>
      <use xlink:href="#DejaVuSans-41"/>
      <use xlink:href="#DejaVuSans-6e" transform="translate(68.408203 0)"/>
      <use xlink:href="#DejaVuSans-64" transform="translate(131.787109 0)"/>
      <use xlink:href="#DejaVuSans-72" transform="translate(195.263672 0)"/>
      <use xlink:href="#DejaVuSans-6f" transform="translate(234.126953 0)"/>
      <use xlink:href="#DejaVuSans-67" transform="translate(295.308594 0)"/>
      <use xlink:href="#DejaVuSans-65" transform="translate(358.785156 0)"/>
      <use xlink:href="#DejaVuSans-6e" transform="translate(420.308594 0)"/>
      <use xlink:href="#DejaVuSans-6e" transform="translate(483.6875 0)"/>
      <use xlink:href="#DejaVuSans-ed" transform="translate(547.066406 0)"/>
      <use xlink:href="#DejaVuSans-20" transform="translate(574.849609 0)"/>
      <use xlink:href="#DejaVuSans-72" transform="translate(606.636719 0)"/>
      <use xlink:href="#DejaVuSans-65" transform="translate(645.5 0)"/>
      <use xlink:href="#DejaVuSans-63" transform="translate(707.023438 0)"/>
      <use xlink:href="#DejaVuSans-65" transform="translate(762.003906 0)"/>
      <use xlink:href="#DejaVuSans-70" transform="translate(823.527344 0)"/>
      <use xlink:href="#DejaVuSans-74" transform="translate(887.003906 0)"/>
      <use xlink:href="#DejaVuSans-6f" transform="translate(926.212891 0)"/>
      <use xlink:href="#DejaVuSans-72" transform="translate(987.394531 0)"/>
      <use xlink:href="#DejaVuSans-20" transform="translate(1028.507812 0)"/>
      <use xlink:href="#DejaVuSans-28" transform="translate(1060.294922 0)"/>
      <use xlink:href="#DejaVuSans-41" transform="translate(1099.308594 0)"/>
      <use xlink:href="#DejaVuSans-55" transform="translate(1167.716797 0)"/>
      <use xlink:href="#DejaVuSans-43" transform="translate(1240.910156 0)"/>
      <use xlink:href="#DejaVuSans-20" transform="translate(1310.734375 0)"/>
      <use xlink:href="#DejaVuSans-3d" transform="translate(1342.521484 0)"/>
      <use xlink:href="#DejaVuSans-20" transform="translate(1426.310547 0)"/>
      <use xlink:href="#DejaVuSans-30" transform="translate(1458.097656 0)"/>
      <use xlink:href="#DejaVuSans-2e" transform="translate(1521.720703 0)"/>
      <use xlink:href="#DejaVuSans-39" transform="translate(1553.507812 0)"/>
      <use xlink:href="#DejaVuSans-37" transform="translate(1617.130859 0)"/>
      <use xlink:href="#DejaVuSans-29" transform="translate(1680.753906 0)"/>
     </g>
    </g>
    <g id="line2d_33">
     <path d="M 243.510937 280.545937 
L 253.510937 280.545937 
L 263.510937 280.545937 
" style="fill: none; stroke: #ff7f0e; stroke-width: 2; stroke-linecap: square"/>
    </g>
    <g id="text_17">
     <!-- Estrogenový receptor α (AUC = 0.98) -->
     <g transform="translate(271.510937 284.045937) scale(0.1 -0.1)">
      <defs>
       <path id="DejaVuSans-45" d="M 628 4666 
L 3578 4666 
L 3578 4134 
L 1259 4134 
L 1259 2753 
L 3481 2753 
L 3481 2222 
L 1259 2222 
L 1259 531 
L 3634 531 
L 3634 0 
L 628 0 
L 628 4666 
z
" transform="scale(0.015625)"/>
       <path id="DejaVuSans-fd" d="M 2059 -325 
Q 1816 -950 1584 -1140 
Q 1353 -1331 966 -1331 
L 506 -1331 
L 506 -850 
L 844 -850 
Q 1081 -850 1212 -737 
Q 1344 -625 1503 -206 
L 1606 56 
L 191 3500 
L 800 3500 
L 1894 763 
L 2988 3500 
L 3597 3500 
L 2059 -325 
z
M 2330 5119 
L 2952 5119 
L 1934 3944 
L 1455 3944 
L 2330 5119 
z
" transform="scale(0.015625)"/>
       <path id="DejaVuSans-3b1" d="M 2644 1628 
L 2506 2350 
Q 2366 3091 1809 3091 
Q 1391 3091 1200 2747 
Q 959 2316 959 1747 
Q 959 1059 1194 731 
Q 1431 397 1809 397 
Q 2228 397 2453 1063 
L 2644 1628 
z
M 2966 2584 
L 3275 3500 
L 3788 3500 
L 3147 1603 
L 3272 919 
Q 3300 766 3409 638 
Q 3538 488 3638 488 
L 3913 488 
L 3913 0 
L 3569 0 
Q 3275 0 3013 263 
Q 2884 394 2831 669 
Q 2688 322 2394 50 
Q 2256 -78 1809 -78 
Q 1075 -78 719 397 
Q 353 888 353 1747 
Q 353 2666 750 3097 
Q 1191 3578 1809 3578 
Q 2781 3578 2966 2584 
z
" transform="scale(0.015625)"/>
      </defs>
      <use xlink:href="#DejaVuSans-45"/>
      <use xlink:href="#DejaVuSans-73" transform="translate(63.183594 0)"/>
      <use xlink:href="#DejaVuSans-74" transform="translate(115.283203 0)"/>
      <use xlink:href="#DejaVuSans-72" transform="translate(154.492188 0)"/>
      <use xlink:href="#DejaVuSans-6f" transform="translate(193.355469 0)"/>
      <use xlink:href="#DejaVuSans-67" transform="translate(254.537109 0)"/>
      <use xlink:href="#DejaVuSans-65" transform="translate(318.013672 0)"/>
      <use xlink:href="#DejaVuSans-6e" transform="translate(379.537109 0)"/>
      <use xlink:href="#DejaVuSans-6f" transform="translate(442.916016 0)"/>
      <use xlink:href="#DejaVuSans-76" transform="translate(504.097656 0)"/>
      <use xlink:href="#DejaVuSans-fd" transform="translate(563.277344 0)"/>
      <use xlink:href="#DejaVuSans-20" transform="translate(622.457031 0)"/>
      <use xlink:href="#DejaVuSans-72" transform="translate(654.244141 0)"/>
      <use xlink:href="#DejaVuSans-65" transform="translate(693.107422 0)"/>
      <use xlink:href="#DejaVuSans-63" transform="translate(754.630859 0)"/>
      <use xlink:href="#DejaVuSans-65" transform="translate(809.611328 0)"/>
      <use xlink:href="#DejaVuSans-70" transform="translate(871.134766 0)"/>
      <use xlink:href="#DejaVuSans-74" transform="translate(934.611328 0)"/>
      <use xlink:href="#DejaVuSans-6f" transform="translate(973.820312 0)"/>
      <use xlink:href="#DejaVuSans-72" transform="translate(1035.001953 0)"/>
      <use xlink:href="#DejaVuSans-20" transform="translate(1076.115234 0)"/>
      <use xlink:href="#DejaVuSans-3b1" transform="translate(1107.902344 0)"/>
      <use xlink:href="#DejaVuSans-20" transform="translate(1173.820312 0)"/>
      <use xlink:href="#DejaVuSans-28" transform="translate(1205.607422 0)"/>
      <use xlink:href="#DejaVuSans-41" transform="translate(1244.621094 0)"/>
      <use xlink:href="#DejaVuSans-55" transform="translate(1313.029297 0)"/>
      <use xlink:href="#DejaVuSans-43" transform="translate(1386.222656 0)"/>
      <use xlink:href="#DejaVuSans-20" transform="translate(1456.046875 0)"/>
      <use xlink:href="#DejaVuSans-3d" transform="translate(1487.833984 0)"/>
      <use xlink:href="#DejaVuSans-20" transform="translate(1571.623047 0)"/>
      <use xlink:href="#DejaVuSans-30" transform="translate(1603.410156 0)"/>
      <use xlink:href="#DejaVuSans-2e" transform="translate(1667.033203 0)"/>
      <use xlink:href="#DejaVuSans-39" transform="translate(1698.820312 0)"/>
      <use xlink:href="#DejaVuSans-38" transform="translate(1762.443359 0)"/>
      <use xlink:href="#DejaVuSans-29" transform="translate(1826.066406 0)"/>
     </g>
    </g>
    <g id="line2d_34">
     <path d="M 243.510937 295.624062 
L 253.510937 295.624062 
L 263.510937 295.624062 
" style="fill: none; stroke: #d62728; stroke-width: 2; stroke-linecap: square"/>
    </g>
    <g id="text_18">
     <!-- Estrogenový receptor β (AUC = 0.97) -->
     <g transform="translate(271.510937 299.124062) scale(0.1 -0.1)">
      <defs>
       <path id="DejaVuSans-3b2" d="M 1178 216 
L 1178 -1331 
L 600 -1331 
L 600 3478 
Q 600 4903 1931 4903 
Q 3288 4903 3288 3700 
Q 3288 2844 2750 2531 
Q 3625 2250 3625 1416 
Q 3625 -66 2119 -66 
Q 1456 -66 1178 216 
z
M 1178 966 
Q 1525 425 2141 425 
Q 3041 425 3041 1406 
Q 3041 2288 1591 2219 
L 1591 2750 
Q 2725 2750 2725 3750 
Q 2725 4434 1994 4434 
Q 1178 4434 1178 3459 
L 1178 966 
z
" transform="scale(0.015625)"/>
      </defs>
      <use xlink:href="#DejaVuSans-45"/>
      <use xlink:href="#DejaVuSans-73" transform="translate(63.183594 0)"/>
      <use xlink:href="#DejaVuSans-74" transform="translate(115.283203 0)"/>
      <use xlink:href="#DejaVuSans-72" transform="translate(154.492188 0)"/>
      <use xlink:href="#DejaVuSans-6f" transform="translate(193.355469 0)"/>
      <use xlink:href="#DejaVuSans-67" transform="translate(254.537109 0)"/>
      <use xlink:href="#DejaVuSans-65" transform="translate(318.013672 0)"/>
      <use xlink:href="#DejaVuSans-6e" transform="translate(379.537109 0)"/>
      <use xlink:href="#DejaVuSans-6f" transform="translate(442.916016 0)"/>
      <use xlink:href="#DejaVuSans-76" transform="translate(504.097656 0)"/>
      <use xlink:href="#DejaVuSans-fd" transform="translate(563.277344 0)"/>
      <use xlink:href="#DejaVuSans-20" transform="translate(622.457031 0)"/>
      <use xlink:href="#DejaVuSans-72" transform="translate(654.244141 0)"/>
      <use xlink:href="#DejaVuSans-65" transform="translate(693.107422 0)"/>
      <use xlink:href="#DejaVuSans-63" transform="translate(754.630859 0)"/>
      <use xlink:href="#DejaVuSans-65" transform="translate(809.611328 0)"/>
      <use xlink:href="#DejaVuSans-70" transform="translate(871.134766 0)"/>
      <use xlink:href="#DejaVuSans-74" transform="translate(934.611328 0)"/>
      <use xlink:href="#DejaVuSans-6f" transform="translate(973.820312 0)"/>
      <use xlink:href="#DejaVuSans-72" transform="translate(1035.001953 0)"/>
      <use xlink:href="#DejaVuSans-20" transform="translate(1076.115234 0)"/>
      <use xlink:href="#DejaVuSans-3b2" transform="translate(1107.902344 0)"/>
      <use xlink:href="#DejaVuSans-20" transform="translate(1171.720703 0)"/>
      <use xlink:href="#DejaVuSans-28" transform="translate(1203.507812 0)"/>
      <use xlink:href="#DejaVuSans-41" transform="translate(1242.521484 0)"/>
      <use xlink:href="#DejaVuSans-55" transform="translate(1310.929688 0)"/>
      <use xlink:href="#DejaVuSans-43" transform="translate(1384.123047 0)"/>
      <use xlink:href="#DejaVuSans-20" transform="translate(1453.947266 0)"/>
      <use xlink:href="#DejaVuSans-3d" transform="translate(1485.734375 0)"/>
      <use xlink:href="#DejaVuSans-20" transform="translate(1569.523438 0)"/>
      <use xlink:href="#DejaVuSans-30" transform="translate(1601.310547 0)"/>
      <use xlink:href="#DejaVuSans-2e" transform="translate(1664.933594 0)"/>
      <use xlink:href="#DejaVuSans-39" transform="translate(1696.720703 0)"/>
      <use xlink:href="#DejaVuSans-37" transform="translate(1760.34375 0)"/>
      <use xlink:href="#DejaVuSans-29" transform="translate(1823.966797 0)"/>
     </g>
    </g>
    <g id="line2d_35">
     <path d="M 243.510937 310.702187 
L 253.510937 310.702187 
L 263.510937 310.702187 
" style="fill: none; stroke: #8c564b; stroke-width: 2; stroke-linecap: square"/>
    </g>
    <g id="text_19">
     <!-- Glukokortikoidní receptor (AUC = 0.99) -->
     <g transform="translate(271.510937 314.202187) scale(0.1 -0.1)">
      <use xlink:href="#DejaVuSans-47"/>
      <use xlink:href="#DejaVuSans-6c" transform="translate(77.490234 0)"/>
      <use xlink:href="#DejaVuSans-75" transform="translate(105.273438 0)"/>
      <use xlink:href="#DejaVuSans-6b" transform="translate(168.652344 0)"/>
      <use xlink:href="#DejaVuSans-6f" transform="translate(222.9375 0)"/>
      <use xlink:href="#DejaVuSans-6b" transform="translate(284.119141 0)"/>
      <use xlink:href="#DejaVuSans-6f" transform="translate(338.404297 0)"/>
      <use xlink:href="#DejaVuSans-72" transform="translate(399.585938 0)"/>
      <use xlink:href="#DejaVuSans-74" transform="translate(440.699219 0)"/>
      <use xlink:href="#DejaVuSans-69" transform="translate(479.908203 0)"/>
      <use xlink:href="#DejaVuSans-6b" transform="translate(507.691406 0)"/>
      <use xlink:href="#DejaVuSans-6f" transform="translate(561.976562 0)"/>
      <use xlink:href="#DejaVuSans-69" transform="translate(623.158203 0)"/>
      <use xlink:href="#DejaVuSans-64" transform="translate(650.941406 0)"/>
      <use xlink:href="#DejaVuSans-6e" transform="translate(714.417969 0)"/>
      <use xlink:href="#DejaVuSans-ed" transform="translate(777.796875 0)"/>
      <use xlink:href="#DejaVuSans-20" transform="translate(805.580078 0)"/>
      <use xlink:href="#DejaVuSans-72" transform="translate(837.367188 0)"/>
      <use xlink:href="#DejaVuSans-65" transform="translate(876.230469 0)"/>
      <use xlink:href="#DejaVuSans-63" transform="translate(937.753906 0)"/>
      <use xlink:href="#DejaVuSans-65" transform="translate(992.734375 0)"/>
      <use xlink:href="#DejaVuSans-70" transform="translate(1054.257812 0)"/>
      <use xlink:href="#DejaVuSans-74" transform="translate(1117.734375 0)"/>
      <use xlink:href="#DejaVuSans-6f" transform="translate(1156.943359 0)"/>
      <use xlink:href="#DejaVuSans-72" transform="translate(1218.125 0)"/>
      <use xlink:href="#DejaVuSans-20" transform="translate(1259.238281 0)"/>
      <use xlink:href="#DejaVuSans-28" transform="translate(1291.025391 0)"/>
      <use xlink:href="#DejaVuSans-41" transform="translate(1330.039062 0)"/>
      <use xlink:href="#DejaVuSans-55" transform="translate(1398.447266 0)"/>
      <use xlink:href="#DejaVuSans-43" transform="translate(1471.640625 0)"/>
      <use xlink:href="#DejaVuSans-20" transform="translate(1541.464844 0)"/>
      <use xlink:href="#DejaVuSans-3d" transform="translate(1573.251953 0)"/>
      <use xlink:href="#DejaVuSans-20" transform="translate(1657.041016 0)"/>
      <use xlink:href="#DejaVuSans-30" transform="translate(1688.828125 0)"/>
      <use xlink:href="#DejaVuSans-2e" transform="translate(1752.451172 0)"/>
      <use xlink:href="#DejaVuSans-39" transform="translate(1784.238281 0)"/>
      <use xlink:href="#DejaVuSans-39" transform="translate(1847.861328 0)"/>
      <use xlink:href="#DejaVuSans-29" transform="translate(1911.484375 0)"/>
     </g>
    </g>
    <g id="line2d_36">
     <path d="M 243.510937 325.780312 
L 253.510937 325.780312 
L 263.510937 325.780312 
" style="fill: none; stroke: #e377c2; stroke-width: 2; stroke-linecap: square"/>
    </g>
    <g id="text_20">
     <!-- Mineralokortikoidní receptor (AUC = 0.98) -->
     <g transform="translate(271.510937 329.280312) scale(0.1 -0.1)">
      <defs>
       <path id="DejaVuSans-4d" d="M 628 4666 
L 1569 4666 
L 2759 1491 
L 3956 4666 
L 4897 4666 
L 4897 0 
L 4281 0 
L 4281 4097 
L 3078 897 
L 2444 897 
L 1241 4097 
L 1241 0 
L 628 0 
L 628 4666 
z
" transform="scale(0.015625)"/>
      </defs>
      <use xlink:href="#DejaVuSans-4d"/>
      <use xlink:href="#DejaVuSans-69" transform="translate(86.279297 0)"/>
      <use xlink:href="#DejaVuSans-6e" transform="translate(114.0625 0)"/>
      <use xlink:href="#DejaVuSans-65" transform="translate(177.441406 0)"/>
      <use xlink:href="#DejaVuSans-72" transform="translate(238.964844 0)"/>
      <use xlink:href="#DejaVuSans-61" transform="translate(280.078125 0)"/>
      <use xlink:href="#DejaVuSans-6c" transform="translate(341.357422 0)"/>
      <use xlink:href="#DejaVuSans-6f" transform="translate(369.140625 0)"/>
      <use xlink:href="#DejaVuSans-6b" transform="translate(430.322266 0)"/>
      <use xlink:href="#DejaVuSans-6f" transform="translate(484.607422 0)"/>
      <use xlink:href="#DejaVuSans-72" transform="translate(545.789062 0)"/>
      <use xlink:href="#DejaVuSans-74" transform="translate(586.902344 0)"/>
      <use xlink:href="#DejaVuSans-69" transform="translate(626.111328 0)"/>
      <use xlink:href="#DejaVuSans-6b" transform="translate(653.894531 0)"/>
      <use xlink:href="#DejaVuSans-6f" transform="translate(708.179688 0)"/>
      <use xlink:href="#DejaVuSans-69" transform="translate(769.361328 0)"/>
      <use xlink:href="#DejaVuSans-64" transform="translate(797.144531 0)"/>
      <use xlink:href="#DejaVuSans-6e" transform="translate(860.621094 0)"/>
      <use xlink:href="#DejaVuSans-ed" transform="translate(924 0)"/>
      <use xlink:href="#DejaVuSans-20" transform="translate(951.783203 0)"/>
      <use xlink:href="#DejaVuSans-72" transform="translate(983.570312 0)"/>
      <use xlink:href="#DejaVuSans-65" transform="translate(1022.433594 0)"/>
      <use xlink:href="#DejaVuSans-63" transform="translate(1083.957031 0)"/>
      <use xlink:href="#DejaVuSans-65" transform="translate(1138.9375 0)"/>
      <use xlink:href="#DejaVuSans-70" transform="translate(1200.460938 0)"/>
      <use xlink:href="#DejaVuSans-74" transform="translate(1263.9375 0)"/>
      <use xlink:href="#DejaVuSans-6f" transform="translate(1303.146484 0)"/>
      <use xlink:href="#DejaVuSans-72" transform="translate(1364.328125 0)"/>
      <use xlink:href="#DejaVuSans-20" transform="translate(1405.441406 0)"/>
      <use xlink:href="#DejaVuSans-28" transform="translate(1437.228516 0)"/>
      <use xlink:href="#DejaVuSans-41" transform="translate(1476.242188 0)"/>
      <use xlink:href="#DejaVuSans-55" transform="translate(1544.650391 0)"/>
      <use xlink:href="#DejaVuSans-43" transform="translate(1617.84375 0)"/>
      <use xlink:href="#DejaVuSans-20" transform="translate(1687.667969 0)"/>
      <use xlink:href="#DejaVuSans-3d" transform="translate(1719.455078 0)"/>
      <use xlink:href="#DejaVuSans-20" transform="translate(1803.244141 0)"/>
      <use xlink:href="#DejaVuSans-30" transform="translate(1835.03125 0)"/>
      <use xlink:href="#DejaVuSans-2e" transform="translate(1898.654297 0)"/>
      <use xlink:href="#DejaVuSans-39" transform="translate(1930.441406 0)"/>
      <use xlink:href="#DejaVuSans-38" transform="translate(1994.064453 0)"/>
      <use xlink:href="#DejaVuSans-29" transform="translate(2057.6875 0)"/>
     </g>
    </g>
    <g id="line2d_37">
     <path d="M 243.510937 340.858437 
L 253.510937 340.858437 
L 263.510937 340.858437 
" style="fill: none; stroke: #bcbd22; stroke-width: 2; stroke-linecap: square"/>
    </g>
    <g id="text_21">
     <!-- Progesteronový receptor (AUC = 0.96) -->
     <g transform="translate(271.510937 344.358437) scale(0.1 -0.1)">
      <use xlink:href="#DejaVuSans-50"/>
      <use xlink:href="#DejaVuSans-72" transform="translate(58.552734 0)"/>
      <use xlink:href="#DejaVuSans-6f" transform="translate(97.416016 0)"/>
      <use xlink:href="#DejaVuSans-67" transform="translate(158.597656 0)"/>
      <use xlink:href="#DejaVuSans-65" transform="translate(222.074219 0)"/>
      <use xlink:href="#DejaVuSans-73" transform="translate(283.597656 0)"/>
      <use xlink:href="#DejaVuSans-74" transform="translate(335.697266 0)"/>
      <use xlink:href="#DejaVuSans-65" transform="translate(374.90625 0)"/>
      <use xlink:href="#DejaVuSans-72" transform="translate(436.429688 0)"/>
      <use xlink:href="#DejaVuSans-6f" transform="translate(475.292969 0)"/>
      <use xlink:href="#DejaVuSans-6e" transform="translate(536.474609 0)"/>
      <use xlink:href="#DejaVuSans-6f" transform="translate(599.853516 0)"/>
      <use xlink:href="#DejaVuSans-76" transform="translate(661.035156 0)"/>
      <use xlink:href="#DejaVuSans-fd" transform="translate(720.214844 0)"/>
      <use xlink:href="#DejaVuSans-20" transform="translate(779.394531 0)"/>
      <use xlink:href="#DejaVuSans-72" transform="translate(811.181641 0)"/>
      <use xlink:href="#DejaVuSans-65" transform="translate(850.044922 0)"/>
      <use xlink:href="#DejaVuSans-63" transform="translate(911.568359 0)"/>
      <use xlink:href="#DejaVuSans-65" transform="translate(966.548828 0)"/>
      <use xlink:href="#DejaVuSans-70" transform="translate(1028.072266 0)"/>
      <use xlink:href="#DejaVuSans-74" transform="translate(1091.548828 0)"/>
      <use xlink:href="#DejaVuSans-6f" transform="translate(1130.757812 0)"/>
      <use xlink:href="#DejaVuSans-72" transform="translate(1191.939453 0)"/>
      <use xlink:href="#DejaVuSans-20" transform="translate(1233.052734 0)"/>
      <use xlink:href="#DejaVuSans-28" transform="translate(1264.839844 0)"/>
      <use xlink:href="#DejaVuSans-41" transform="translate(1303.853516 0)"/>
      <use xlink:href="#DejaVuSans-55" transform="translate(1372.261719 0)"/>
      <use xlink:href="#DejaVuSans-43" transform="translate(1445.455078 0)"/>
      <use xlink:href="#DejaVuSans-20" transform="translate(1515.279297 0)"/>
      <use xlink:href="#DejaVuSans-3d" transform="translate(1547.066406 0)"/>
      <use xlink:href="#DejaVuSans-20" transform="translate(1630.855469 0)"/>
      <use xlink:href="#DejaVuSans-30" transform="translate(1662.642578 0)"/>
      <use xlink:href="#DejaVuSans-2e" transform="translate(1726.265625 0)"/>
      <use xlink:href="#DejaVuSans-39" transform="translate(1758.052734 0)"/>
      <use xlink:href="#DejaVuSans-36" transform="translate(1821.675781 0)"/>
      <use xlink:href="#DejaVuSans-29" transform="translate(1885.298828 0)"/>
     </g>
    </g>
   </g>
  </g>
 </g>
 <defs>
  <clipPath id="pd2a6302fda">
   <rect x="43.78125" y="22.798125" width="446.4" height="332.64"/>
  </clipPath>
 </defs>
</svg>
