<?xml version="1.0" encoding="utf-8" standalone="no"?>
<!DOCTYPE svg PUBLIC "-//W3C//DTD SVG 1.1//EN"
  "http://www.w3.org/Graphics/SVG/1.1/DTD/svg11.dtd">
<svg xmlns:xlink="http://www.w3.org/1999/xlink" width="851.812312pt" height="568.425pt" viewBox="0 0 851.812312 568.425" xmlns="http://www.w3.org/2000/svg" version="1.1">
 <metadata>
  <rdf:RDF xmlns:dc="http://purl.org/dc/elements/1.1/" xmlns:cc="http://creativecommons.org/ns#" xmlns:rdf="http://www.w3.org/1999/02/22-rdf-syntax-ns#">
   <cc:Work>
    <dc:type rdf:resource="http://purl.org/dc/dcmitype/StillImage"/>
    <dc:date>2026-03-29T14:20:01.245160</dc:date>
    <dc:format>image/svg+xml</dc:format>
    <dc:creator>
     <cc:Agent>
      <dc:title>Matplotlib v3.10.6, https://matplotlib.org/</dc:title>
     </cc:Agent>
    </dc:creator>
   </cc:Work>
  </rdf:RDF>
 </metadata>
 <defs>
  <style type="text/css">*{stroke-linejoin: round; stroke-linecap: butt}</style>
 </defs>
 <g id="figure_1">
  <g id="patch_1">
   <path d="M 0 568.425 
L 851.812312 568.425 
L 851.812312 0 
L 0 0 
z
" style="fill: #ffffff"/>
  </g>
  <g id="axes_1">
   <g id="patch_2">
    <path d="M 54.015 526.9975 
L 633.005 526.9975 
L 633.005 26.7675 
L 54.015 26.7675 
z
" style="fill: #ffffff"/>
   </g>
   <g id="matplotlib.axis_1">
    <g id="xtick_1">
     <g id="line2d_1">
      <path d="M 79.805846 526.9975 
L 79.805846 26.7675 
" clip-path="url(#p40812c87da)" style="fill: none; stroke-dasharray: 2.96,1.28; stroke-dashoffset: 0; stroke: #b0b0b0; stroke-opacity: 0.7; stroke-width: 0.8"/>
     </g>
     <g id="line2d_2">
      <defs>
       <path id="m1ae7f245c9" d="M 0 0 
L 0 3.5 
" style="stroke: #000000; stroke-width: 0.8"/>
      </defs>
      <g>
       <use xlink:href="#m1ae7f245c9" x="79.805846" y="526.9975" style="stroke: #000000; stroke-width: 0.8"/>
      </g>
     </g>
     <g id="text_1">
      <!-- 0 -->
      <g transform="translate(76.624596 541.595937) scale(0.1 -0.1)">
       <defs>
        <path id="DejaVuSans-30" d="M 2034 4250 
Q 1547 4250 1301 3770 
Q 1056 3291 1056 2328 
Q 1056 1369 1301 889 
Q 1547 409 2034 409 
Q 2525 409 2770 889 
Q 3016 1369 3016 2328 
Q 3016 3291 2770 3770 
Q 2525 4250 2034 4250 
z
M 2034 4750 
Q 2819 4750 3233 4129 
Q 3647 3509 3647 2328 
Q 3647 1150 3233 529 
Q 2819 -91 2034 -91 
Q 1250 -91 836 529 
Q 422 1150 422 2328 
Q 422 3509 836 4129 
Q 1250 4750 2034 4750 
z
" transform="scale(0.015625)"/>
       </defs>
       <use xlink:href="#DejaVuSans-30"/>
      </g>
     </g>
    </g>
    <g id="xtick_2">
     <g id="line2d_3">
      <path d="M 106.149917 526.9975 
L 106.149917 26.7675 
" clip-path="url(#p40812c87da)" style="fill: none; stroke-dasharray: 2.96,1.28; stroke-dashoffset: 0; stroke: #b0b0b0; stroke-opacity: 0.7; stroke-width: 0.8"/>
     </g>
     <g id="line2d_4">
      <g>
       <use xlink:href="#m1ae7f245c9" x="106.149917" y="526.9975" style="stroke: #000000; stroke-width: 0.8"/>
      </g>
     </g>
     <g id="text_2">
      <!-- 50 -->
      <g transform="translate(99.787417 541.595937) scale(0.1 -0.1)">
       <defs>
        <path id="DejaVuSans-35" d="M 691 4666 
L 3169 4666 
L 3169 4134 
L 1269 4134 
L 1269 2991 
Q 1406 3038 1543 3061 
Q 1681 3084 1819 3084 
Q 2600 3084 3056 2656 
Q 3513 2228 3513 1497 
Q 3513 744 3044 326 
Q 2575 -91 1722 -91 
Q 1428 -91 1123 -41 
Q 819 9 494 109 
L 494 744 
Q 775 591 1075 516 
Q 1375 441 1709 441 
Q 2250 441 2565 725 
Q 2881 1009 2881 1497 
Q 2881 1984 2565 2268 
Q 2250 2553 1709 2553 
Q 1456 2553 1204 2497 
Q 953 2441 691 2322 
L 691 4666 
z
" transform="scale(0.015625)"/>
       </defs>
       <use xlink:href="#DejaVuSans-35"/>
       <use xlink:href="#DejaVuSans-30" transform="translate(63.623047 0)"/>
      </g>
     </g>
    </g>
    <g id="xtick_3">
     <g id="line2d_5">
      <path d="M 132.493989 526.9975 
L 132.493989 26.7675 
" clip-path="url(#p40812c87da)" style="fill: none; stroke-dasharray: 2.96,1.28; stroke-dashoffset: 0; stroke: #b0b0b0; stroke-opacity: 0.7; stroke-width: 0.8"/>
     </g>
     <g id="line2d_6">
      <g>
       <use xlink:href="#m1ae7f245c9" x="132.493989" y="526.9975" style="stroke: #000000; stroke-width: 0.8"/>
      </g>
     </g>
     <g id="text_3">
      <!-- 100 -->
      <g transform="translate(122.950239 541.595937) scale(0.1 -0.1)">
       <defs>
        <path id="DejaVuSans-31" d="M 794 531 
L 1825 531 
L 1825 4091 
L 703 3866 
L 703 4441 
L 1819 4666 
L 2450 4666 
L 2450 531 
L 3481 531 
L 3481 0 
L 794 0 
L 794 531 
z
" transform="scale(0.015625)"/>
       </defs>
       <use xlink:href="#DejaVuSans-31"/>
       <use xlink:href="#DejaVuSans-30" transform="translate(63.623047 0)"/>
       <use xlink:href="#DejaVuSans-30" transform="translate(127.246094 0)"/>
      </g>
     </g>
    </g>
    <g id="xtick_4">
     <g id="line2d_7">
      <path d="M 158.83806 526.9975 
L 158.83806 26.7675 
" clip-path="url(#p40812c87da)" style="fill: none; stroke-dasharray: 2.96,1.28; stroke-dashoffset: 0; stroke: #b0b0b0; stroke-opacity: 0.7; stroke-width: 0.8"/>
     </g>
     <g id="line2d_8">
      <g>
       <use xlink:href="#m1ae7f245c9" x="158.83806" y="526.9975" style="stroke: #000000; stroke-width: 0.8"/>
      </g>
     </g>
     <g id="text_4">
      <!-- 150 -->
      <g transform="translate(149.29431 541.595937) scale(0.1 -0.1)">
       <use xlink:href="#DejaVuSans-31"/>
       <use xlink:href="#DejaVuSans-35" transform="translate(63.623047 0)"/>
       <use xlink:href="#DejaVuSans-30" transform="translate(127.246094 0)"/>
      </g>
     </g>
    </g>
    <g id="xtick_5">
     <g id="line2d_9">
      <path d="M 185.182131 526.9975 
L 185.182131 26.7675 
" clip-path="url(#p40812c87da)" style="fill: none; stroke-dasharray: 2.96,1.28; stroke-dashoffset: 0; stroke: #b0b0b0; stroke-opacity: 0.7; stroke-width: 0.8"/>
     </g>
     <g id="line2d_10">
      <g>
       <use xlink:href="#m1ae7f245c9" x="185.182131" y="526.9975" style="stroke: #000000; stroke-width: 0.8"/>
      </g>
     </g>
     <g id="text_5">
      <!-- 200 -->
      <g transform="translate(175.638381 541.595937) scale(0.1 -0.1)">
       <defs>
        <path id="DejaVuSans-32" d="M 1228 531 
L 3431 531 
L 3431 0 
L 469 0 
L 469 531 
Q 828 903 1448 1529 
Q 2069 2156 2228 2338 
Q 2531 2678 2651 2914 
Q 2772 3150 2772 3378 
Q 2772 3750 2511 3984 
Q 2250 4219 1831 4219 
Q 1534 4219 1204 4116 
Q 875 4013 500 3803 
L 500 4441 
Q 881 4594 1212 4672 
Q 1544 4750 1819 4750 
Q 2544 4750 2975 4387 
Q 3406 4025 3406 3419 
Q 3406 3131 3298 2873 
Q 3191 2616 2906 2266 
Q 2828 2175 2409 1742 
Q 1991 1309 1228 531 
z
" transform="scale(0.015625)"/>
       </defs>
       <use xlink:href="#DejaVuSans-32"/>
       <use xlink:href="#DejaVuSans-30" transform="translate(63.623047 0)"/>
       <use xlink:href="#DejaVuSans-30" transform="translate(127.246094 0)"/>
      </g>
     </g>
    </g>
    <g id="xtick_6">
     <g id="line2d_11">
      <path d="M 211.526203 526.9975 
L 211.526203 26.7675 
" clip-path="url(#p40812c87da)" style="fill: none; stroke-dasharray: 2.96,1.28; stroke-dashoffset: 0; stroke: #b0b0b0; stroke-opacity: 0.7; stroke-width: 0.8"/>
     </g>
     <g id="line2d_12">
      <g>
       <use xlink:href="#m1ae7f245c9" x="211.526203" y="526.9975" style="stroke: #000000; stroke-width: 0.8"/>
      </g>
     </g>
     <g id="text_6">
      <!-- 250 -->
      <g transform="translate(201.982453 541.595937) scale(0.1 -0.1)">
       <use xlink:href="#DejaVuSans-32"/>
       <use xlink:href="#DejaVuSans-35" transform="translate(63.623047 0)"/>
       <use xlink:href="#DejaVuSans-30" transform="translate(127.246094 0)"/>
      </g>
     </g>
    </g>
    <g id="xtick_7">
     <g id="line2d_13">
      <path d="M 237.870274 526.9975 
L 237.870274 26.7675 
" clip-path="url(#p40812c87da)" style="fill: none; stroke-dasharray: 2.96,1.28; stroke-dashoffset: 0; stroke: #b0b0b0; stroke-opacity: 0.7; stroke-width: 0.8"/>
     </g>
     <g id="line2d_14">
      <g>
       <use xlink:href="#m1ae7f245c9" x="237.870274" y="526.9975" style="stroke: #000000; stroke-width: 0.8"/>
      </g>
     </g>
     <g id="text_7">
      <!-- 300 -->
      <g transform="translate(228.326524 541.595937) scale(0.1 -0.1)">
       <defs>
        <path id="DejaVuSans-33" d="M 2597 2516 
Q 3050 2419 3304 2112 
Q 3559 1806 3559 1356 
Q 3559 666 3084 287 
Q 2609 -91 1734 -91 
Q 1441 -91 1130 -33 
Q 819 25 488 141 
L 488 750 
Q 750 597 1062 519 
Q 1375 441 1716 441 
Q 2309 441 2620 675 
Q 2931 909 2931 1356 
Q 2931 1769 2642 2001 
Q 2353 2234 1838 2234 
L 1294 2234 
L 1294 2753 
L 1863 2753 
Q 2328 2753 2575 2939 
Q 2822 3125 2822 3475 
Q 2822 3834 2567 4026 
Q 2313 4219 1838 4219 
Q 1578 4219 1281 4162 
Q 984 4106 628 3988 
L 628 4550 
Q 988 4650 1302 4700 
Q 1616 4750 1894 4750 
Q 2613 4750 3031 4423 
Q 3450 4097 3450 3541 
Q 3450 3153 3228 2886 
Q 3006 2619 2597 2516 
z
" transform="scale(0.015625)"/>
       </defs>
       <use xlink:href="#DejaVuSans-33"/>
       <use xlink:href="#DejaVuSans-30" transform="translate(63.623047 0)"/>
       <use xlink:href="#DejaVuSans-30" transform="translate(127.246094 0)"/>
      </g>
     </g>
    </g>
    <g id="xtick_8">
     <g id="line2d_15">
      <path d="M 264.214345 526.9975 
L 264.214345 26.7675 
" clip-path="url(#p40812c87da)" style="fill: none; stroke-dasharray: 2.96,1.28; stroke-dashoffset: 0; stroke: #b0b0b0; stroke-opacity: 0.7; stroke-width: 0.8"/>
     </g>
     <g id="line2d_16">
      <g>
       <use xlink:href="#m1ae7f245c9" x="264.214345" y="526.9975" style="stroke: #000000; stroke-width: 0.8"/>
      </g>
     </g>
     <g id="text_8">
      <!-- 350 -->
      <g transform="translate(254.670595 541.595937) scale(0.1 -0.1)">
       <use xlink:href="#DejaVuSans-33"/>
       <use xlink:href="#DejaVuSans-35" transform="translate(63.623047 0)"/>
       <use xlink:href="#DejaVuSans-30" transform="translate(127.246094 0)"/>
      </g>
     </g>
    </g>
    <g id="xtick_9">
     <g id="line2d_17">
      <path d="M 290.558417 526.9975 
L 290.558417 26.7675 
" clip-path="url(#p40812c87da)" style="fill: none; stroke-dasharray: 2.96,1.28; stroke-dashoffset: 0; stroke: #b0b0b0; stroke-opacity: 0.7; stroke-width: 0.8"/>
     </g>
     <g id="line2d_18">
      <g>
       <use xlink:href="#m1ae7f245c9" x="290.558417" y="526.9975" style="stroke: #000000; stroke-width: 0.8"/>
      </g>
     </g>
     <g id="text_9">
      <!-- 400 -->
      <g transform="translate(281.014667 541.595937) scale(0.1 -0.1)">
       <defs>
        <path id="DejaVuSans-34" d="M 2419 4116 
L 825 1625 
L 2419 1625 
L 2419 4116 
z
M 2253 4666 
L 3047 4666 
L 3047 1625 
L 3713 1625 
L 3713 1100 
L 3047 1100 
L 3047 0 
L 2419 0 
L 2419 1100 
L 313 1100 
L 313 1709 
L 2253 4666 
z
" transform="scale(0.015625)"/>
       </defs>
       <use xlink:href="#DejaVuSans-34"/>
       <use xlink:href="#DejaVuSans-30" transform="translate(63.623047 0)"/>
       <use xlink:href="#DejaVuSans-30" transform="translate(127.246094 0)"/>
      </g>
     </g>
    </g>
    <g id="xtick_10">
     <g id="line2d_19">
      <path d="M 316.902488 526.9975 
L 316.902488 26.7675 
" clip-path="url(#p40812c87da)" style="fill: none; stroke-dasharray: 2.96,1.28; stroke-dashoffset: 0; stroke: #b0b0b0; stroke-opacity: 0.7; stroke-width: 0.8"/>
     </g>
     <g id="line2d_20">
      <g>
       <use xlink:href="#m1ae7f245c9" x="316.902488" y="526.9975" style="stroke: #000000; stroke-width: 0.8"/>
      </g>
     </g>
     <g id="text_10">
      <!-- 450 -->
      <g transform="translate(307.358738 541.595937) scale(0.1 -0.1)">
       <use xlink:href="#DejaVuSans-34"/>
       <use xlink:href="#DejaVuSans-35" transform="translate(63.623047 0)"/>
       <use xlink:href="#DejaVuSans-30" transform="translate(127.246094 0)"/>
      </g>
     </g>
    </g>
    <g id="xtick_11">
     <g id="line2d_21">
      <path d="M 343.246559 526.9975 
L 343.246559 26.7675 
" clip-path="url(#p40812c87da)" style="fill: none; stroke-dasharray: 2.96,1.28; stroke-dashoffset: 0; stroke: #b0b0b0; stroke-opacity: 0.7; stroke-width: 0.8"/>
     </g>
     <g id="line2d_22">
      <g>
       <use xlink:href="#m1ae7f245c9" x="343.246559" y="526.9975" style="stroke: #000000; stroke-width: 0.8"/>
      </g>
     </g>
     <g id="text_11">
      <!-- 500 -->
      <g transform="translate(333.702809 541.595937) scale(0.1 -0.1)">
       <use xlink:href="#DejaVuSans-35"/>
       <use xlink:href="#DejaVuSans-30" transform="translate(63.623047 0)"/>
       <use xlink:href="#DejaVuSans-30" transform="translate(127.246094 0)"/>
      </g>
     </g>
    </g>
    <g id="xtick_12">
     <g id="line2d_23">
      <path d="M 369.590631 526.9975 
L 369.590631 26.7675 
" clip-path="url(#p40812c87da)" style="fill: none; stroke-dasharray: 2.96,1.28; stroke-dashoffset: 0; stroke: #b0b0b0; stroke-opacity: 0.7; stroke-width: 0.8"/>
     </g>
     <g id="line2d_24">
      <g>
       <use xlink:href="#m1ae7f245c9" x="369.590631" y="526.9975" style="stroke: #000000; stroke-width: 0.8"/>
      </g>
     </g>
     <g id="text_12">
      <!-- 550 -->
      <g transform="translate(360.046881 541.595937) scale(0.1 -0.1)">
       <use xlink:href="#DejaVuSans-35"/>
       <use xlink:href="#DejaVuSans-35" transform="translate(63.623047 0)"/>
       <use xlink:href="#DejaVuSans-30" transform="translate(127.246094 0)"/>
      </g>
     </g>
    </g>
    <g id="xtick_13">
     <g id="line2d_25">
      <path d="M 395.934702 526.9975 
L 395.934702 26.7675 
" clip-path="url(#p40812c87da)" style="fill: none; stroke-dasharray: 2.96,1.28; stroke-dashoffset: 0; stroke: #b0b0b0; stroke-opacity: 0.7; stroke-width: 0.8"/>
     </g>
     <g id="line2d_26">
      <g>
       <use xlink:href="#m1ae7f245c9" x="395.934702" y="526.9975" style="stroke: #000000; stroke-width: 0.8"/>
      </g>
     </g>
     <g id="text_13">
      <!-- 600 -->
      <g transform="translate(386.390952 541.595937) scale(0.1 -0.1)">
       <defs>
        <path id="DejaVuSans-36" d="M 2113 2584 
Q 1688 2584 1439 2293 
Q 1191 2003 1191 1497 
Q 1191 994 1439 701 
Q 1688 409 2113 409 
Q 2538 409 2786 701 
Q 3034 994 3034 1497 
Q 3034 2003 2786 2293 
Q 2538 2584 2113 2584 
z
M 3366 4563 
L 3366 3988 
Q 3128 4100 2886 4159 
Q 2644 4219 2406 4219 
Q 1781 4219 1451 3797 
Q 1122 3375 1075 2522 
Q 1259 2794 1537 2939 
Q 1816 3084 2150 3084 
Q 2853 3084 3261 2657 
Q 3669 2231 3669 1497 
Q 3669 778 3244 343 
Q 2819 -91 2113 -91 
Q 1303 -91 875 529 
Q 447 1150 447 2328 
Q 447 3434 972 4092 
Q 1497 4750 2381 4750 
Q 2619 4750 2861 4703 
Q 3103 4656 3366 4563 
z
" transform="scale(0.015625)"/>
       </defs>
       <use xlink:href="#DejaVuSans-36"/>
       <use xlink:href="#DejaVuSans-30" transform="translate(63.623047 0)"/>
       <use xlink:href="#DejaVuSans-30" transform="translate(127.246094 0)"/>
      </g>
     </g>
    </g>
    <g id="xtick_14">
     <g id="line2d_27">
      <path d="M 422.278773 526.9975 
L 422.278773 26.7675 
" clip-path="url(#p40812c87da)" style="fill: none; stroke-dasharray: 2.96,1.28; stroke-dashoffset: 0; stroke: #b0b0b0; stroke-opacity: 0.7; stroke-width: 0.8"/>
     </g>
     <g id="line2d_28">
      <g>
       <use xlink:href="#m1ae7f245c9" x="422.278773" y="526.9975" style="stroke: #000000; stroke-width: 0.8"/>
      </g>
     </g>
     <g id="text_14">
      <!-- 650 -->
      <g transform="translate(412.735023 541.595937) scale(0.1 -0.1)">
       <use xlink:href="#DejaVuSans-36"/>
       <use xlink:href="#DejaVuSans-35" transform="translate(63.623047 0)"/>
       <use xlink:href="#DejaVuSans-30" transform="translate(127.246094 0)"/>
      </g>
     </g>
    </g>
    <g id="xtick_15">
     <g id="line2d_29">
      <path d="M 448.622845 526.9975 
L 448.622845 26.7675 
" clip-path="url(#p40812c87da)" style="fill: none; stroke-dasharray: 2.96,1.28; stroke-dashoffset: 0; stroke: #b0b0b0; stroke-opacity: 0.7; stroke-width: 0.8"/>
     </g>
     <g id="line2d_30">
      <g>
       <use xlink:href="#m1ae7f245c9" x="448.622845" y="526.9975" style="stroke: #000000; stroke-width: 0.8"/>
      </g>
     </g>
     <g id="text_15">
      <!-- 700 -->
      <g transform="translate(439.079095 541.595937) scale(0.1 -0.1)">
       <defs>
        <path id="DejaVuSans-37" d="M 525 4666 
L 3525 4666 
L 3525 4397 
L 1831 0 
L 1172 0 
L 2766 4134 
L 525 4134 
L 525 4666 
z
" transform="scale(0.015625)"/>
       </defs>
       <use xlink:href="#DejaVuSans-37"/>
       <use xlink:href="#DejaVuSans-30" transform="translate(63.623047 0)"/>
       <use xlink:href="#DejaVuSans-30" transform="translate(127.246094 0)"/>
      </g>
     </g>
    </g>
    <g id="xtick_16">
     <g id="line2d_31">
      <path d="M 474.966916 526.9975 
L 474.966916 26.7675 
" clip-path="url(#p40812c87da)" style="fill: none; stroke-dasharray: 2.96,1.28; stroke-dashoffset: 0; stroke: #b0b0b0; stroke-opacity: 0.7; stroke-width: 0.8"/>
     </g>
     <g id="line2d_32">
      <g>
       <use xlink:href="#m1ae7f245c9" x="474.966916" y="526.9975" style="stroke: #000000; stroke-width: 0.8"/>
      </g>
     </g>
     <g id="text_16">
      <!-- 750 -->
      <g transform="translate(465.423166 541.595937) scale(0.1 -0.1)">
       <use xlink:href="#DejaVuSans-37"/>
       <use xlink:href="#DejaVuSans-35" transform="translate(63.623047 0)"/>
       <use xlink:href="#DejaVuSans-30" transform="translate(127.246094 0)"/>
      </g>
     </g>
    </g>
    <g id="xtick_17">
     <g id="line2d_33">
      <path d="M 501.310987 526.9975 
L 501.310987 26.7675 
" clip-path="url(#p40812c87da)" style="fill: none; stroke-dasharray: 2.96,1.28; stroke-dashoffset: 0; stroke: #b0b0b0; stroke-opacity: 0.7; stroke-width: 0.8"/>
     </g>
     <g id="line2d_34">
      <g>
       <use xlink:href="#m1ae7f245c9" x="501.310987" y="526.9975" style="stroke: #000000; stroke-width: 0.8"/>
      </g>
     </g>
     <g id="text_17">
      <!-- 800 -->
      <g transform="translate(491.767237 541.595937) scale(0.1 -0.1)">
       <defs>
        <path id="DejaVuSans-38" d="M 2034 2216 
Q 1584 2216 1326 1975 
Q 1069 1734 1069 1313 
Q 1069 891 1326 650 
Q 1584 409 2034 409 
Q 2484 409 2743 651 
Q 3003 894 3003 1313 
Q 3003 1734 2745 1975 
Q 2488 2216 2034 2216 
z
M 1403 2484 
Q 997 2584 770 2862 
Q 544 3141 544 3541 
Q 544 4100 942 4425 
Q 1341 4750 2034 4750 
Q 2731 4750 3128 4425 
Q 3525 4100 3525 3541 
Q 3525 3141 3298 2862 
Q 3072 2584 2669 2484 
Q 3125 2378 3379 2068 
Q 3634 1759 3634 1313 
Q 3634 634 3220 271 
Q 2806 -91 2034 -91 
Q 1263 -91 848 271 
Q 434 634 434 1313 
Q 434 1759 690 2068 
Q 947 2378 1403 2484 
z
M 1172 3481 
Q 1172 3119 1398 2916 
Q 1625 2713 2034 2713 
Q 2441 2713 2670 2916 
Q 2900 3119 2900 3481 
Q 2900 3844 2670 4047 
Q 2441 4250 2034 4250 
Q 1625 4250 1398 4047 
Q 1172 3844 1172 3481 
z
" transform="scale(0.015625)"/>
       </defs>
       <use xlink:href="#DejaVuSans-38"/>
       <use xlink:href="#DejaVuSans-30" transform="translate(63.623047 0)"/>
       <use xlink:href="#DejaVuSans-30" transform="translate(127.246094 0)"/>
      </g>
     </g>
    </g>
    <g id="xtick_18">
     <g id="line2d_35">
      <path d="M 527.655059 526.9975 
L 527.655059 26.7675 
" clip-path="url(#p40812c87da)" style="fill: none; stroke-dasharray: 2.96,1.28; stroke-dashoffset: 0; stroke: #b0b0b0; stroke-opacity: 0.7; stroke-width: 0.8"/>
     </g>
     <g id="line2d_36">
      <g>
       <use xlink:href="#m1ae7f245c9" x="527.655059" y="526.9975" style="stroke: #000000; stroke-width: 0.8"/>
      </g>
     </g>
     <g id="text_18">
      <!-- 850 -->
      <g transform="translate(518.111309 541.595937) scale(0.1 -0.1)">
       <use xlink:href="#DejaVuSans-38"/>
       <use xlink:href="#DejaVuSans-35" transform="translate(63.623047 0)"/>
       <use xlink:href="#DejaVuSans-30" transform="translate(127.246094 0)"/>
      </g>
     </g>
    </g>
    <g id="xtick_19">
     <g id="line2d_37">
      <path d="M 553.99913 526.9975 
L 553.99913 26.7675 
" clip-path="url(#p40812c87da)" style="fill: none; stroke-dasharray: 2.96,1.28; stroke-dashoffset: 0; stroke: #b0b0b0; stroke-opacity: 0.7; stroke-width: 0.8"/>
     </g>
     <g id="line2d_38">
      <g>
       <use xlink:href="#m1ae7f245c9" x="553.99913" y="526.9975" style="stroke: #000000; stroke-width: 0.8"/>
      </g>
     </g>
     <g id="text_19">
      <!-- 900 -->
      <g transform="translate(544.45538 541.595937) scale(0.1 -0.1)">
       <defs>
        <path id="DejaVuSans-39" d="M 703 97 
L 703 672 
Q 941 559 1184 500 
Q 1428 441 1663 441 
Q 2288 441 2617 861 
Q 2947 1281 2994 2138 
Q 2813 1869 2534 1725 
Q 2256 1581 1919 1581 
Q 1219 1581 811 2004 
Q 403 2428 403 3163 
Q 403 3881 828 4315 
Q 1253 4750 1959 4750 
Q 2769 4750 3195 4129 
Q 3622 3509 3622 2328 
Q 3622 1225 3098 567 
Q 2575 -91 1691 -91 
Q 1453 -91 1209 -44 
Q 966 3 703 97 
z
M 1959 2075 
Q 2384 2075 2632 2365 
Q 2881 2656 2881 3163 
Q 2881 3666 2632 3958 
Q 2384 4250 1959 4250 
Q 1534 4250 1286 3958 
Q 1038 3666 1038 3163 
Q 1038 2656 1286 2365 
Q 1534 2075 1959 2075 
z
" transform="scale(0.015625)"/>
       </defs>
       <use xlink:href="#DejaVuSans-39"/>
       <use xlink:href="#DejaVuSans-30" transform="translate(63.623047 0)"/>
       <use xlink:href="#DejaVuSans-30" transform="translate(127.246094 0)"/>
      </g>
     </g>
    </g>
    <g id="xtick_20">
     <g id="line2d_39">
      <path d="M 580.343201 526.9975 
L 580.343201 26.7675 
" clip-path="url(#p40812c87da)" style="fill: none; stroke-dasharray: 2.96,1.28; stroke-dashoffset: 0; stroke: #b0b0b0; stroke-opacity: 0.7; stroke-width: 0.8"/>
     </g>
     <g id="line2d_40">
      <g>
       <use xlink:href="#m1ae7f245c9" x="580.343201" y="526.9975" style="stroke: #000000; stroke-width: 0.8"/>
      </g>
     </g>
     <g id="text_20">
      <!-- 950 -->
      <g transform="translate(570.799451 541.595937) scale(0.1 -0.1)">
       <use xlink:href="#DejaVuSans-39"/>
       <use xlink:href="#DejaVuSans-35" transform="translate(63.623047 0)"/>
       <use xlink:href="#DejaVuSans-30" transform="translate(127.246094 0)"/>
      </g>
     </g>
    </g>
    <g id="xtick_21">
     <g id="line2d_41">
      <path d="M 606.687273 526.9975 
L 606.687273 26.7675 
" clip-path="url(#p40812c87da)" style="fill: none; stroke-dasharray: 2.96,1.28; stroke-dashoffset: 0; stroke: #b0b0b0; stroke-opacity: 0.7; stroke-width: 0.8"/>
     </g>
     <g id="line2d_42">
      <g>
       <use xlink:href="#m1ae7f245c9" x="606.687273" y="526.9975" style="stroke: #000000; stroke-width: 0.8"/>
      </g>
     </g>
     <g id="text_21">
      <!-- 1000 -->
      <g transform="translate(593.962273 541.595937) scale(0.1 -0.1)">
       <use xlink:href="#DejaVuSans-31"/>
       <use xlink:href="#DejaVuSans-30" transform="translate(63.623047 0)"/>
       <use xlink:href="#DejaVuSans-30" transform="translate(127.246094 0)"/>
       <use xlink:href="#DejaVuSans-30" transform="translate(190.869141 0)"/>
      </g>
     </g>
    </g>
    <g id="text_22">
     <!-- Počet stromů -->
     <g transform="translate(297.486094 558.313437) scale(0.14 -0.14)">
      <defs>
       <path id="DejaVuSans-50" d="M 1259 4147 
L 1259 2394 
L 2053 2394 
Q 2494 2394 2734 2622 
Q 2975 2850 2975 3272 
Q 2975 3691 2734 3919 
Q 2494 4147 2053 4147 
L 1259 4147 
z
M 628 4666 
L 2053 4666 
Q 2838 4666 3239 4311 
Q 3641 3956 3641 3272 
Q 3641 2581 3239 2228 
Q 2838 1875 2053 1875 
L 1259 1875 
L 1259 0 
L 628 0 
L 628 4666 
z
" transform="scale(0.015625)"/>
       <path id="DejaVuSans-6f" d="M 1959 3097 
Q 1497 3097 1228 2736 
Q 959 2375 959 1747 
Q 959 1119 1226 758 
Q 1494 397 1959 397 
Q 2419 397 2687 759 
Q 2956 1122 2956 1747 
Q 2956 2369 2687 2733 
Q 2419 3097 1959 3097 
z
M 1959 3584 
Q 2709 3584 3137 3096 
Q 3566 2609 3566 1747 
Q 3566 888 3137 398 
Q 2709 -91 1959 -91 
Q 1206 -91 779 398 
Q 353 888 353 1747 
Q 353 2609 779 3096 
Q 1206 3584 1959 3584 
z
" transform="scale(0.015625)"/>
       <path id="DejaVuSans-10d" d="M 3122 3366 
L 3122 2828 
Q 2878 2963 2633 3030 
Q 2388 3097 2138 3097 
Q 1578 3097 1268 2742 
Q 959 2388 959 1747 
Q 959 1106 1268 751 
Q 1578 397 2138 397 
Q 2388 397 2633 464 
Q 2878 531 3122 666 
L 3122 134 
Q 2881 22 2623 -34 
Q 2366 -91 2075 -91 
Q 1284 -91 818 406 
Q 353 903 353 1747 
Q 353 2603 823 3093 
Q 1294 3584 2113 3584 
Q 2378 3584 2631 3529 
Q 2884 3475 3122 3366 
z
M 1801 3944 
L 1035 5119 
L 1470 5119 
L 2032 4353 
L 2595 5119 
L 3029 5119 
L 2263 3944 
L 1801 3944 
z
" transform="scale(0.015625)"/>
       <path id="DejaVuSans-65" d="M 3597 1894 
L 3597 1613 
L 953 1613 
Q 991 1019 1311 708 
Q 1631 397 2203 397 
Q 2534 397 2845 478 
Q 3156 559 3463 722 
L 3463 178 
Q 3153 47 2828 -22 
Q 2503 -91 2169 -91 
Q 1331 -91 842 396 
Q 353 884 353 1716 
Q 353 2575 817 3079 
Q 1281 3584 2069 3584 
Q 2775 3584 3186 3129 
Q 3597 2675 3597 1894 
z
M 3022 2063 
Q 3016 2534 2758 2815 
Q 2500 3097 2075 3097 
Q 1594 3097 1305 2825 
Q 1016 2553 972 2059 
L 3022 2063 
z
" transform="scale(0.015625)"/>
       <path id="DejaVuSans-74" d="M 1172 4494 
L 1172 3500 
L 2356 3500 
L 2356 3053 
L 1172 3053 
L 1172 1153 
Q 1172 725 1289 603 
Q 1406 481 1766 481 
L 2356 481 
L 2356 0 
L 1766 0 
Q 1100 0 847 248 
Q 594 497 594 1153 
L 594 3053 
L 172 3053 
L 172 3500 
L 594 3500 
L 594 4494 
L 1172 4494 
z
" transform="scale(0.015625)"/>
       <path id="DejaVuSans-20" transform="scale(0.015625)"/>
       <path id="DejaVuSans-73" d="M 2834 3397 
L 2834 2853 
Q 2591 2978 2328 3040 
Q 2066 3103 1784 3103 
Q 1356 3103 1142 2972 
Q 928 2841 928 2578 
Q 928 2378 1081 2264 
Q 1234 2150 1697 2047 
L 1894 2003 
Q 2506 1872 2764 1633 
Q 3022 1394 3022 966 
Q 3022 478 2636 193 
Q 2250 -91 1575 -91 
Q 1294 -91 989 -36 
Q 684 19 347 128 
L 347 722 
Q 666 556 975 473 
Q 1284 391 1588 391 
Q 1994 391 2212 530 
Q 2431 669 2431 922 
Q 2431 1156 2273 1281 
Q 2116 1406 1581 1522 
L 1381 1569 
Q 847 1681 609 1914 
Q 372 2147 372 2553 
Q 372 3047 722 3315 
Q 1072 3584 1716 3584 
Q 2034 3584 2315 3537 
Q 2597 3491 2834 3397 
z
" transform="scale(0.015625)"/>
       <path id="DejaVuSans-72" d="M 2631 2963 
Q 2534 3019 2420 3045 
Q 2306 3072 2169 3072 
Q 1681 3072 1420 2755 
Q 1159 2438 1159 1844 
L 1159 0 
L 581 0 
L 581 3500 
L 1159 3500 
L 1159 2956 
Q 1341 3275 1631 3429 
Q 1922 3584 2338 3584 
Q 2397 3584 2469 3576 
Q 2541 3569 2628 3553 
L 2631 2963 
z
" transform="scale(0.015625)"/>
       <path id="DejaVuSans-6d" d="M 3328 2828 
Q 3544 3216 3844 3400 
Q 4144 3584 4550 3584 
Q 5097 3584 5394 3201 
Q 5691 2819 5691 2113 
L 5691 0 
L 5113 0 
L 5113 2094 
Q 5113 2597 4934 2840 
Q 4756 3084 4391 3084 
Q 3944 3084 3684 2787 
Q 3425 2491 3425 1978 
L 3425 0 
L 2847 0 
L 2847 2094 
Q 2847 2600 2669 2842 
Q 2491 3084 2119 3084 
Q 1678 3084 1418 2786 
Q 1159 2488 1159 1978 
L 1159 0 
L 581 0 
L 581 3500 
L 1159 3500 
L 1159 2956 
Q 1356 3278 1631 3431 
Q 1906 3584 2284 3584 
Q 2666 3584 2933 3390 
Q 3200 3197 3328 2828 
z
" transform="scale(0.015625)"/>
       <path id="DejaVuSans-16f" d="M 544 1381 
L 544 3500 
L 1119 3500 
L 1119 1403 
Q 1119 906 1312 657 
Q 1506 409 1894 409 
Q 2359 409 2629 706 
Q 2900 1003 2900 1516 
L 2900 3500 
L 3475 3500 
L 3475 0 
L 2900 0 
L 2900 538 
Q 2691 219 2414 64 
Q 2138 -91 1772 -91 
Q 1169 -91 856 284 
Q 544 659 544 1381 
z
M 1991 3584 
L 1991 3584 
z
M 2459 4571 
Q 2459 4767 2321 4904 
Q 2184 5042 1984 5042 
Q 1781 5042 1645 4906 
Q 1509 4771 1509 4571 
Q 1509 4367 1645 4231 
Q 1781 4096 1984 4096 
Q 2184 4096 2321 4233 
Q 2459 4371 2459 4571 
z
M 2840 4571 
Q 2840 4211 2591 3961 
Q 2343 3711 1984 3711 
Q 1625 3711 1376 3961 
Q 1128 4211 1128 4571 
Q 1128 4930 1376 5178 
Q 1625 5427 1984 5427 
Q 2343 5427 2591 5178 
Q 2840 4930 2840 4571 
z
" transform="scale(0.015625)"/>
      </defs>
      <use xlink:href="#DejaVuSans-50"/>
      <use xlink:href="#DejaVuSans-6f" transform="translate(56.677734 0)"/>
      <use xlink:href="#DejaVuSans-10d" transform="translate(117.859375 0)"/>
      <use xlink:href="#DejaVuSans-65" transform="translate(172.839844 0)"/>
      <use xlink:href="#DejaVuSans-74" transform="translate(234.363281 0)"/>
      <use xlink:href="#DejaVuSans-20" transform="translate(273.572266 0)"/>
      <use xlink:href="#DejaVuSans-73" transform="translate(305.359375 0)"/>
      <use xlink:href="#DejaVuSans-74" transform="translate(357.458984 0)"/>
      <use xlink:href="#DejaVuSans-72" transform="translate(396.667969 0)"/>
      <use xlink:href="#DejaVuSans-6f" transform="translate(435.53125 0)"/>
      <use xlink:href="#DejaVuSans-6d" transform="translate(496.712891 0)"/>
      <use xlink:href="#DejaVuSans-16f" transform="translate(594.125 0)"/>
     </g>
    </g>
   </g>
   <g id="matplotlib.axis_2">
    <g id="ytick_1">
     <g id="line2d_43">
      <path d="M 54.015 526.606732 
L 633.005 526.606732 
" clip-path="url(#p40812c87da)" style="fill: none; stroke-dasharray: 2.96,1.28; stroke-dashoffset: 0; stroke: #b0b0b0; stroke-opacity: 0.7; stroke-width: 0.8"/>
     </g>
     <g id="line2d_44">
      <defs>
       <path id="mc913663838" d="M 0 0 
L -3.5 0 
" style="stroke: #000000; stroke-width: 0.8"/>
      </defs>
      <g>
       <use xlink:href="#mc913663838" x="54.015" y="526.606732" style="stroke: #000000; stroke-width: 0.8"/>
      </g>
     </g>
     <g id="text_23">
      <!-- 0.82 -->
      <g transform="translate(24.749375 530.405951) scale(0.1 -0.1)">
       <defs>
        <path id="DejaVuSans-2e" d="M 684 794 
L 1344 794 
L 1344 0 
L 684 0 
L 684 794 
z
" transform="scale(0.015625)"/>
       </defs>
       <use xlink:href="#DejaVuSans-30"/>
       <use xlink:href="#DejaVuSans-2e" transform="translate(63.623047 0)"/>
       <use xlink:href="#DejaVuSans-38" transform="translate(95.410156 0)"/>
       <use xlink:href="#DejaVuSans-32" transform="translate(159.033203 0)"/>
      </g>
     </g>
    </g>
    <g id="ytick_2">
     <g id="line2d_45">
      <path d="M 54.015 470.591897 
L 633.005 470.591897 
" clip-path="url(#p40812c87da)" style="fill: none; stroke-dasharray: 2.96,1.28; stroke-dashoffset: 0; stroke: #b0b0b0; stroke-opacity: 0.7; stroke-width: 0.8"/>
     </g>
     <g id="line2d_46">
      <g>
       <use xlink:href="#mc913663838" x="54.015" y="470.591897" style="stroke: #000000; stroke-width: 0.8"/>
      </g>
     </g>
     <g id="text_24">
      <!-- 0.84 -->
      <g transform="translate(24.749375 474.391115) scale(0.1 -0.1)">
       <use xlink:href="#DejaVuSans-30"/>
       <use xlink:href="#DejaVuSans-2e" transform="translate(63.623047 0)"/>
       <use xlink:href="#DejaVuSans-38" transform="translate(95.410156 0)"/>
       <use xlink:href="#DejaVuSans-34" transform="translate(159.033203 0)"/>
      </g>
     </g>
    </g>
    <g id="ytick_3">
     <g id="line2d_47">
      <path d="M 54.015 414.577061 
L 633.005 414.577061 
" clip-path="url(#p40812c87da)" style="fill: none; stroke-dasharray: 2.96,1.28; stroke-dashoffset: 0; stroke: #b0b0b0; stroke-opacity: 0.7; stroke-width: 0.8"/>
     </g>
     <g id="line2d_48">
      <g>
       <use xlink:href="#mc913663838" x="54.015" y="414.577061" style="stroke: #000000; stroke-width: 0.8"/>
      </g>
     </g>
     <g id="text_25">
      <!-- 0.86 -->
      <g transform="translate(24.749375 418.37628) scale(0.1 -0.1)">
       <use xlink:href="#DejaVuSans-30"/>
       <use xlink:href="#DejaVuSans-2e" transform="translate(63.623047 0)"/>
       <use xlink:href="#DejaVuSans-38" transform="translate(95.410156 0)"/>
       <use xlink:href="#DejaVuSans-36" transform="translate(159.033203 0)"/>
      </g>
     </g>
    </g>
    <g id="ytick_4">
     <g id="line2d_49">
      <path d="M 54.015 358.562226 
L 633.005 358.562226 
" clip-path="url(#p40812c87da)" style="fill: none; stroke-dasharray: 2.96,1.28; stroke-dashoffset: 0; stroke: #b0b0b0; stroke-opacity: 0.7; stroke-width: 0.8"/>
     </g>
     <g id="line2d_50">
      <g>
       <use xlink:href="#mc913663838" x="54.015" y="358.562226" style="stroke: #000000; stroke-width: 0.8"/>
      </g>
     </g>
     <g id="text_26">
      <!-- 0.88 -->
      <g transform="translate(24.749375 362.361445) scale(0.1 -0.1)">
       <use xlink:href="#DejaVuSans-30"/>
       <use xlink:href="#DejaVuSans-2e" transform="translate(63.623047 0)"/>
       <use xlink:href="#DejaVuSans-38" transform="translate(95.410156 0)"/>
       <use xlink:href="#DejaVuSans-38" transform="translate(159.033203 0)"/>
      </g>
     </g>
    </g>
    <g id="ytick_5">
     <g id="line2d_51">
      <path d="M 54.015 302.547391 
L 633.005 302.547391 
" clip-path="url(#p40812c87da)" style="fill: none; stroke-dasharray: 2.96,1.28; stroke-dashoffset: 0; stroke: #b0b0b0; stroke-opacity: 0.7; stroke-width: 0.8"/>
     </g>
     <g id="line2d_52">
      <g>
       <use xlink:href="#mc913663838" x="54.015" y="302.547391" style="stroke: #000000; stroke-width: 0.8"/>
      </g>
     </g>
     <g id="text_27">
      <!-- 0.90 -->
      <g transform="translate(24.749375 306.34661) scale(0.1 -0.1)">
       <use xlink:href="#DejaVuSans-30"/>
       <use xlink:href="#DejaVuSans-2e" transform="translate(63.623047 0)"/>
       <use xlink:href="#DejaVuSans-39" transform="translate(95.410156 0)"/>
       <use xlink:href="#DejaVuSans-30" transform="translate(159.033203 0)"/>
      </g>
     </g>
    </g>
    <g id="ytick_6">
     <g id="line2d_53">
      <path d="M 54.015 246.532556 
L 633.005 246.532556 
" clip-path="url(#p40812c87da)" style="fill: none; stroke-dasharray: 2.96,1.28; stroke-dashoffset: 0; stroke: #b0b0b0; stroke-opacity: 0.7; stroke-width: 0.8"/>
     </g>
     <g id="line2d_54">
      <g>
       <use xlink:href="#mc913663838" x="54.015" y="246.532556" style="stroke: #000000; stroke-width: 0.8"/>
      </g>
     </g>
     <g id="text_28">
      <!-- 0.92 -->
      <g transform="translate(24.749375 250.331775) scale(0.1 -0.1)">
       <use xlink:href="#DejaVuSans-30"/>
       <use xlink:href="#DejaVuSans-2e" transform="translate(63.623047 0)"/>
       <use xlink:href="#DejaVuSans-39" transform="translate(95.410156 0)"/>
       <use xlink:href="#DejaVuSans-32" transform="translate(159.033203 0)"/>
      </g>
     </g>
    </g>
    <g id="ytick_7">
     <g id="line2d_55">
      <path d="M 54.015 190.517721 
L 633.005 190.517721 
" clip-path="url(#p40812c87da)" style="fill: none; stroke-dasharray: 2.96,1.28; stroke-dashoffset: 0; stroke: #b0b0b0; stroke-opacity: 0.7; stroke-width: 0.8"/>
     </g>
     <g id="line2d_56">
      <g>
       <use xlink:href="#mc913663838" x="54.015" y="190.517721" style="stroke: #000000; stroke-width: 0.8"/>
      </g>
     </g>
     <g id="text_29">
      <!-- 0.94 -->
      <g transform="translate(24.749375 194.31694) scale(0.1 -0.1)">
       <use xlink:href="#DejaVuSans-30"/>
       <use xlink:href="#DejaVuSans-2e" transform="translate(63.623047 0)"/>
       <use xlink:href="#DejaVuSans-39" transform="translate(95.410156 0)"/>
       <use xlink:href="#DejaVuSans-34" transform="translate(159.033203 0)"/>
      </g>
     </g>
    </g>
    <g id="ytick_8">
     <g id="line2d_57">
      <path d="M 54.015 134.502886 
L 633.005 134.502886 
" clip-path="url(#p40812c87da)" style="fill: none; stroke-dasharray: 2.96,1.28; stroke-dashoffset: 0; stroke: #b0b0b0; stroke-opacity: 0.7; stroke-width: 0.8"/>
     </g>
     <g id="line2d_58">
      <g>
       <use xlink:href="#mc913663838" x="54.015" y="134.502886" style="stroke: #000000; stroke-width: 0.8"/>
      </g>
     </g>
     <g id="text_30">
      <!-- 0.96 -->
      <g transform="translate(24.749375 138.302104) scale(0.1 -0.1)">
       <use xlink:href="#DejaVuSans-30"/>
       <use xlink:href="#DejaVuSans-2e" transform="translate(63.623047 0)"/>
       <use xlink:href="#DejaVuSans-39" transform="translate(95.410156 0)"/>
       <use xlink:href="#DejaVuSans-36" transform="translate(159.033203 0)"/>
      </g>
     </g>
    </g>
    <g id="ytick_9">
     <g id="line2d_59">
      <path d="M 54.015 78.488051 
L 633.005 78.488051 
" clip-path="url(#p40812c87da)" style="fill: none; stroke-dasharray: 2.96,1.28; stroke-dashoffset: 0; stroke: #b0b0b0; stroke-opacity: 0.7; stroke-width: 0.8"/>
     </g>
     <g id="line2d_60">
      <g>
       <use xlink:href="#mc913663838" x="54.015" y="78.488051" style="stroke: #000000; stroke-width: 0.8"/>
      </g>
     </g>
     <g id="text_31">
      <!-- 0.98 -->
      <g transform="translate(24.749375 82.287269) scale(0.1 -0.1)">
       <use xlink:href="#DejaVuSans-30"/>
       <use xlink:href="#DejaVuSans-2e" transform="translate(63.623047 0)"/>
       <use xlink:href="#DejaVuSans-39" transform="translate(95.410156 0)"/>
       <use xlink:href="#DejaVuSans-38" transform="translate(159.033203 0)"/>
      </g>
     </g>
    </g>
    <g id="text_32">
     <!-- ROC-AUC skóre -->
     <g transform="translate(17.837813 330.293594) rotate(-90) scale(0.14 -0.14)">
      <defs>
       <path id="DejaVuSans-52" d="M 2841 2188 
Q 3044 2119 3236 1894 
Q 3428 1669 3622 1275 
L 4263 0 
L 3584 0 
L 2988 1197 
Q 2756 1666 2539 1819 
Q 2322 1972 1947 1972 
L 1259 1972 
L 1259 0 
L 628 0 
L 628 4666 
L 2053 4666 
Q 2853 4666 3247 4331 
Q 3641 3997 3641 3322 
Q 3641 2881 3436 2590 
Q 3231 2300 2841 2188 
z
M 1259 4147 
L 1259 2491 
L 2053 2491 
Q 2509 2491 2742 2702 
Q 2975 2913 2975 3322 
Q 2975 3731 2742 3939 
Q 2509 4147 2053 4147 
L 1259 4147 
z
" transform="scale(0.015625)"/>
       <path id="DejaVuSans-4f" d="M 2522 4238 
Q 1834 4238 1429 3725 
Q 1025 3213 1025 2328 
Q 1025 1447 1429 934 
Q 1834 422 2522 422 
Q 3209 422 3611 934 
Q 4013 1447 4013 2328 
Q 4013 3213 3611 3725 
Q 3209 4238 2522 4238 
z
M 2522 4750 
Q 3503 4750 4090 4092 
Q 4678 3434 4678 2328 
Q 4678 1225 4090 567 
Q 3503 -91 2522 -91 
Q 1538 -91 948 565 
Q 359 1222 359 2328 
Q 359 3434 948 4092 
Q 1538 4750 2522 4750 
z
" transform="scale(0.015625)"/>
       <path id="DejaVuSans-43" d="M 4122 4306 
L 4122 3641 
Q 3803 3938 3442 4084 
Q 3081 4231 2675 4231 
Q 1875 4231 1450 3742 
Q 1025 3253 1025 2328 
Q 1025 1406 1450 917 
Q 1875 428 2675 428 
Q 3081 428 3442 575 
Q 3803 722 4122 1019 
L 4122 359 
Q 3791 134 3420 21 
Q 3050 -91 2638 -91 
Q 1578 -91 968 557 
Q 359 1206 359 2328 
Q 359 3453 968 4101 
Q 1578 4750 2638 4750 
Q 3056 4750 3426 4639 
Q 3797 4528 4122 4306 
z
" transform="scale(0.015625)"/>
       <path id="DejaVuSans-2d" d="M 313 2009 
L 1997 2009 
L 1997 1497 
L 313 1497 
L 313 2009 
z
" transform="scale(0.015625)"/>
       <path id="DejaVuSans-41" d="M 2188 4044 
L 1331 1722 
L 3047 1722 
L 2188 4044 
z
M 1831 4666 
L 2547 4666 
L 4325 0 
L 3669 0 
L 3244 1197 
L 1141 1197 
L 716 0 
L 50 0 
L 1831 4666 
z
" transform="scale(0.015625)"/>
       <path id="DejaVuSans-55" d="M 556 4666 
L 1191 4666 
L 1191 1831 
Q 1191 1081 1462 751 
Q 1734 422 2344 422 
Q 2950 422 3222 751 
Q 3494 1081 3494 1831 
L 3494 4666 
L 4128 4666 
L 4128 1753 
Q 4128 841 3676 375 
Q 3225 -91 2344 -91 
Q 1459 -91 1007 375 
Q 556 841 556 1753 
L 556 4666 
z
" transform="scale(0.015625)"/>
       <path id="DejaVuSans-6b" d="M 581 4863 
L 1159 4863 
L 1159 1991 
L 2875 3500 
L 3609 3500 
L 1753 1863 
L 3688 0 
L 2938 0 
L 1159 1709 
L 1159 0 
L 581 0 
L 581 4863 
z
" transform="scale(0.015625)"/>
       <path id="DejaVuSans-f3" d="M 1959 3097 
Q 1497 3097 1228 2736 
Q 959 2375 959 1747 
Q 959 1119 1226 758 
Q 1494 397 1959 397 
Q 2419 397 2687 759 
Q 2956 1122 2956 1747 
Q 2956 2369 2687 2733 
Q 2419 3097 1959 3097 
z
M 1959 3584 
Q 2709 3584 3137 3096 
Q 3566 2609 3566 1747 
Q 3566 888 3137 398 
Q 2709 -91 1959 -91 
Q 1206 -91 779 398 
Q 353 888 353 1747 
Q 353 2609 779 3096 
Q 1206 3584 1959 3584 
z
M 2394 5119 
L 3016 5119 
L 1998 3944 
L 1519 3944 
L 2394 5119 
z
" transform="scale(0.015625)"/>
      </defs>
      <use xlink:href="#DejaVuSans-52"/>
      <use xlink:href="#DejaVuSans-4f" transform="translate(69.482422 0)"/>
      <use xlink:href="#DejaVuSans-43" transform="translate(148.193359 0)"/>
      <use xlink:href="#DejaVuSans-2d" transform="translate(218.017578 0)"/>
      <use xlink:href="#DejaVuSans-41" transform="translate(251.851562 0)"/>
      <use xlink:href="#DejaVuSans-55" transform="translate(320.259766 0)"/>
      <use xlink:href="#DejaVuSans-43" transform="translate(393.453125 0)"/>
      <use xlink:href="#DejaVuSans-20" transform="translate(463.277344 0)"/>
      <use xlink:href="#DejaVuSans-73" transform="translate(495.064453 0)"/>
      <use xlink:href="#DejaVuSans-6b" transform="translate(547.164062 0)"/>
      <use xlink:href="#DejaVuSans-f3" transform="translate(601.449219 0)"/>
      <use xlink:href="#DejaVuSans-72" transform="translate(662.630859 0)"/>
      <use xlink:href="#DejaVuSans-65" transform="translate(701.494141 0)"/>
     </g>
    </g>
   </g>
   <g id="line2d_61">
    <path d="M 80.332727 405.202008 
L 80.859609 238.039041 
L 82.440253 150.486908 
L 85.07466 110.132508 
L 90.343474 97.491053 
L 106.149917 89.114522 
L 116.687546 84.162132 
L 132.493989 82.381645 
L 158.83806 80.485757 
L 185.182131 77.279232 
L 211.526203 75.721306 
L 237.870274 74.8459 
L 264.214345 74.242513 
L 290.558417 74.155137 
L 316.902488 74.45848 
L 343.246559 74.539261 
L 395.934702 74.582124 
L 448.622845 74.628285 
L 501.310987 74.872278 
L 553.99913 75.11627 
L 606.687273 75.365209 
" clip-path="url(#p40812c87da)" style="fill: none; stroke: #1f77b4; stroke-width: 1.5; stroke-linecap: square"/>
    <defs>
     <path id="m0e5e84d336" d="M 0 1.5 
C 0.397805 1.5 0.77937 1.341951 1.06066 1.06066 
C 1.341951 0.77937 1.5 0.397805 1.5 0 
C 1.5 -0.397805 1.341951 -0.77937 1.06066 -1.06066 
C 0.77937 -1.341951 0.397805 -1.5 0 -1.5 
C -0.397805 -1.5 -0.77937 -1.341951 -1.06066 -1.06066 
C -1.341951 -0.77937 -1.5 -0.397805 -1.5 0 
C -1.5 0.397805 -1.341951 0.77937 -1.06066 1.06066 
C -0.77937 1.341951 -0.397805 1.5 0 1.5 
z
" style="stroke: #1f77b4"/>
    </defs>
    <g clip-path="url(#p40812c87da)">
     <use xlink:href="#m0e5e84d336" x="80.332727" y="405.202008" style="fill: #1f77b4; stroke: #1f77b4"/>
     <use xlink:href="#m0e5e84d336" x="80.859609" y="238.039041" style="fill: #1f77b4; stroke: #1f77b4"/>
     <use xlink:href="#m0e5e84d336" x="82.440253" y="150.486908" style="fill: #1f77b4; stroke: #1f77b4"/>
     <use xlink:href="#m0e5e84d336" x="85.07466" y="110.132508" style="fill: #1f77b4; stroke: #1f77b4"/>
     <use xlink:href="#m0e5e84d336" x="90.343474" y="97.491053" style="fill: #1f77b4; stroke: #1f77b4"/>
     <use xlink:href="#m0e5e84d336" x="106.149917" y="89.114522" style="fill: #1f77b4; stroke: #1f77b4"/>
     <use xlink:href="#m0e5e84d336" x="116.687546" y="84.162132" style="fill: #1f77b4; stroke: #1f77b4"/>
     <use xlink:href="#m0e5e84d336" x="132.493989" y="82.381645" style="fill: #1f77b4; stroke: #1f77b4"/>
     <use xlink:href="#m0e5e84d336" x="158.83806" y="80.485757" style="fill: #1f77b4; stroke: #1f77b4"/>
     <use xlink:href="#m0e5e84d336" x="185.182131" y="77.279232" style="fill: #1f77b4; stroke: #1f77b4"/>
     <use xlink:href="#m0e5e84d336" x="211.526203" y="75.721306" style="fill: #1f77b4; stroke: #1f77b4"/>
     <use xlink:href="#m0e5e84d336" x="237.870274" y="74.8459" style="fill: #1f77b4; stroke: #1f77b4"/>
     <use xlink:href="#m0e5e84d336" x="264.214345" y="74.242513" style="fill: #1f77b4; stroke: #1f77b4"/>
     <use xlink:href="#m0e5e84d336" x="290.558417" y="74.155137" style="fill: #1f77b4; stroke: #1f77b4"/>
     <use xlink:href="#m0e5e84d336" x="316.902488" y="74.45848" style="fill: #1f77b4; stroke: #1f77b4"/>
     <use xlink:href="#m0e5e84d336" x="343.246559" y="74.539261" style="fill: #1f77b4; stroke: #1f77b4"/>
     <use xlink:href="#m0e5e84d336" x="395.934702" y="74.582124" style="fill: #1f77b4; stroke: #1f77b4"/>
     <use xlink:href="#m0e5e84d336" x="448.622845" y="74.628285" style="fill: #1f77b4; stroke: #1f77b4"/>
     <use xlink:href="#m0e5e84d336" x="501.310987" y="74.872278" style="fill: #1f77b4; stroke: #1f77b4"/>
     <use xlink:href="#m0e5e84d336" x="553.99913" y="75.11627" style="fill: #1f77b4; stroke: #1f77b4"/>
     <use xlink:href="#m0e5e84d336" x="606.687273" y="75.365209" style="fill: #1f77b4; stroke: #1f77b4"/>
    </g>
   </g>
   <g id="line2d_62">
    <path d="M 80.332727 393.703893 
L 80.859609 218.868429 
L 82.440253 127.143448 
L 85.07466 93.871583 
L 90.343474 81.726929 
L 106.149917 69.889888 
L 116.687546 67.997197 
L 132.493989 68.668841 
L 158.83806 66.374507 
L 185.182131 66.087044 
L 211.526203 65.956745 
L 237.870274 65.890924 
L 264.214345 65.32137 
L 290.558417 65.478535 
L 316.902488 65.332117 
L 343.246559 65.263609 
L 395.934702 64.690026 
L 448.622845 64.164801 
L 501.310987 63.853158 
L 553.99913 63.957935 
L 606.687273 63.705397 
" clip-path="url(#p40812c87da)" style="fill: none; stroke: #ff7f0e; stroke-width: 1.5; stroke-linecap: square"/>
    <defs>
     <path id="m403ccede35" d="M 0 1.5 
C 0.397805 1.5 0.77937 1.341951 1.06066 1.06066 
C 1.341951 0.77937 1.5 0.397805 1.5 0 
C 1.5 -0.397805 1.341951 -0.77937 1.06066 -1.06066 
C 0.77937 -1.341951 0.397805 -1.5 0 -1.5 
C -0.397805 -1.5 -0.77937 -1.341951 -1.06066 -1.06066 
C -1.341951 -0.77937 -1.5 -0.397805 -1.5 0 
C -1.5 0.397805 -1.341951 0.77937 -1.06066 1.06066 
C -0.77937 1.341951 -0.397805 1.5 0 1.5 
z
" style="stroke: #ff7f0e"/>
    </defs>
    <g clip-path="url(#p40812c87da)">
     <use xlink:href="#m403ccede35" x="80.332727" y="393.703893" style="fill: #ff7f0e; stroke: #ff7f0e"/>
     <use xlink:href="#m403ccede35" x="80.859609" y="218.868429" style="fill: #ff7f0e; stroke: #ff7f0e"/>
     <use xlink:href="#m403ccede35" x="82.440253" y="127.143448" style="fill: #ff7f0e; stroke: #ff7f0e"/>
     <use xlink:href="#m403ccede35" x="85.07466" y="93.871583" style="fill: #ff7f0e; stroke: #ff7f0e"/>
     <use xlink:href="#m403ccede35" x="90.343474" y="81.726929" style="fill: #ff7f0e; stroke: #ff7f0e"/>
     <use xlink:href="#m403ccede35" x="106.149917" y="69.889888" style="fill: #ff7f0e; stroke: #ff7f0e"/>
     <use xlink:href="#m403ccede35" x="116.687546" y="67.997197" style="fill: #ff7f0e; stroke: #ff7f0e"/>
     <use xlink:href="#m403ccede35" x="132.493989" y="68.668841" style="fill: #ff7f0e; stroke: #ff7f0e"/>
     <use xlink:href="#m403ccede35" x="158.83806" y="66.374507" style="fill: #ff7f0e; stroke: #ff7f0e"/>
     <use xlink:href="#m403ccede35" x="185.182131" y="66.087044" style="fill: #ff7f0e; stroke: #ff7f0e"/>
     <use xlink:href="#m403ccede35" x="211.526203" y="65.956745" style="fill: #ff7f0e; stroke: #ff7f0e"/>
     <use xlink:href="#m403ccede35" x="237.870274" y="65.890924" style="fill: #ff7f0e; stroke: #ff7f0e"/>
     <use xlink:href="#m403ccede35" x="264.214345" y="65.32137" style="fill: #ff7f0e; stroke: #ff7f0e"/>
     <use xlink:href="#m403ccede35" x="290.558417" y="65.478535" style="fill: #ff7f0e; stroke: #ff7f0e"/>
     <use xlink:href="#m403ccede35" x="316.902488" y="65.332117" style="fill: #ff7f0e; stroke: #ff7f0e"/>
     <use xlink:href="#m403ccede35" x="343.246559" y="65.263609" style="fill: #ff7f0e; stroke: #ff7f0e"/>
     <use xlink:href="#m403ccede35" x="395.934702" y="64.690026" style="fill: #ff7f0e; stroke: #ff7f0e"/>
     <use xlink:href="#m403ccede35" x="448.622845" y="64.164801" style="fill: #ff7f0e; stroke: #ff7f0e"/>
     <use xlink:href="#m403ccede35" x="501.310987" y="63.853158" style="fill: #ff7f0e; stroke: #ff7f0e"/>
     <use xlink:href="#m403ccede35" x="553.99913" y="63.957935" style="fill: #ff7f0e; stroke: #ff7f0e"/>
     <use xlink:href="#m403ccede35" x="606.687273" y="63.705397" style="fill: #ff7f0e; stroke: #ff7f0e"/>
    </g>
   </g>
   <g id="line2d_63">
    <path d="M 80.332727 504.259773 
L 80.859609 324.464741 
L 82.440253 183.21508 
L 85.07466 116.044075 
L 90.343474 101.829323 
L 106.149917 87.227712 
L 116.687546 82.513453 
L 132.493989 81.331289 
L 158.83806 80.40823 
L 185.182131 80.575568 
L 211.526203 80.793288 
L 237.870274 81.122566 
L 264.214345 81.531015 
L 290.558417 81.92507 
L 316.902488 82.266944 
L 343.246559 81.919672 
L 395.934702 81.187342 
L 448.622845 81.678561 
L 501.310987 81.307898 
L 553.99913 80.942632 
L 606.687273 80.476604 
" clip-path="url(#p40812c87da)" style="fill: none; stroke: #2ca02c; stroke-width: 1.5; stroke-linecap: square"/>
    <defs>
     <path id="m475f57b0e5" d="M 0 1.5 
C 0.397805 1.5 0.77937 1.341951 1.06066 1.06066 
C 1.341951 0.77937 1.5 0.397805 1.5 0 
C 1.5 -0.397805 1.341951 -0.77937 1.06066 -1.06066 
C 0.77937 -1.341951 0.397805 -1.5 0 -1.5 
C -0.397805 -1.5 -0.77937 -1.341951 -1.06066 -1.06066 
C -1.341951 -0.77937 -1.5 -0.397805 -1.5 0 
C -1.5 0.397805 -1.341951 0.77937 -1.06066 1.06066 
C -0.77937 1.341951 -0.397805 1.5 0 1.5 
z
" style="stroke: #2ca02c"/>
    </defs>
    <g clip-path="url(#p40812c87da)">
     <use xlink:href="#m475f57b0e5" x="80.332727" y="504.259773" style="fill: #2ca02c; stroke: #2ca02c"/>
     <use xlink:href="#m475f57b0e5" x="80.859609" y="324.464741" style="fill: #2ca02c; stroke: #2ca02c"/>
     <use xlink:href="#m475f57b0e5" x="82.440253" y="183.21508" style="fill: #2ca02c; stroke: #2ca02c"/>
     <use xlink:href="#m475f57b0e5" x="85.07466" y="116.044075" style="fill: #2ca02c; stroke: #2ca02c"/>
     <use xlink:href="#m475f57b0e5" x="90.343474" y="101.829323" style="fill: #2ca02c; stroke: #2ca02c"/>
     <use xlink:href="#m475f57b0e5" x="106.149917" y="87.227712" style="fill: #2ca02c; stroke: #2ca02c"/>
     <use xlink:href="#m475f57b0e5" x="116.687546" y="82.513453" style="fill: #2ca02c; stroke: #2ca02c"/>
     <use xlink:href="#m475f57b0e5" x="132.493989" y="81.331289" style="fill: #2ca02c; stroke: #2ca02c"/>
     <use xlink:href="#m475f57b0e5" x="158.83806" y="80.40823" style="fill: #2ca02c; stroke: #2ca02c"/>
     <use xlink:href="#m475f57b0e5" x="185.182131" y="80.575568" style="fill: #2ca02c; stroke: #2ca02c"/>
     <use xlink:href="#m475f57b0e5" x="211.526203" y="80.793288" style="fill: #2ca02c; stroke: #2ca02c"/>
     <use xlink:href="#m475f57b0e5" x="237.870274" y="81.122566" style="fill: #2ca02c; stroke: #2ca02c"/>
     <use xlink:href="#m475f57b0e5" x="264.214345" y="81.531015" style="fill: #2ca02c; stroke: #2ca02c"/>
     <use xlink:href="#m475f57b0e5" x="290.558417" y="81.92507" style="fill: #2ca02c; stroke: #2ca02c"/>
     <use xlink:href="#m475f57b0e5" x="316.902488" y="82.266944" style="fill: #2ca02c; stroke: #2ca02c"/>
     <use xlink:href="#m475f57b0e5" x="343.246559" y="81.919672" style="fill: #2ca02c; stroke: #2ca02c"/>
     <use xlink:href="#m475f57b0e5" x="395.934702" y="81.187342" style="fill: #2ca02c; stroke: #2ca02c"/>
     <use xlink:href="#m475f57b0e5" x="448.622845" y="81.678561" style="fill: #2ca02c; stroke: #2ca02c"/>
     <use xlink:href="#m475f57b0e5" x="501.310987" y="81.307898" style="fill: #2ca02c; stroke: #2ca02c"/>
     <use xlink:href="#m475f57b0e5" x="553.99913" y="80.942632" style="fill: #2ca02c; stroke: #2ca02c"/>
     <use xlink:href="#m475f57b0e5" x="606.687273" y="80.476604" style="fill: #2ca02c; stroke: #2ca02c"/>
    </g>
   </g>
   <g id="line2d_64">
    <path d="M 80.332727 322.994804 
L 80.859609 155.083117 
L 82.440253 87.155261 
L 85.07466 73.462797 
L 90.343474 57.932795 
L 106.149917 51.010211 
L 116.687546 52.147007 
L 132.493989 52.542341 
L 158.83806 50.645418 
L 185.182131 49.686775 
L 211.526203 49.505227 
L 237.870274 50.694622 
L 264.214345 51.617633 
L 290.558417 51.919648 
L 316.902488 51.700772 
L 343.246559 51.656658 
L 395.934702 52.409998 
L 448.622845 52.547431 
L 501.310987 52.900348 
L 553.99913 52.606816 
L 606.687273 52.559308 
" clip-path="url(#p40812c87da)" style="fill: none; stroke: #d62728; stroke-width: 1.5; stroke-linecap: square"/>
    <defs>
     <path id="m7d02be171a" d="M 0 1.5 
C 0.397805 1.5 0.77937 1.341951 1.06066 1.06066 
C 1.341951 0.77937 1.5 0.397805 1.5 0 
C 1.5 -0.397805 1.341951 -0.77937 1.06066 -1.06066 
C 0.77937 -1.341951 0.397805 -1.5 0 -1.5 
C -0.397805 -1.5 -0.77937 -1.341951 -1.06066 -1.06066 
C -1.341951 -0.77937 -1.5 -0.397805 -1.5 0 
C -1.5 0.397805 -1.341951 0.77937 -1.06066 1.06066 
C -0.77937 1.341951 -0.397805 1.5 0 1.5 
z
" style="stroke: #d62728"/>
    </defs>
    <g clip-path="url(#p40812c87da)">
     <use xlink:href="#m7d02be171a" x="80.332727" y="322.994804" style="fill: #d62728; stroke: #d62728"/>
     <use xlink:href="#m7d02be171a" x="80.859609" y="155.083117" style="fill: #d62728; stroke: #d62728"/>
     <use xlink:href="#m7d02be171a" x="82.440253" y="87.155261" style="fill: #d62728; stroke: #d62728"/>
     <use xlink:href="#m7d02be171a" x="85.07466" y="73.462797" style="fill: #d62728; stroke: #d62728"/>
     <use xlink:href="#m7d02be171a" x="90.343474" y="57.932795" style="fill: #d62728; stroke: #d62728"/>
     <use xlink:href="#m7d02be171a" x="106.149917" y="51.010211" style="fill: #d62728; stroke: #d62728"/>
     <use xlink:href="#m7d02be171a" x="116.687546" y="52.147007" style="fill: #d62728; stroke: #d62728"/>
     <use xlink:href="#m7d02be171a" x="132.493989" y="52.542341" style="fill: #d62728; stroke: #d62728"/>
     <use xlink:href="#m7d02be171a" x="158.83806" y="50.645418" style="fill: #d62728; stroke: #d62728"/>
     <use xlink:href="#m7d02be171a" x="185.182131" y="49.686775" style="fill: #d62728; stroke: #d62728"/>
     <use xlink:href="#m7d02be171a" x="211.526203" y="49.505227" style="fill: #d62728; stroke: #d62728"/>
     <use xlink:href="#m7d02be171a" x="237.870274" y="50.694622" style="fill: #d62728; stroke: #d62728"/>
     <use xlink:href="#m7d02be171a" x="264.214345" y="51.617633" style="fill: #d62728; stroke: #d62728"/>
     <use xlink:href="#m7d02be171a" x="290.558417" y="51.919648" style="fill: #d62728; stroke: #d62728"/>
     <use xlink:href="#m7d02be171a" x="316.902488" y="51.700772" style="fill: #d62728; stroke: #d62728"/>
     <use xlink:href="#m7d02be171a" x="343.246559" y="51.656658" style="fill: #d62728; stroke: #d62728"/>
     <use xlink:href="#m7d02be171a" x="395.934702" y="52.409998" style="fill: #d62728; stroke: #d62728"/>
     <use xlink:href="#m7d02be171a" x="448.622845" y="52.547431" style="fill: #d62728; stroke: #d62728"/>
     <use xlink:href="#m7d02be171a" x="501.310987" y="52.900348" style="fill: #d62728; stroke: #d62728"/>
     <use xlink:href="#m7d02be171a" x="553.99913" y="52.606816" style="fill: #d62728; stroke: #d62728"/>
     <use xlink:href="#m7d02be171a" x="606.687273" y="52.559308" style="fill: #d62728; stroke: #d62728"/>
    </g>
   </g>
   <g id="line2d_65">
    <path d="M 80.332727 354.979272 
L 80.859609 230.750494 
L 82.440253 148.158799 
L 85.07466 115.088653 
L 90.343474 74.416213 
L 106.149917 64.405595 
L 116.687546 62.358193 
L 132.493989 55.710697 
L 158.83806 52.029309 
L 185.182131 51.835725 
L 211.526203 52.610063 
L 237.870274 54.135772 
L 264.214345 54.194831 
L 290.558417 55.139786 
L 316.902488 55.448209 
L 343.246559 55.418679 
L 395.934702 55.077445 
L 448.622845 54.732931 
L 501.310987 55.379306 
L 553.99913 55.228376 
L 606.687273 55.533518 
" clip-path="url(#p40812c87da)" style="fill: none; stroke: #9467bd; stroke-width: 1.5; stroke-linecap: square"/>
    <defs>
     <path id="m506f2445ef" d="M 0 1.5 
C 0.397805 1.5 0.77937 1.341951 1.06066 1.06066 
C 1.341951 0.77937 1.5 0.397805 1.5 0 
C 1.5 -0.397805 1.341951 -0.77937 1.06066 -1.06066 
C 0.77937 -1.341951 0.397805 -1.5 0 -1.5 
C -0.397805 -1.5 -0.77937 -1.341951 -1.06066 -1.06066 
C -1.341951 -0.77937 -1.5 -0.397805 -1.5 0 
C -1.5 0.397805 -1.341951 0.77937 -1.06066 1.06066 
C -0.77937 1.341951 -0.397805 1.5 0 1.5 
z
" style="stroke: #9467bd"/>
    </defs>
    <g clip-path="url(#p40812c87da)">
     <use xlink:href="#m506f2445ef" x="80.332727" y="354.979272" style="fill: #9467bd; stroke: #9467bd"/>
     <use xlink:href="#m506f2445ef" x="80.859609" y="230.750494" style="fill: #9467bd; stroke: #9467bd"/>
     <use xlink:href="#m506f2445ef" x="82.440253" y="148.158799" style="fill: #9467bd; stroke: #9467bd"/>
     <use xlink:href="#m506f2445ef" x="85.07466" y="115.088653" style="fill: #9467bd; stroke: #9467bd"/>
     <use xlink:href="#m506f2445ef" x="90.343474" y="74.416213" style="fill: #9467bd; stroke: #9467bd"/>
     <use xlink:href="#m506f2445ef" x="106.149917" y="64.405595" style="fill: #9467bd; stroke: #9467bd"/>
     <use xlink:href="#m506f2445ef" x="116.687546" y="62.358193" style="fill: #9467bd; stroke: #9467bd"/>
     <use xlink:href="#m506f2445ef" x="132.493989" y="55.710697" style="fill: #9467bd; stroke: #9467bd"/>
     <use xlink:href="#m506f2445ef" x="158.83806" y="52.029309" style="fill: #9467bd; stroke: #9467bd"/>
     <use xlink:href="#m506f2445ef" x="185.182131" y="51.835725" style="fill: #9467bd; stroke: #9467bd"/>
     <use xlink:href="#m506f2445ef" x="211.526203" y="52.610063" style="fill: #9467bd; stroke: #9467bd"/>
     <use xlink:href="#m506f2445ef" x="237.870274" y="54.135772" style="fill: #9467bd; stroke: #9467bd"/>
     <use xlink:href="#m506f2445ef" x="264.214345" y="54.194831" style="fill: #9467bd; stroke: #9467bd"/>
     <use xlink:href="#m506f2445ef" x="290.558417" y="55.139786" style="fill: #9467bd; stroke: #9467bd"/>
     <use xlink:href="#m506f2445ef" x="316.902488" y="55.448209" style="fill: #9467bd; stroke: #9467bd"/>
     <use xlink:href="#m506f2445ef" x="343.246559" y="55.418679" style="fill: #9467bd; stroke: #9467bd"/>
     <use xlink:href="#m506f2445ef" x="395.934702" y="55.077445" style="fill: #9467bd; stroke: #9467bd"/>
     <use xlink:href="#m506f2445ef" x="448.622845" y="54.732931" style="fill: #9467bd; stroke: #9467bd"/>
     <use xlink:href="#m506f2445ef" x="501.310987" y="55.379306" style="fill: #9467bd; stroke: #9467bd"/>
     <use xlink:href="#m506f2445ef" x="553.99913" y="55.228376" style="fill: #9467bd; stroke: #9467bd"/>
     <use xlink:href="#m506f2445ef" x="606.687273" y="55.533518" style="fill: #9467bd; stroke: #9467bd"/>
    </g>
   </g>
   <g id="line2d_66">
    <path d="M 80.332727 479.676878 
L 80.859609 286.255464 
L 82.440253 178.128207 
L 85.07466 145.248307 
L 90.343474 122.814106 
L 106.149917 123.418321 
L 116.687546 125.950553 
L 132.493989 121.779704 
L 158.83806 122.917741 
L 185.182131 122.733935 
L 211.526203 124.41166 
L 237.870274 122.647897 
L 264.214345 122.688961 
L 290.558417 122.250953 
L 316.902488 122.726113 
L 343.246559 123.471117 
L 395.934702 124.902463 
L 448.622845 125.109735 
L 501.310987 125.150798 
L 553.99913 125.708084 
L 606.687273 125.410865 
" clip-path="url(#p40812c87da)" style="fill: none; stroke: #8c564b; stroke-width: 1.5; stroke-linecap: square"/>
    <defs>
     <path id="m43c3578d83" d="M 0 1.5 
C 0.397805 1.5 0.77937 1.341951 1.06066 1.06066 
C 1.341951 0.77937 1.5 0.397805 1.5 0 
C 1.5 -0.397805 1.341951 -0.77937 1.06066 -1.06066 
C 0.77937 -1.341951 0.397805 -1.5 0 -1.5 
C -0.397805 -1.5 -0.77937 -1.341951 -1.06066 -1.06066 
C -1.341951 -0.77937 -1.5 -0.397805 -1.5 0 
C -1.5 0.397805 -1.341951 0.77937 -1.06066 1.06066 
C -0.77937 1.341951 -0.397805 1.5 0 1.5 
z
" style="stroke: #8c564b"/>
    </defs>
    <g clip-path="url(#p40812c87da)">
     <use xlink:href="#m43c3578d83" x="80.332727" y="479.676878" style="fill: #8c564b; stroke: #8c564b"/>
     <use xlink:href="#m43c3578d83" x="80.859609" y="286.255464" style="fill: #8c564b; stroke: #8c564b"/>
     <use xlink:href="#m43c3578d83" x="82.440253" y="178.128207" style="fill: #8c564b; stroke: #8c564b"/>
     <use xlink:href="#m43c3578d83" x="85.07466" y="145.248307" style="fill: #8c564b; stroke: #8c564b"/>
     <use xlink:href="#m43c3578d83" x="90.343474" y="122.814106" style="fill: #8c564b; stroke: #8c564b"/>
     <use xlink:href="#m43c3578d83" x="106.149917" y="123.418321" style="fill: #8c564b; stroke: #8c564b"/>
     <use xlink:href="#m43c3578d83" x="116.687546" y="125.950553" style="fill: #8c564b; stroke: #8c564b"/>
     <use xlink:href="#m43c3578d83" x="132.493989" y="121.779704" style="fill: #8c564b; stroke: #8c564b"/>
     <use xlink:href="#m43c3578d83" x="158.83806" y="122.917741" style="fill: #8c564b; stroke: #8c564b"/>
     <use xlink:href="#m43c3578d83" x="185.182131" y="122.733935" style="fill: #8c564b; stroke: #8c564b"/>
     <use xlink:href="#m43c3578d83" x="211.526203" y="124.41166" style="fill: #8c564b; stroke: #8c564b"/>
     <use xlink:href="#m43c3578d83" x="237.870274" y="122.647897" style="fill: #8c564b; stroke: #8c564b"/>
     <use xlink:href="#m43c3578d83" x="264.214345" y="122.688961" style="fill: #8c564b; stroke: #8c564b"/>
     <use xlink:href="#m43c3578d83" x="290.558417" y="122.250953" style="fill: #8c564b; stroke: #8c564b"/>
     <use xlink:href="#m43c3578d83" x="316.902488" y="122.726113" style="fill: #8c564b; stroke: #8c564b"/>
     <use xlink:href="#m43c3578d83" x="343.246559" y="123.471117" style="fill: #8c564b; stroke: #8c564b"/>
     <use xlink:href="#m43c3578d83" x="395.934702" y="124.902463" style="fill: #8c564b; stroke: #8c564b"/>
     <use xlink:href="#m43c3578d83" x="448.622845" y="125.109735" style="fill: #8c564b; stroke: #8c564b"/>
     <use xlink:href="#m43c3578d83" x="501.310987" y="125.150798" style="fill: #8c564b; stroke: #8c564b"/>
     <use xlink:href="#m43c3578d83" x="553.99913" y="125.708084" style="fill: #8c564b; stroke: #8c564b"/>
     <use xlink:href="#m43c3578d83" x="606.687273" y="125.410865" style="fill: #8c564b; stroke: #8c564b"/>
    </g>
   </g>
   <g id="patch_3">
    <path d="M 54.015 526.9975 
L 54.015 26.7675 
" style="fill: none; stroke: #000000; stroke-width: 0.8; stroke-linejoin: miter; stroke-linecap: square"/>
   </g>
   <g id="patch_4">
    <path d="M 633.005 526.9975 
L 633.005 26.7675 
" style="fill: none; stroke: #000000; stroke-width: 0.8; stroke-linejoin: miter; stroke-linecap: square"/>
   </g>
   <g id="patch_5">
    <path d="M 54.015 526.9975 
L 633.005 526.9975 
" style="fill: none; stroke: #000000; stroke-width: 0.8; stroke-linejoin: miter; stroke-linecap: square"/>
   </g>
   <g id="patch_6">
    <path d="M 54.015 26.7675 
L 633.005 26.7675 
" style="fill: none; stroke: #000000; stroke-width: 0.8; stroke-linejoin: miter; stroke-linecap: square"/>
   </g>
   <g id="text_33">
    <!-- Konvergence Random Forest: ROC-AUC vs. počet stromů -->
    <g transform="translate(116.7825 20.7675) scale(0.16 -0.16)">
     <defs>
      <path id="DejaVuSans-4b" d="M 628 4666 
L 1259 4666 
L 1259 2694 
L 3353 4666 
L 4166 4666 
L 1850 2491 
L 4331 0 
L 3500 0 
L 1259 2247 
L 1259 0 
L 628 0 
L 628 4666 
z
" transform="scale(0.015625)"/>
      <path id="DejaVuSans-6e" d="M 3513 2113 
L 3513 0 
L 2938 0 
L 2938 2094 
Q 2938 2591 2744 2837 
Q 2550 3084 2163 3084 
Q 1697 3084 1428 2787 
Q 1159 2491 1159 1978 
L 1159 0 
L 581 0 
L 581 3500 
L 1159 3500 
L 1159 2956 
Q 1366 3272 1645 3428 
Q 1925 3584 2291 3584 
Q 2894 3584 3203 3211 
Q 3513 2838 3513 2113 
z
" transform="scale(0.015625)"/>
      <path id="DejaVuSans-76" d="M 191 3500 
L 800 3500 
L 1894 563 
L 2988 3500 
L 3597 3500 
L 2284 0 
L 1503 0 
L 191 3500 
z
" transform="scale(0.015625)"/>
      <path id="DejaVuSans-67" d="M 2906 1791 
Q 2906 2416 2648 2759 
Q 2391 3103 1925 3103 
Q 1463 3103 1205 2759 
Q 947 2416 947 1791 
Q 947 1169 1205 825 
Q 1463 481 1925 481 
Q 2391 481 2648 825 
Q 2906 1169 2906 1791 
z
M 3481 434 
Q 3481 -459 3084 -895 
Q 2688 -1331 1869 -1331 
Q 1566 -1331 1297 -1286 
Q 1028 -1241 775 -1147 
L 775 -588 
Q 1028 -725 1275 -790 
Q 1522 -856 1778 -856 
Q 2344 -856 2625 -561 
Q 2906 -266 2906 331 
L 2906 616 
Q 2728 306 2450 153 
Q 2172 0 1784 0 
Q 1141 0 747 490 
Q 353 981 353 1791 
Q 353 2603 747 3093 
Q 1141 3584 1784 3584 
Q 2172 3584 2450 3431 
Q 2728 3278 2906 2969 
L 2906 3500 
L 3481 3500 
L 3481 434 
z
" transform="scale(0.015625)"/>
      <path id="DejaVuSans-63" d="M 3122 3366 
L 3122 2828 
Q 2878 2963 2633 3030 
Q 2388 3097 2138 3097 
Q 1578 3097 1268 2742 
Q 959 2388 959 1747 
Q 959 1106 1268 751 
Q 1578 397 2138 397 
Q 2388 397 2633 464 
Q 2878 531 3122 666 
L 3122 134 
Q 2881 22 2623 -34 
Q 2366 -91 2075 -91 
Q 1284 -91 818 406 
Q 353 903 353 1747 
Q 353 2603 823 3093 
Q 1294 3584 2113 3584 
Q 2378 3584 2631 3529 
Q 2884 3475 3122 3366 
z
" transform="scale(0.015625)"/>
      <path id="DejaVuSans-61" d="M 2194 1759 
Q 1497 1759 1228 1600 
Q 959 1441 959 1056 
Q 959 750 1161 570 
Q 1363 391 1709 391 
Q 2188 391 2477 730 
Q 2766 1069 2766 1631 
L 2766 1759 
L 2194 1759 
z
M 3341 1997 
L 3341 0 
L 2766 0 
L 2766 531 
Q 2569 213 2275 61 
Q 1981 -91 1556 -91 
Q 1019 -91 701 211 
Q 384 513 384 1019 
Q 384 1609 779 1909 
Q 1175 2209 1959 2209 
L 2766 2209 
L 2766 2266 
Q 2766 2663 2505 2880 
Q 2244 3097 1772 3097 
Q 1472 3097 1187 3025 
Q 903 2953 641 2809 
L 641 3341 
Q 956 3463 1253 3523 
Q 1550 3584 1831 3584 
Q 2591 3584 2966 3190 
Q 3341 2797 3341 1997 
z
" transform="scale(0.015625)"/>
      <path id="DejaVuSans-64" d="M 2906 2969 
L 2906 4863 
L 3481 4863 
L 3481 0 
L 2906 0 
L 2906 525 
Q 2725 213 2448 61 
Q 2172 -91 1784 -91 
Q 1150 -91 751 415 
Q 353 922 353 1747 
Q 353 2572 751 3078 
Q 1150 3584 1784 3584 
Q 2172 3584 2448 3432 
Q 2725 3281 2906 2969 
z
M 947 1747 
Q 947 1113 1208 752 
Q 1469 391 1925 391 
Q 2381 391 2643 752 
Q 2906 1113 2906 1747 
Q 2906 2381 2643 2742 
Q 2381 3103 1925 3103 
Q 1469 3103 1208 2742 
Q 947 2381 947 1747 
z
" transform="scale(0.015625)"/>
      <path id="DejaVuSans-46" d="M 628 4666 
L 3309 4666 
L 3309 4134 
L 1259 4134 
L 1259 2759 
L 3109 2759 
L 3109 2228 
L 1259 2228 
L 1259 0 
L 628 0 
L 628 4666 
z
" transform="scale(0.015625)"/>
      <path id="DejaVuSans-3a" d="M 750 794 
L 1409 794 
L 1409 0 
L 750 0 
L 750 794 
z
M 750 3309 
L 1409 3309 
L 1409 2516 
L 750 2516 
L 750 3309 
z
" transform="scale(0.015625)"/>
      <path id="DejaVuSans-70" d="M 1159 525 
L 1159 -1331 
L 581 -1331 
L 581 3500 
L 1159 3500 
L 1159 2969 
Q 1341 3281 1617 3432 
Q 1894 3584 2278 3584 
Q 2916 3584 3314 3078 
Q 3713 2572 3713 1747 
Q 3713 922 3314 415 
Q 2916 -91 2278 -91 
Q 1894 -91 1617 61 
Q 1341 213 1159 525 
z
M 3116 1747 
Q 3116 2381 2855 2742 
Q 2594 3103 2138 3103 
Q 1681 3103 1420 2742 
Q 1159 2381 1159 1747 
Q 1159 1113 1420 752 
Q 1681 391 2138 391 
Q 2594 391 2855 752 
Q 3116 1113 3116 1747 
z
" transform="scale(0.015625)"/>
     </defs>
     <use xlink:href="#DejaVuSans-4b"/>
     <use xlink:href="#DejaVuSans-6f" transform="translate(60.576172 0)"/>
     <use xlink:href="#DejaVuSans-6e" transform="translate(121.757812 0)"/>
     <use xlink:href="#DejaVuSans-76" transform="translate(185.136719 0)"/>
     <use xlink:href="#DejaVuSans-65" transform="translate(244.316406 0)"/>
     <use xlink:href="#DejaVuSans-72" transform="translate(305.839844 0)"/>
     <use xlink:href="#DejaVuSans-67" transform="translate(345.203125 0)"/>
     <use xlink:href="#DejaVuSans-65" transform="translate(408.679688 0)"/>
     <use xlink:href="#DejaVuSans-6e" transform="translate(470.203125 0)"/>
     <use xlink:href="#DejaVuSans-63" transform="translate(533.582031 0)"/>
     <use xlink:href="#DejaVuSans-65" transform="translate(588.5625 0)"/>
     <use xlink:href="#DejaVuSans-20" transform="translate(650.085938 0)"/>
     <use xlink:href="#DejaVuSans-52" transform="translate(681.873047 0)"/>
     <use xlink:href="#DejaVuSans-61" transform="translate(749.105469 0)"/>
     <use xlink:href="#DejaVuSans-6e" transform="translate(810.384766 0)"/>
     <use xlink:href="#DejaVuSans-64" transform="translate(873.763672 0)"/>
     <use xlink:href="#DejaVuSans-6f" transform="translate(937.240234 0)"/>
     <use xlink:href="#DejaVuSans-6d" transform="translate(998.421875 0)"/>
     <use xlink:href="#DejaVuSans-20" transform="translate(1095.833984 0)"/>
     <use xlink:href="#DejaVuSans-46" transform="translate(1127.621094 0)"/>
     <use xlink:href="#DejaVuSans-6f" transform="translate(1181.515625 0)"/>
     <use xlink:href="#DejaVuSans-72" transform="translate(1242.697266 0)"/>
     <use xlink:href="#DejaVuSans-65" transform="translate(1281.560547 0)"/>
     <use xlink:href="#DejaVuSans-73" transform="translate(1343.083984 0)"/>
     <use xlink:href="#DejaVuSans-74" transform="translate(1395.183594 0)"/>
     <use xlink:href="#DejaVuSans-3a" transform="translate(1434.392578 0)"/>
     <use xlink:href="#DejaVuSans-20" transform="translate(1468.083984 0)"/>
     <use xlink:href="#DejaVuSans-52" transform="translate(1499.871094 0)"/>
     <use xlink:href="#DejaVuSans-4f" transform="translate(1569.353516 0)"/>
     <use xlink:href="#DejaVuSans-43" transform="translate(1648.064453 0)"/>
     <use xlink:href="#DejaVuSans-2d" transform="translate(1717.888672 0)"/>
     <use xlink:href="#DejaVuSans-41" transform="translate(1751.722656 0)"/>
     <use xlink:href="#DejaVuSans-55" transform="translate(1820.130859 0)"/>
     <use xlink:href="#DejaVuSans-43" transform="translate(1893.324219 0)"/>
     <use xlink:href="#DejaVuSans-20" transform="translate(1963.148438 0)"/>
     <use xlink:href="#DejaVuSans-76" transform="translate(1994.935547 0)"/>
     <use xlink:href="#DejaVuSans-73" transform="translate(2054.115234 0)"/>
     <use xlink:href="#DejaVuSans-2e" transform="translate(2106.214844 0)"/>
     <use xlink:href="#DejaVuSans-20" transform="translate(2138.001953 0)"/>
     <use xlink:href="#DejaVuSans-70" transform="translate(2169.789062 0)"/>
     <use xlink:href="#DejaVuSans-6f" transform="translate(2233.265625 0)"/>
     <use xlink:href="#DejaVuSans-10d" transform="translate(2294.447266 0)"/>
     <use xlink:href="#DejaVuSans-65" transform="translate(2349.427734 0)"/>
     <use xlink:href="#DejaVuSans-74" transform="translate(2410.951172 0)"/>
     <use xlink:href="#DejaVuSans-20" transform="translate(2450.160156 0)"/>
     <use xlink:href="#DejaVuSans-73" transform="translate(2481.947266 0)"/>
     <use xlink:href="#DejaVuSans-74" transform="translate(2534.046875 0)"/>
     <use xlink:href="#DejaVuSans-72" transform="translate(2573.255859 0)"/>
     <use xlink:href="#DejaVuSans-6f" transform="translate(2612.119141 0)"/>
     <use xlink:href="#DejaVuSans-6d" transform="translate(2673.300781 0)"/>
     <use xlink:href="#DejaVuSans-16f" transform="translate(2770.712891 0)"/>
    </g>
   </g>
   <g id="legend_1">
    <g id="patch_7">
     <path d="M 668.9545 125.23625 
L 842.612313 125.23625 
Q 844.612313 125.23625 844.612313 123.23625 
L 844.612313 33.7675 
Q 844.612313 31.7675 842.612313 31.7675 
L 668.9545 31.7675 
Q 666.9545 31.7675 666.9545 33.7675 
L 666.9545 123.23625 
Q 666.9545 125.23625 668.9545 125.23625 
z
" style="fill: #ffffff; opacity: 0.8; stroke: #cccccc; stroke-linejoin: miter"/>
    </g>
    <g id="line2d_67">
     <path d="M 670.9545 40.265937 
L 680.9545 40.265937 
L 690.9545 40.265937 
" style="fill: none; stroke: #1f77b4; stroke-width: 1.5; stroke-linecap: square"/>
     <g>
      <use xlink:href="#m0e5e84d336" x="680.9545" y="40.265937" style="fill: #1f77b4; stroke: #1f77b4"/>
     </g>
    </g>
    <g id="text_34">
     <!-- androgenní receptor -->
     <g transform="translate(698.9545 43.765937) scale(0.1 -0.1)">
      <defs>
       <path id="DejaVuSans-ed" d="M 1322 5119 
L 1944 5119 
L 926 3944 
L 447 3944 
L 1322 5119 
z
M 603 3500 
L 1178 3500 
L 1178 0 
L 603 0 
L 603 3500 
z
M 891 3584 
L 891 3584 
z
" transform="scale(0.015625)"/>
      </defs>
      <use xlink:href="#DejaVuSans-61"/>
      <use xlink:href="#DejaVuSans-6e" transform="translate(61.279297 0)"/>
      <use xlink:href="#DejaVuSans-64" transform="translate(124.658203 0)"/>
      <use xlink:href="#DejaVuSans-72" transform="translate(188.134766 0)"/>
      <use xlink:href="#DejaVuSans-6f" transform="translate(226.998047 0)"/>
      <use xlink:href="#DejaVuSans-67" transform="translate(288.179688 0)"/>
      <use xlink:href="#DejaVuSans-65" transform="translate(351.65625 0)"/>
      <use xlink:href="#DejaVuSans-6e" transform="translate(413.179688 0)"/>
      <use xlink:href="#DejaVuSans-6e" transform="translate(476.558594 0)"/>
      <use xlink:href="#DejaVuSans-ed" transform="translate(539.9375 0)"/>
      <use xlink:href="#DejaVuSans-20" transform="translate(567.720703 0)"/>
      <use xlink:href="#DejaVuSans-72" transform="translate(599.507812 0)"/>
      <use xlink:href="#DejaVuSans-65" transform="translate(638.371094 0)"/>
      <use xlink:href="#DejaVuSans-63" transform="translate(699.894531 0)"/>
      <use xlink:href="#DejaVuSans-65" transform="translate(754.875 0)"/>
      <use xlink:href="#DejaVuSans-70" transform="translate(816.398438 0)"/>
      <use xlink:href="#DejaVuSans-74" transform="translate(879.875 0)"/>
      <use xlink:href="#DejaVuSans-6f" transform="translate(919.083984 0)"/>
      <use xlink:href="#DejaVuSans-72" transform="translate(980.265625 0)"/>
     </g>
    </g>
    <g id="line2d_68">
     <path d="M 670.9545 55.344062 
L 680.9545 55.344062 
L 690.9545 55.344062 
" style="fill: none; stroke: #ff7f0e; stroke-width: 1.5; stroke-linecap: square"/>
     <g>
      <use xlink:href="#m403ccede35" x="680.9545" y="55.344062" style="fill: #ff7f0e; stroke: #ff7f0e"/>
     </g>
    </g>
    <g id="text_35">
     <!-- estrogenový receptor α -->
     <g transform="translate(698.9545 58.844062) scale(0.1 -0.1)">
      <defs>
       <path id="DejaVuSans-fd" d="M 2059 -325 
Q 1816 -950 1584 -1140 
Q 1353 -1331 966 -1331 
L 506 -1331 
L 506 -850 
L 844 -850 
Q 1081 -850 1212 -737 
Q 1344 -625 1503 -206 
L 1606 56 
L 191 3500 
L 800 3500 
L 1894 763 
L 2988 3500 
L 3597 3500 
L 2059 -325 
z
M 2330 5119 
L 2952 5119 
L 1934 3944 
L 1455 3944 
L 2330 5119 
z
" transform="scale(0.015625)"/>
       <path id="DejaVuSans-3b1" d="M 2644 1628 
L 2506 2350 
Q 2366 3091 1809 3091 
Q 1391 3091 1200 2747 
Q 959 2316 959 1747 
Q 959 1059 1194 731 
Q 1431 397 1809 397 
Q 2228 397 2453 1063 
L 2644 1628 
z
M 2966 2584 
L 3275 3500 
L 3788 3500 
L 3147 1603 
L 3272 919 
Q 3300 766 3409 638 
Q 3538 488 3638 488 
L 3913 488 
L 3913 0 
L 3569 0 
Q 3275 0 3013 263 
Q 2884 394 2831 669 
Q 2688 322 2394 50 
Q 2256 -78 1809 -78 
Q 1075 -78 719 397 
Q 353 888 353 1747 
Q 353 2666 750 3097 
Q 1191 3578 1809 3578 
Q 2781 3578 2966 2584 
z
" transform="scale(0.015625)"/>
      </defs>
      <use xlink:href="#DejaVuSans-65"/>
      <use xlink:href="#DejaVuSans-73" transform="translate(61.523438 0)"/>
      <use xlink:href="#DejaVuSans-74" transform="translate(113.623047 0)"/>
      <use xlink:href="#DejaVuSans-72" transform="translate(152.832031 0)"/>
      <use xlink:href="#DejaVuSans-6f" transform="translate(191.695312 0)"/>
      <use xlink:href="#DejaVuSans-67" transform="translate(252.876953 0)"/>
      <use xlink:href="#DejaVuSans-65" transform="translate(316.353516 0)"/>
      <use xlink:href="#DejaVuSans-6e" transform="translate(377.876953 0)"/>
      <use xlink:href="#DejaVuSans-6f" transform="translate(441.255859 0)"/>
      <use xlink:href="#DejaVuSans-76" transform="translate(502.4375 0)"/>
      <use xlink:href="#DejaVuSans-fd" transform="translate(561.617188 0)"/>
      <use xlink:href="#DejaVuSans-20" transform="translate(620.796875 0)"/>
      <use xlink:href="#DejaVuSans-72" transform="translate(652.583984 0)"/>
      <use xlink:href="#DejaVuSans-65" transform="translate(691.447266 0)"/>
      <use xlink:href="#DejaVuSans-63" transform="translate(752.970703 0)"/>
      <use xlink:href="#DejaVuSans-65" transform="translate(807.951172 0)"/>
      <use xlink:href="#DejaVuSans-70" transform="translate(869.474609 0)"/>
      <use xlink:href="#DejaVuSans-74" transform="translate(932.951172 0)"/>
      <use xlink:href="#DejaVuSans-6f" transform="translate(972.160156 0)"/>
      <use xlink:href="#DejaVuSans-72" transform="translate(1033.341797 0)"/>
      <use xlink:href="#DejaVuSans-20" transform="translate(1074.455078 0)"/>
      <use xlink:href="#DejaVuSans-3b1" transform="translate(1106.242188 0)"/>
     </g>
    </g>
    <g id="line2d_69">
     <path d="M 670.9545 70.422187 
L 680.9545 70.422187 
L 690.9545 70.422187 
" style="fill: none; stroke: #2ca02c; stroke-width: 1.5; stroke-linecap: square"/>
     <g>
      <use xlink:href="#m475f57b0e5" x="680.9545" y="70.422187" style="fill: #2ca02c; stroke: #2ca02c"/>
     </g>
    </g>
    <g id="text_36">
     <!-- estrogenový receptor β -->
     <g transform="translate(698.9545 73.922187) scale(0.1 -0.1)">
      <defs>
       <path id="DejaVuSans-3b2" d="M 1178 216 
L 1178 -1331 
L 600 -1331 
L 600 3478 
Q 600 4903 1931 4903 
Q 3288 4903 3288 3700 
Q 3288 2844 2750 2531 
Q 3625 2250 3625 1416 
Q 3625 -66 2119 -66 
Q 1456 -66 1178 216 
z
M 1178 966 
Q 1525 425 2141 425 
Q 3041 425 3041 1406 
Q 3041 2288 1591 2219 
L 1591 2750 
Q 2725 2750 2725 3750 
Q 2725 4434 1994 4434 
Q 1178 4434 1178 3459 
L 1178 966 
z
" transform="scale(0.015625)"/>
      </defs>
      <use xlink:href="#DejaVuSans-65"/>
      <use xlink:href="#DejaVuSans-73" transform="translate(61.523438 0)"/>
      <use xlink:href="#DejaVuSans-74" transform="translate(113.623047 0)"/>
      <use xlink:href="#DejaVuSans-72" transform="translate(152.832031 0)"/>
      <use xlink:href="#DejaVuSans-6f" transform="translate(191.695312 0)"/>
      <use xlink:href="#DejaVuSans-67" transform="translate(252.876953 0)"/>
      <use xlink:href="#DejaVuSans-65" transform="translate(316.353516 0)"/>
      <use xlink:href="#DejaVuSans-6e" transform="translate(377.876953 0)"/>
      <use xlink:href="#DejaVuSans-6f" transform="translate(441.255859 0)"/>
      <use xlink:href="#DejaVuSans-76" transform="translate(502.4375 0)"/>
      <use xlink:href="#DejaVuSans-fd" transform="translate(561.617188 0)"/>
      <use xlink:href="#DejaVuSans-20" transform="translate(620.796875 0)"/>
      <use xlink:href="#DejaVuSans-72" transform="translate(652.583984 0)"/>
      <use xlink:href="#DejaVuSans-65" transform="translate(691.447266 0)"/>
      <use xlink:href="#DejaVuSans-63" transform="translate(752.970703 0)"/>
      <use xlink:href="#DejaVuSans-65" transform="translate(807.951172 0)"/>
      <use xlink:href="#DejaVuSans-70" transform="translate(869.474609 0)"/>
      <use xlink:href="#DejaVuSans-74" transform="translate(932.951172 0)"/>
      <use xlink:href="#DejaVuSans-6f" transform="translate(972.160156 0)"/>
      <use xlink:href="#DejaVuSans-72" transform="translate(1033.341797 0)"/>
      <use xlink:href="#DejaVuSans-20" transform="translate(1074.455078 0)"/>
      <use xlink:href="#DejaVuSans-3b2" transform="translate(1106.242188 0)"/>
     </g>
    </g>
    <g id="line2d_70">
     <path d="M 670.9545 85.500312 
L 680.9545 85.500312 
L 690.9545 85.500312 
" style="fill: none; stroke: #d62728; stroke-width: 1.5; stroke-linecap: square"/>
     <g>
      <use xlink:href="#m7d02be171a" x="680.9545" y="85.500312" style="fill: #d62728; stroke: #d62728"/>
     </g>
    </g>
    <g id="text_37">
     <!-- glukokortikoidní receptor -->
     <g transform="translate(698.9545 89.000312) scale(0.1 -0.1)">
      <defs>
       <path id="DejaVuSans-6c" d="M 603 4863 
L 1178 4863 
L 1178 0 
L 603 0 
L 603 4863 
z
" transform="scale(0.015625)"/>
       <path id="DejaVuSans-75" d="M 544 1381 
L 544 3500 
L 1119 3500 
L 1119 1403 
Q 1119 906 1312 657 
Q 1506 409 1894 409 
Q 2359 409 2629 706 
Q 2900 1003 2900 1516 
L 2900 3500 
L 3475 3500 
L 3475 0 
L 2900 0 
L 2900 538 
Q 2691 219 2414 64 
Q 2138 -91 1772 -91 
Q 1169 -91 856 284 
Q 544 659 544 1381 
z
M 1991 3584 
L 1991 3584 
z
" transform="scale(0.015625)"/>
       <path id="DejaVuSans-69" d="M 603 3500 
L 1178 3500 
L 1178 0 
L 603 0 
L 603 3500 
z
M 603 4863 
L 1178 4863 
L 1178 4134 
L 603 4134 
L 603 4863 
z
" transform="scale(0.015625)"/>
      </defs>
      <use xlink:href="#DejaVuSans-67"/>
      <use xlink:href="#DejaVuSans-6c" transform="translate(63.476562 0)"/>
      <use xlink:href="#DejaVuSans-75" transform="translate(91.259766 0)"/>
      <use xlink:href="#DejaVuSans-6b" transform="translate(154.638672 0)"/>
      <use xlink:href="#DejaVuSans-6f" transform="translate(208.923828 0)"/>
      <use xlink:href="#DejaVuSans-6b" transform="translate(270.105469 0)"/>
      <use xlink:href="#DejaVuSans-6f" transform="translate(324.390625 0)"/>
      <use xlink:href="#DejaVuSans-72" transform="translate(385.572266 0)"/>
      <use xlink:href="#DejaVuSans-74" transform="translate(426.685547 0)"/>
      <use xlink:href="#DejaVuSans-69" transform="translate(465.894531 0)"/>
      <use xlink:href="#DejaVuSans-6b" transform="translate(493.677734 0)"/>
      <use xlink:href="#DejaVuSans-6f" transform="translate(547.962891 0)"/>
      <use xlink:href="#DejaVuSans-69" transform="translate(609.144531 0)"/>
      <use xlink:href="#DejaVuSans-64" transform="translate(636.927734 0)"/>
      <use xlink:href="#DejaVuSans-6e" transform="translate(700.404297 0)"/>
      <use xlink:href="#DejaVuSans-ed" transform="translate(763.783203 0)"/>
      <use xlink:href="#DejaVuSans-20" transform="translate(791.566406 0)"/>
      <use xlink:href="#DejaVuSans-72" transform="translate(823.353516 0)"/>
      <use xlink:href="#DejaVuSans-65" transform="translate(862.216797 0)"/>
      <use xlink:href="#DejaVuSans-63" transform="translate(923.740234 0)"/>
      <use xlink:href="#DejaVuSans-65" transform="translate(978.720703 0)"/>
      <use xlink:href="#DejaVuSans-70" transform="translate(1040.244141 0)"/>
      <use xlink:href="#DejaVuSans-74" transform="translate(1103.720703 0)"/>
      <use xlink:href="#DejaVuSans-6f" transform="translate(1142.929688 0)"/>
      <use xlink:href="#DejaVuSans-72" transform="translate(1204.111328 0)"/>
     </g>
    </g>
    <g id="line2d_71">
     <path d="M 670.9545 100.578437 
L 680.9545 100.578437 
L 690.9545 100.578437 
" style="fill: none; stroke: #9467bd; stroke-width: 1.5; stroke-linecap: square"/>
     <g>
      <use xlink:href="#m506f2445ef" x="680.9545" y="100.578437" style="fill: #9467bd; stroke: #9467bd"/>
     </g>
    </g>
    <g id="text_38">
     <!-- mineralokortikoidní receptor -->
     <g transform="translate(698.9545 104.078437) scale(0.1 -0.1)">
      <use xlink:href="#DejaVuSans-6d"/>
      <use xlink:href="#DejaVuSans-69" transform="translate(97.412109 0)"/>
      <use xlink:href="#DejaVuSans-6e" transform="translate(125.195312 0)"/>
      <use xlink:href="#DejaVuSans-65" transform="translate(188.574219 0)"/>
      <use xlink:href="#DejaVuSans-72" transform="translate(250.097656 0)"/>
      <use xlink:href="#DejaVuSans-61" transform="translate(291.210938 0)"/>
      <use xlink:href="#DejaVuSans-6c" transform="translate(352.490234 0)"/>
      <use xlink:href="#DejaVuSans-6f" transform="translate(380.273438 0)"/>
      <use xlink:href="#DejaVuSans-6b" transform="translate(441.455078 0)"/>
      <use xlink:href="#DejaVuSans-6f" transform="translate(495.740234 0)"/>
      <use xlink:href="#DejaVuSans-72" transform="translate(556.921875 0)"/>
      <use xlink:href="#DejaVuSans-74" transform="translate(598.035156 0)"/>
      <use xlink:href="#DejaVuSans-69" transform="translate(637.244141 0)"/>
      <use xlink:href="#DejaVuSans-6b" transform="translate(665.027344 0)"/>
      <use xlink:href="#DejaVuSans-6f" transform="translate(719.3125 0)"/>
      <use xlink:href="#DejaVuSans-69" transform="translate(780.494141 0)"/>
      <use xlink:href="#DejaVuSans-64" transform="translate(808.277344 0)"/>
      <use xlink:href="#DejaVuSans-6e" transform="translate(871.753906 0)"/>
      <use xlink:href="#DejaVuSans-ed" transform="translate(935.132812 0)"/>
      <use xlink:href="#DejaVuSans-20" transform="translate(962.916016 0)"/>
      <use xlink:href="#DejaVuSans-72" transform="translate(994.703125 0)"/>
      <use xlink:href="#DejaVuSans-65" transform="translate(1033.566406 0)"/>
      <use xlink:href="#DejaVuSans-63" transform="translate(1095.089844 0)"/>
      <use xlink:href="#DejaVuSans-65" transform="translate(1150.070312 0)"/>
      <use xlink:href="#DejaVuSans-70" transform="translate(1211.59375 0)"/>
      <use xlink:href="#DejaVuSans-74" transform="translate(1275.070312 0)"/>
      <use xlink:href="#DejaVuSans-6f" transform="translate(1314.279297 0)"/>
      <use xlink:href="#DejaVuSans-72" transform="translate(1375.460938 0)"/>
     </g>
    </g>
    <g id="line2d_72">
     <path d="M 670.9545 115.656562 
L 680.9545 115.656562 
L 690.9545 115.656562 
" style="fill: none; stroke: #8c564b; stroke-width: 1.5; stroke-linecap: square"/>
     <g>
      <use xlink:href="#m43c3578d83" x="680.9545" y="115.656562" style="fill: #8c564b; stroke: #8c564b"/>
     </g>
    </g>
    <g id="text_39">
     <!-- progesteronový receptor -->
     <g transform="translate(698.9545 119.156562) scale(0.1 -0.1)">
      <use xlink:href="#DejaVuSans-70"/>
      <use xlink:href="#DejaVuSans-72" transform="translate(63.476562 0)"/>
      <use xlink:href="#DejaVuSans-6f" transform="translate(102.339844 0)"/>
      <use xlink:href="#DejaVuSans-67" transform="translate(163.521484 0)"/>
      <use xlink:href="#DejaVuSans-65" transform="translate(226.998047 0)"/>
      <use xlink:href="#DejaVuSans-73" transform="translate(288.521484 0)"/>
      <use xlink:href="#DejaVuSans-74" transform="translate(340.621094 0)"/>
      <use xlink:href="#DejaVuSans-65" transform="translate(379.830078 0)"/>
      <use xlink:href="#DejaVuSans-72" transform="translate(441.353516 0)"/>
      <use xlink:href="#DejaVuSans-6f" transform="translate(480.216797 0)"/>
      <use xlink:href="#DejaVuSans-6e" transform="translate(541.398438 0)"/>
      <use xlink:href="#DejaVuSans-6f" transform="translate(604.777344 0)"/>
      <use xlink:href="#DejaVuSans-76" transform="translate(665.958984 0)"/>
      <use xlink:href="#DejaVuSans-fd" transform="translate(725.138672 0)"/>
      <use xlink:href="#DejaVuSans-20" transform="translate(784.318359 0)"/>
      <use xlink:href="#DejaVuSans-72" transform="translate(816.105469 0)"/>
      <use xlink:href="#DejaVuSans-65" transform="translate(854.96875 0)"/>
      <use xlink:href="#DejaVuSans-63" transform="translate(916.492188 0)"/>
      <use xlink:href="#DejaVuSans-65" transform="translate(971.472656 0)"/>
      <use xlink:href="#DejaVuSans-70" transform="translate(1032.996094 0)"/>
      <use xlink:href="#DejaVuSans-74" transform="translate(1096.472656 0)"/>
      <use xlink:href="#DejaVuSans-6f" transform="translate(1135.681641 0)"/>
      <use xlink:href="#DejaVuSans-72" transform="translate(1196.863281 0)"/>
     </g>
    </g>
   </g>
  </g>
 </g>
 <defs>
  <clipPath id="p40812c87da">
   <rect x="54.015" y="26.7675" width="578.99" height="500.23"/>
  </clipPath>
 </defs>
</svg>
